<?xml version="1.0" encoding="utf-8" standalone="no"?>
<!DOCTYPE svg PUBLIC "-//W3C//DTD SVG 1.1//EN"
  "http://www.w3.org/Graphics/SVG/1.1/DTD/svg11.dtd">
<!-- Created with matplotlib (http://matplotlib.org/) -->
<svg height="360pt" version="1.1" viewBox="0 0 1008 360" width="1008pt" xmlns="http://www.w3.org/2000/svg" xmlns:xlink="http://www.w3.org/1999/xlink">
 <defs>
  <style type="text/css">
*{stroke-linecap:butt;stroke-linejoin:round;}
  </style>
 </defs>
 <g id="figure_1">
  <g id="patch_1">
   <path d="M 0 360 
L 1008 360 
L 1008 0 
L 0 0 
z
" style="fill:none;opacity:0;"/>
  </g>
  <g id="axes_1">
   <g id="matplotlib.axis_1">
    <g id="xtick_1">
     <g id="line2d_1">
      <defs>
       <path d="M 0 0 
L 0 3.5 
" id="m68a8b0deec" style="stroke:#ffff00;stroke-width:0.8;"/>
      </defs>
      <g>
       <use style="fill:#ffff00;stroke:#ffff00;stroke-width:0.8;" x="161.509091" xlink:href="#m68a8b0deec" y="315"/>
      </g>
     </g>
     <g id="text_1">
      <!-- $0.0$ -->
      <defs>
       <path d="M 42 31.640625 
C 42 37.75 41.90625 48.125 37.703125 56.109375 
C 34 63.109375 28.09375 65.59375 22.90625 65.59375 
C 18.09375 65.59375 12 63.40625 8.203125 56.203125 
C 4.203125 48.71875 3.796875 39.4375 3.796875 31.640625 
C 3.796875 25.953125 3.90625 17.28125 7 9.671875 
C 11.296875 -0.609375 19 -2 22.90625 -2 
C 27.5 -2 34.5 -0.109375 38.59375 9.375 
C 41.59375 16.28125 42 24.359375 42 31.640625 
z
M 22.90625 -0.40625 
C 16.5 -0.40625 12.703125 5.078125 11.296875 12.6875 
C 10.203125 18.5625 10.203125 27.15625 10.203125 32.75 
C 10.203125 40.4375 10.203125 46.828125 11.5 52.921875 
C 13.40625 61.390625 19 64 22.90625 64 
C 27 64 32.296875 61.296875 34.203125 53.125 
C 35.5 47.4375 35.59375 40.734375 35.59375 32.75 
C 35.59375 26.25 35.59375 18.265625 34.40625 12.375 
C 32.296875 1.484375 26.40625 -0.40625 22.90625 -0.40625 
z
" id="CMR17-48"/>
       <path d="M 18.40625 4.796875 
C 18.40625 7.6875 16 9.671875 13.59375 9.671875 
C 10.703125 9.671875 8.703125 7.28125 8.703125 4.890625 
C 8.703125 2 11.09375 0 13.5 0 
C 16.40625 0 18.40625 2.390625 18.40625 4.796875 
z
" id="CMMI12-58"/>
      </defs>
      <g style="fill:#ffff00;" transform="translate(149.661278 335.836997)scale(0.2 -0.2)">
       <use transform="scale(0.996264)" xlink:href="#CMR17-48"/>
       <use transform="translate(45.690477 0)scale(0.996264)" xlink:href="#CMMI12-58"/>
       <use transform="translate(72.787654 0)scale(0.996264)" xlink:href="#CMR17-48"/>
      </g>
     </g>
    </g>
    <g id="xtick_2">
     <g id="line2d_2">
      <g>
       <use style="fill:#ffff00;stroke:#ffff00;stroke-width:0.8;" x="303.545455" xlink:href="#m68a8b0deec" y="315"/>
      </g>
     </g>
     <g id="text_2">
      <!-- $0.2$ -->
      <defs>
       <path d="M 41.703125 15.453125 
L 39.90625 15.453125 
C 38.90625 8.375 38.09375 7.171875 37.703125 6.5625 
C 37.203125 5.765625 30 5.765625 28.59375 5.765625 
L 9.40625 5.765625 
C 13 9.671875 20 16.75 28.5 24.953125 
C 34.59375 30.734375 41.703125 37.53125 41.703125 47.421875 
C 41.703125 59.21875 32.296875 66 21.796875 66 
C 10.796875 66 4.09375 56.3125 4.09375 47.34375 
C 4.09375 43.4375 7 42.9375 8.203125 42.9375 
C 9.203125 42.9375 12.203125 43.546875 12.203125 47.03125 
C 12.203125 50.109375 9.59375 51 8.203125 51 
C 7.59375 51 7 50.90625 6.59375 50.703125 
C 8.5 59.21875 14.296875 63.40625 20.40625 63.40625 
C 29.09375 63.40625 34.796875 56.515625 34.796875 47.421875 
C 34.796875 38.734375 29.703125 31.25 24 24.75 
L 4.09375 2.28125 
L 4.09375 0 
L 39.296875 0 
z
" id="CMR17-50"/>
      </defs>
      <g style="fill:#ffff00;" transform="translate(291.697641 335.836997)scale(0.2 -0.2)">
       <use transform="scale(0.996264)" xlink:href="#CMR17-48"/>
       <use transform="translate(45.690477 0)scale(0.996264)" xlink:href="#CMMI12-58"/>
       <use transform="translate(72.787654 0)scale(0.996264)" xlink:href="#CMR17-50"/>
      </g>
     </g>
    </g>
    <g id="xtick_3">
     <g id="line2d_3">
      <g>
       <use style="fill:#ffff00;stroke:#ffff00;stroke-width:0.8;" x="445.581818" xlink:href="#m68a8b0deec" y="315"/>
      </g>
     </g>
     <g id="text_3">
      <!-- $0.4$ -->
      <defs>
       <path d="M 33.59375 64.40625 
C 33.59375 66.5 33.5 66.5 31.703125 66.5 
L 2 19.59375 
L 2 17 
L 27.796875 17 
L 27.796875 7.140625 
C 27.796875 3.5 27.59375 2.5 20.59375 2.5 
L 18.703125 2.5 
L 18.703125 0 
C 21.90625 0 27.296875 0 30.703125 0 
C 34.09375 0 39.5 0 42.703125 0 
L 42.703125 2.5 
L 40.796875 2.5 
C 33.796875 2.5 33.59375 3.5 33.59375 7.140625 
L 33.59375 17 
L 43.796875 17 
L 43.796875 19.59375 
L 33.59375 19.59375 
z
M 28.09375 57.859375 
L 28.09375 19.59375 
L 4 19.59375 
z
" id="CMR17-52"/>
      </defs>
      <g style="fill:#ffff00;" transform="translate(433.734005 335.836997)scale(0.2 -0.2)">
       <use transform="scale(0.996264)" xlink:href="#CMR17-48"/>
       <use transform="translate(45.690477 0)scale(0.996264)" xlink:href="#CMMI12-58"/>
       <use transform="translate(72.787654 0)scale(0.996264)" xlink:href="#CMR17-52"/>
      </g>
     </g>
    </g>
    <g id="xtick_4">
     <g id="line2d_4">
      <g>
       <use style="fill:#ffff00;stroke:#ffff00;stroke-width:0.8;" x="587.618182" xlink:href="#m68a8b0deec" y="315"/>
      </g>
     </g>
     <g id="text_4">
      <!-- $0.6$ -->
      <defs>
       <path d="M 10.59375 34 
C 10.59375 57.65625 21.796875 63 28.296875 63 
C 30.40625 63 35.5 62.640625 37.5 59 
C 35.90625 59 32.90625 59 32.90625 55.515625 
C 32.90625 52.828125 35.09375 51.921875 36.5 51.921875 
C 37.40625 51.921875 40.09375 52.3125 40.09375 55.625 
C 40.09375 61.78125 35.09375 65.296875 28.203125 65.296875 
C 16.296875 65.296875 3.796875 52.96875 3.796875 31 
C 3.796875 3.953125 15.09375 -2 23.09375 -2 
C 32.796875 -2 42 6.671875 42 20.046875 
C 42 32.515625 33.90625 41.59375 23.703125 41.59375 
C 17.59375 41.59375 13.09375 37.609375 10.59375 30.625 
z
M 23.09375 0.390625 
C 10.796875 0.390625 10.796875 18.75 10.796875 22.4375 
C 10.796875 29.625 14.203125 40 23.5 40 
C 25.203125 40 30.09375 40 33.40625 33.125 
C 35.203125 29.21875 35.203125 25.140625 35.203125 20.140625 
C 35.203125 14.75 35.203125 10.78125 33.09375 6.78125 
C 30.90625 2.671875 27.703125 0.390625 23.09375 0.390625 
z
" id="CMR17-54"/>
      </defs>
      <g style="fill:#ffff00;" transform="translate(575.770369 335.836997)scale(0.2 -0.2)">
       <use transform="scale(0.996264)" xlink:href="#CMR17-48"/>
       <use transform="translate(45.690477 0)scale(0.996264)" xlink:href="#CMMI12-58"/>
       <use transform="translate(72.787654 0)scale(0.996264)" xlink:href="#CMR17-54"/>
      </g>
     </g>
    </g>
    <g id="xtick_5">
     <g id="line2d_5">
      <g>
       <use style="fill:#ffff00;stroke:#ffff00;stroke-width:0.8;" x="729.654545" xlink:href="#m68a8b0deec" y="315"/>
      </g>
     </g>
     <g id="text_5">
      <!-- $0.8$ -->
      <defs>
       <path d="M 27.203125 35.375 
C 33.5 38.546875 39.90625 43.328125 39.90625 50.984375 
C 39.90625 60.015625 31.09375 65.296875 23 65.296875 
C 13.90625 65.296875 5.90625 58.734375 5.90625 49.6875 
C 5.90625 47.203125 6.5 42.921875 10.40625 39.140625 
C 11.40625 38.15625 15.59375 35.171875 18.296875 33.28125 
C 13.796875 30.984375 3.296875 25.53125 3.296875 14.59375 
C 3.296875 4.359375 13.09375 -2 22.796875 -2 
C 33.5 -2 42.5 5.65625 42.5 15.78125 
C 42.5 24.84375 36.40625 29.015625 32.40625 31.703125 
z
M 14.09375 44.09375 
C 13.296875 44.59375 9.296875 47.671875 9.296875 52.359375 
C 9.296875 58.421875 15.59375 63 22.796875 63 
C 30.703125 63 36.5 57.4375 36.5 50.96875 
C 36.5 41.703125 26.09375 36.421875 25.59375 36.421875 
C 25.5 36.421875 25.40625 36.421875 24.59375 37.03125 
z
M 32.5 23.734375 
C 34 22.640625 38.796875 19.375 38.796875 13.296875 
C 38.796875 5.953125 31.40625 0.390625 23 0.390625 
C 13.90625 0.390625 7 6.84375 7 14.6875 
C 7 22.546875 13.09375 29.09375 20 32.1875 
z
" id="CMR17-56"/>
      </defs>
      <g style="fill:#ffff00;" transform="translate(717.806732 335.836997)scale(0.2 -0.2)">
       <use transform="scale(0.996264)" xlink:href="#CMR17-48"/>
       <use transform="translate(45.690477 0)scale(0.996264)" xlink:href="#CMMI12-58"/>
       <use transform="translate(72.787654 0)scale(0.996264)" xlink:href="#CMR17-56"/>
      </g>
     </g>
    </g>
    <g id="xtick_6">
     <g id="line2d_6">
      <g>
       <use style="fill:#ffff00;stroke:#ffff00;stroke-width:0.8;" x="871.690909" xlink:href="#m68a8b0deec" y="315"/>
      </g>
     </g>
     <g id="text_6">
      <!-- $1.0$ -->
      <defs>
       <path d="M 26.59375 63.40625 
C 26.59375 65.5 26.5 65.5 25.09375 65.5 
C 21.203125 61.1875 15.296875 59.796875 9.703125 59.796875 
C 9.40625 59.796875 8.90625 59.796875 8.796875 59.5 
C 8.703125 59.296875 8.703125 59.09375 8.703125 57 
C 11.796875 57 17 57.59375 21 59.984375 
L 21 7.203125 
C 21 3.6875 20.796875 2.5 12.203125 2.5 
L 9.203125 2.5 
L 9.203125 0 
C 14 0 19 0 23.796875 0 
C 28.59375 0 33.59375 0 38.40625 0 
L 38.40625 2.5 
L 35.40625 2.5 
C 26.796875 2.5 26.59375 3.59375 26.59375 7.15625 
z
" id="CMR17-49"/>
      </defs>
      <g style="fill:#ffff00;" transform="translate(859.843096 335.836997)scale(0.2 -0.2)">
       <use transform="scale(0.996264)" xlink:href="#CMR17-49"/>
       <use transform="translate(45.690477 0)scale(0.996264)" xlink:href="#CMMI12-58"/>
       <use transform="translate(72.787654 0)scale(0.996264)" xlink:href="#CMR17-48"/>
      </g>
     </g>
    </g>
    <g id="text_7">
     <!-- $\theta$ -->
     <defs>
      <path d="M 44.296875 50 
C 44.296875 60.15625 41.09375 70 32.90625 70 
C 18.90625 70 4 40.859375 4 19 
C 4 14.421875 5 -1 15.5 -1 
C 29.09375 -1 44.296875 27.4375 44.296875 50 
z
M 14 36 
C 15.5 41.859375 17.59375 50.21875 21.59375 57.265625 
C 24.90625 63.234375 28.40625 68 32.796875 68 
C 36.09375 68 38.296875 65.21875 38.296875 55.6875 
C 38.296875 52.09375 38 47.140625 35.09375 36 
z
M 34.40625 33.015625 
C 31.90625 23.28125 29.796875 17 26.203125 10.734375 
C 23.296875 5.671875 19.796875 1 15.59375 1 
C 12.5 1 10 3.390625 10 13.21875 
C 10 19.6875 11.59375 26.453125 13.203125 33.015625 
z
" id="CMMI12-18"/>
     </defs>
     <g style="fill:#ffff00;" transform="translate(510.917528 361.008884)scale(0.25 -0.25)">
      <use transform="scale(0.996264)" xlink:href="#CMMI12-18"/>
     </g>
    </g>
   </g>
   <g id="matplotlib.axis_2">
    <g id="text_8">
     <!-- $p(\theta)$ -->
     <defs>
      <path d="M 4.296875 -12.328125 
C 3.59375 -15.3125 3.203125 -16.109375 -0.90625 -16.109375 
C -2.09375 -16.109375 -3.09375 -16.109375 -3.09375 -18 
C -3.09375 -18.203125 -3 -19 -1.90625 -19 
C -0.59375 -19 0.796875 -19 2.09375 -19 
L 6.40625 -19 
C 8.5 -19 13.59375 -19 15.703125 -19 
C 16.296875 -19 17.5 -19 17.5 -17.203125 
C 17.5 -16.109375 16.796875 -16.109375 15.09375 -16.109375 
C 10.5 -16.109375 10.203125 -15.421875 10.203125 -14.640625 
C 10.203125 -13.453125 14.703125 3.421875 15.296875 5.6875 
C 16.40625 2.890625 19.09375 -1 24.296875 -1 
C 35.59375 -1 47.796875 13.671875 47.796875 28.34375 
C 47.796875 37.515625 42.59375 44 35.09375 44 
C 28.703125 44 23.296875 37.8125 22.203125 36.421875 
C 21.40625 41.40625 17.5 44 13.5 44 
C 10.59375 44 8.296875 42.609375 6.40625 38.8125 
C 4.59375 35.21875 3.203125 29.140625 3.203125 28.734375 
C 3.203125 28.34375 3.59375 27.84375 4.296875 27.84375 
C 5.09375 27.84375 5.203125 27.9375 5.796875 30.234375 
C 7.296875 36.125 9.203125 42.015625 13.203125 42.015625 
C 15.5 42.015625 16.296875 40.421875 16.296875 37.453125 
C 16.296875 35.078125 16 34.078125 15.59375 32.296875 
z
M 21.59375 31.140625 
C 22.296875 33.921875 25.09375 36.828125 26.703125 38.21875 
C 27.796875 39.21875 31.09375 42.015625 34.90625 42.015625 
C 39.296875 42.015625 41.296875 37.625 41.296875 32.4375 
C 41.296875 27.640625 38.5 16.359375 36 11.171875 
C 33.5 5.78125 28.90625 1 24.296875 1 
C 17.5 1 16.40625 9.578125 16.40625 9.984375 
C 16.40625 10.28125 16.59375 11.078125 16.703125 11.578125 
z
" id="CMMI12-112"/>
      <path d="M 30.59375 -24.390625 
C 30.59375 -24.296875 30.59375 -24.09375 30.296875 -23.796875 
C 25.703125 -19.125 13.40625 -6.359375 13.40625 24.703125 
C 13.40625 55.765625 25.5 68.421875 30.40625 73.390625 
C 30.40625 73.5 30.59375 73.703125 30.59375 74 
C 30.59375 74.296875 30.296875 74.5 29.90625 74.5 
C 28.796875 74.5 20.296875 67.125 15.40625 56.15625 
C 10.40625 45.109375 9 34.359375 9 24.8125 
C 9 17.625 9.703125 5.484375 15.703125 -7.359375 
C 20.5 -17.734375 28.703125 -25 29.90625 -25 
C 30.40625 -25 30.59375 -24.796875 30.59375 -24.390625 
z
" id="CMR17-40"/>
      <path d="M 26.296875 24.703125 
C 26.296875 31.875 25.59375 44.015625 19.59375 56.859375 
C 14.796875 67.234375 6.59375 74.5 5.40625 74.5 
C 5.09375 74.5 4.703125 74.390625 4.703125 73.890625 
C 4.703125 73.703125 4.796875 73.59375 4.90625 73.390625 
C 9.703125 68.40625 21.90625 55.75 21.90625 24.75 
C 21.90625 -6.359375 9.796875 -19.015625 4.90625 -24.015625 
C 4.796875 -24.203125 4.703125 -24.3125 4.703125 -24.5 
C 4.703125 -25 5.09375 -25 5.40625 -25 
C 6.5 -25 15 -17.625 19.90625 -6.65625 
C 24.90625 4.390625 26.296875 15.140625 26.296875 24.703125 
z
" id="CMR17-41"/>
     </defs>
     <g style="fill:#ffff00;" transform="translate(115.794192 200.061297)rotate(-90)scale(0.25 -0.25)">
      <use transform="scale(0.996264)" xlink:href="#CMMI12-112"/>
      <use transform="translate(48.959514 0)scale(0.996264)" xlink:href="#CMR17-40"/>
      <use transform="translate(84.240282 0)scale(0.996264)" xlink:href="#CMMI12-18"/>
      <use transform="translate(132.40979 0)scale(0.996264)" xlink:href="#CMR17-41"/>
     </g>
    </g>
   </g>
   <g id="line2d_7">
    <path clip-path="url(#p1c59e386cc)" d="M 161.509091 214.920005 
L 871.690909 214.920005 
L 871.690909 214.920005 
" style="fill:none;stroke:#ffff00;stroke-linecap:square;stroke-width:2;"/>
   </g>
   <g id="line2d_8">
    <path clip-path="url(#p1c59e386cc)" d="M 161.509091 302.645455 
L 189.063079 302.538553 
L 199.729139 302.273874 
L 208.617522 301.832342 
L 215.728228 301.278869 
L 222.838935 300.503651 
L 229.060803 299.612266 
L 235.282672 298.495375 
L 241.50454 297.129167 
L 246.83757 295.743086 
L 252.1706 294.145361 
L 257.50363 292.324993 
L 262.836659 290.272495 
L 268.169689 287.979984 
L 273.502719 285.44126 
L 278.835749 282.651856 
L 284.168779 279.609082 
L 289.501809 276.312045 
L 294.834839 272.76166 
L 300.167869 268.960637 
L 305.500899 264.913465 
L 311.722767 259.889074 
L 317.944635 254.551025 
L 324.166504 248.915172 
L 330.388372 243.000256 
L 337.499078 235.926295 
L 344.609785 228.552046 
L 352.60933 219.947047 
L 362.386551 209.073832 
L 374.830288 194.854054 
L 404.161952 161.168572 
L 413.050336 151.346312 
L 421.049881 142.81661 
L 428.160587 135.544428 
L 434.382455 129.462227 
L 440.604324 123.676598 
L 446.826192 118.218823 
L 452.159222 113.824181 
L 457.492252 109.709789 
L 462.825282 105.892149 
L 468.158312 102.386609 
L 472.602503 99.713958 
L 477.046695 97.275357 
L 481.490886 95.077645 
L 485.935078 93.126995 
L 490.37927 91.428886 
L 494.823461 89.988096 
L 499.267653 88.80868 
L 503.711844 87.893958 
L 508.156036 87.246507 
L 512.600228 86.868152 
L 517.044419 86.759959 
L 521.488611 86.922233 
L 525.932802 87.354517 
L 530.376994 88.055592 
L 534.821186 89.023483 
L 539.265377 90.255464 
L 543.709569 91.748065 
L 548.15376 93.497087 
L 552.597952 95.497611 
L 557.042144 97.744015 
L 561.486335 100.229994 
L 565.930527 102.948577 
L 570.374718 105.892149 
L 575.707748 109.709789 
L 581.040778 113.824181 
L 586.373808 118.218823 
L 591.706838 122.876133 
L 597.928706 128.616804 
L 604.150575 134.658611 
L 611.261281 141.890463 
L 619.260826 150.382521 
L 628.149209 160.172844 
L 638.815269 172.270483 
L 677.924155 217.016149 
L 686.812538 226.666173 
L 694.812083 235.020151 
L 701.92279 242.133706 
L 709.033496 248.915172 
L 715.255365 254.551025 
L 721.477233 259.889074 
L 727.699101 264.913465 
L 733.032131 268.960637 
L 738.365161 272.76166 
L 743.698191 276.312045 
L 749.031221 279.609082 
L 754.364251 282.651856 
L 759.697281 285.44126 
L 765.030311 287.979984 
L 770.363341 290.272495 
L 775.69637 292.324993 
L 781.0294 294.145361 
L 786.36243 295.743086 
L 791.69546 297.129167 
L 797.917328 298.495375 
L 804.139197 299.612266 
L 810.361065 300.503651 
L 817.471772 301.278869 
L 824.582478 301.832342 
L 832.582023 302.240235 
L 842.359245 302.509604 
L 855.691819 302.632459 
L 871.690909 302.645455 
L 871.690909 302.645455 
" style="fill:none;stroke:#ffff00;stroke-dasharray:7.4,3.2;stroke-dashoffset:0;stroke-width:2;"/>
   </g>
   <g id="line2d_9">
    <path clip-path="url(#p1c59e386cc)" d="M 161.509091 302.645455 
L 231.727318 302.537733 
L 258.392468 302.263283 
L 278.835749 301.837314 
L 296.612516 301.246013 
L 312.611605 300.486471 
L 326.833019 299.591164 
L 340.165593 298.531465 
L 352.60933 297.323286 
L 364.164228 295.989876 
L 375.719126 294.432231 
L 386.385186 292.777963 
L 397.051246 290.899657 
L 407.717306 288.781641 
L 417.494527 286.616368 
L 427.271749 284.225094 
L 437.04897 281.596546 
L 446.826192 278.719876 
L 455.714575 275.8807 
L 464.602958 272.82058 
L 473.491341 269.532659 
L 482.379725 266.01062 
L 491.268108 262.248754 
L 500.156491 258.242035 
L 509.044874 253.986197 
L 517.933257 249.477813 
L 526.821641 244.714389 
L 535.710024 239.694452 
L 544.598407 234.417656 
L 553.48679 228.884889 
L 562.375174 223.09839 
L 571.263557 217.06188 
L 581.040778 210.139383 
L 590.818 202.930468 
L 600.595221 195.447602 
L 611.261281 186.990499 
L 621.927341 178.25113 
L 633.482239 168.500652 
L 646.814814 156.945572 
L 662.813904 142.771132 
L 701.033952 108.765126 
L 711.700011 99.63088 
L 720.588395 92.289209 
L 728.587939 85.962863 
L 735.698646 80.61929 
L 741.920514 76.203173 
L 748.142383 72.070829 
L 753.475412 68.78806 
L 758.808442 65.776948 
L 763.252634 63.499544 
L 767.696826 61.455732 
L 772.141017 59.668923 
L 776.585209 58.164723 
L 780.140562 57.18364 
L 783.695915 56.417064 
L 787.251269 55.882019 
L 790.806622 55.597026 
L 794.361975 55.582307 
L 797.02849 55.76189 
L 799.695005 56.11609 
L 802.36152 56.655864 
L 805.028035 57.393055 
L 807.69455 58.340508 
L 810.361065 59.512205 
L 813.02758 60.923423 
L 815.694095 62.590927 
L 818.36061 64.5332 
L 821.027125 66.770723 
L 823.69364 69.326329 
L 826.360155 72.225626 
L 829.02667 75.497549 
L 831.693185 79.175053 
L 834.3597 83.296013 
L 837.026215 87.90442 
L 839.69273 93.051973 
L 842.359245 98.800288 
L 845.025759 105.223996 
L 847.692274 112.41526 
L 850.358789 120.490579 
L 853.025304 129.601511 
L 854.802981 136.348774 
L 856.580658 143.724984 
L 858.358334 151.832639 
L 860.136011 160.808228 
L 861.913688 170.841154 
L 863.691364 182.208993 
L 865.469041 195.350793 
L 867.246717 211.045474 
L 868.135556 220.302418 
L 869.024394 230.974817 
L 869.913232 243.832005 
L 870.802071 260.848953 
L 871.690909 302.645455 
L 871.690909 302.645455 
" style="fill:none;stroke:#ffff00;stroke-dasharray:2,3.3;stroke-dashoffset:0;stroke-width:2;"/>
   </g>
   <g id="patch_2">
    <path d="M 126 315 
L 126 43.2 
" style="fill:none;stroke:#ffff00;stroke-linecap:square;stroke-linejoin:miter;stroke-width:0.8;"/>
   </g>
   <g id="patch_3">
    <path d="M 126 315 
L 907.2 315 
" style="fill:none;stroke:#ffff00;stroke-linecap:square;stroke-linejoin:miter;stroke-width:0.8;"/>
   </g>
   <g id="legend_1">
    <g id="patch_4">
     <path d="M 140 142.826901 
L 321.181434 142.826901 
Q 325.181434 142.826901 325.181434 138.826901 
L 325.181434 57.2 
Q 325.181434 53.2 321.181434 53.2 
L 140 53.2 
Q 136 53.2 136 57.2 
L 136 138.826901 
Q 136 142.826901 140 142.826901 
z
" style="fill:none;opacity:0;"/>
    </g>
    <g id="line2d_10">
     <path d="M 144 68.2 
L 184 68.2 
" style="fill:none;stroke:#ffff00;stroke-linecap:square;stroke-width:2;"/>
    </g>
    <g id="line2d_11"/>
    <g id="text_9">
     <!-- $a=1, ~ b=1$ -->
     <defs>
      <path d="M 30.09375 11.875 
C 29.59375 10.171875 29.59375 9.984375 28.203125 8.078125 
C 26 5.28125 21.59375 1 16.90625 1 
C 12.796875 1 10.5 4.6875 10.5 10.578125 
C 10.5 16.0625 13.59375 27.234375 15.5 31.4375 
C 18.90625 38.421875 23.59375 42.015625 27.5 42.015625 
C 34.09375 42.015625 35.40625 33.828125 35.40625 33.03125 
C 35.40625 32.9375 35.09375 31.625 35 31.4375 
z
M 36.5 37.421875 
C 35.40625 40.015625 32.703125 44 27.5 44 
C 16.203125 44 4 29.4375 4 14.671875 
C 4 4.796875 9.796875 -1 16.59375 -1 
C 22.09375 -1 26.796875 3.296875 29.59375 6.59375 
C 30.59375 0.703125 35.296875 -1 38.296875 -1 
C 41.296875 -1 43.703125 0.796875 45.5 4.390625 
C 47.09375 7.78125 48.5 13.875 48.5 14.265625 
C 48.5 14.765625 48.09375 15.171875 47.5 15.171875 
C 46.59375 15.171875 46.5 14.671875 46.09375 13.171875 
C 44.59375 7.28125 42.703125 1 38.59375 1 
C 35.703125 1 35.5 3.59375 35.5 5.59375 
C 35.5 7.890625 35.796875 8.984375 36.703125 12.875 
C 37.40625 15.375 37.90625 17.5625 38.703125 20.453125 
C 42.40625 35.421875 43.296875 39.015625 43.296875 39.609375 
C 43.296875 41.015625 42.203125 42.109375 40.703125 42.109375 
C 37.5 42.109375 36.703125 38.625 36.5 37.421875 
z
" id="CMMI12-97"/>
      <path d="M 64.296875 31.515625 
C 65.796875 31.515625 67.296875 31.515625 67.296875 33.203125 
C 67.296875 35 65.59375 35 63.90625 35 
L 8 35 
C 6.296875 35 4.59375 35 4.59375 33.203125 
C 4.59375 31.515625 6.09375 31.515625 7.59375 31.515625 
z
M 63.90625 14 
C 65.59375 14 67.296875 14 67.296875 15.796875 
C 67.296875 17.484375 65.796875 17.484375 64.296875 17.484375 
L 7.59375 17.484375 
C 6.09375 17.484375 4.59375 17.484375 4.59375 15.796875 
C 4.59375 14 6.296875 14 8 14 
z
" id="CMR17-61"/>
      <path d="M 19.5 -0.484375 
C 19.5 5.359375 17.59375 9.671875 13.5 9.671875 
C 10.296875 9.671875 8.703125 7.078125 8.703125 4.890625 
C 8.703125 2.6875 10.203125 0 13.59375 0 
C 14.90625 0 16 0.40625 16.90625 1.296875 
C 17.09375 1.5 17.203125 1.5 17.296875 1.5 
C 17.5 1.5 17.5 0.078125 17.5 -0.421875 
C 17.5 -3.75 16.90625 -10.296875 11.09375 -16.875 
C 10 -18.078125 10 -18.28125 10 -18.484375 
C 10 -19 10.5 -19.5 11 -19.5 
C 11.796875 -19.5 19.5 -12.046875 19.5 -0.484375 
z
" id="CMMI12-59"/>
      <path d="M 23.09375 66.515625 
C 23.203125 66.921875 23.40625 67.515625 23.40625 68 
C 23.40625 69 22.40625 69 22.203125 69 
C 22.09375 69 18.5 68.640625 16.703125 68.390625 
C 15 68.390625 13.5 68.09375 11.703125 68.09375 
C 9.296875 67.890625 8.59375 67.796875 8.59375 66 
C 8.59375 65 9.59375 65 10.59375 65 
C 15.703125 65 15.703125 64.109375 15.703125 63.125 
C 15.703125 62.4375 14.90625 59.546875 14.5 57.75 
L 12.09375 48.203125 
C 11.09375 44.234375 5.40625 21.671875 5 19.875 
C 4.5 17.40625 4.5 15.703125 4.5 14.40625 
C 4.5 4.28125 10.203125 -1 16.703125 -1 
C 28.296875 -1 40.296875 13.875 40.296875 28.34375 
C 40.296875 37.515625 35.09375 44 27.59375 44 
C 22.40625 44 17.703125 39.71875 15.796875 37.71875 
z
M 16.796875 1 
C 13.59375 1 10.09375 3.390625 10.09375 11.171875 
C 10.09375 14.46875 10.40625 16.359375 12.203125 23.34375 
C 12.5 24.640625 14.09375 31.03125 14.5 32.328125 
C 14.703125 33.125 20.59375 42.015625 27.40625 42.015625 
C 31.796875 42.015625 33.796875 37.625 33.796875 32.4375 
C 33.796875 27.640625 31 16.359375 28.5 11.171875 
C 26 5.78125 21.40625 1 16.796875 1 
z
" id="CMMI12-98"/>
     </defs>
     <g style="fill:#ffff00;" transform="translate(200 75.2)scale(0.2 -0.2)">
      <use transform="scale(0.996264)" xlink:href="#CMMI12-97"/>
      <use transform="translate(78.881866 0)scale(0.996264)" xlink:href="#CMR17-61"/>
      <use transform="translate(178.270663 0)scale(0.996264)" xlink:href="#CMR17-49"/>
      <use transform="translate(223.961141 0)scale(0.996264)" xlink:href="#CMMI12-59"/>
      <use transform="translate(298.891836 0)scale(0.996264)" xlink:href="#CMMI12-98"/>
      <use transform="translate(368.041719 0)scale(0.996264)" xlink:href="#CMR17-61"/>
      <use transform="translate(467.430516 0)scale(0.996264)" xlink:href="#CMR17-49"/>
     </g>
    </g>
    <g id="line2d_12">
     <path d="M 144 96.075634 
L 184 96.075634 
" style="fill:none;stroke:#ffff00;stroke-dasharray:7.4,3.2;stroke-dashoffset:0;stroke-width:2;"/>
    </g>
    <g id="line2d_13"/>
    <g id="text_10">
     <!-- $a=5, ~ b=5$ -->
     <defs>
      <path d="M 11.40625 57.6875 
C 12.40625 57.28125 16.5 56 20.703125 56 
C 30 56 35.09375 61.109375 38 64.0625 
C 38 64.953125 38 65.5 37.40625 65.5 
C 37.296875 65.5 37.09375 65.5 36.296875 65.046875 
C 32.796875 63.40625 28.703125 62.078125 23.703125 62.078125 
C 20.703125 62.078125 16.203125 62.484375 11.296875 64.671875 
C 10.203125 65.171875 10 65.171875 9.90625 65.171875 
C 9.40625 65.171875 9.296875 65.0625 9.296875 63.078125 
L 9.296875 34.421875 
C 9.296875 32.640625 9.296875 32.140625 10.296875 32.140625 
C 10.796875 32.140625 11 32.34375 11.5 33.03125 
C 14.703125 37.515625 19.09375 39.40625 24.09375 39.40625 
C 27.59375 39.40625 35.09375 37.21875 35.09375 20.140625 
C 35.09375 16.953125 35.09375 11.171875 32.09375 6.578125 
C 29.59375 2.484375 25.703125 0.390625 21.40625 0.390625 
C 14.796875 0.390625 8.09375 5 6.296875 12.71875 
C 6.703125 12.609375 7.5 12.421875 7.90625 12.421875 
C 9.203125 12.421875 11.703125 13.125 11.703125 16.21875 
C 11.703125 18.90625 9.796875 20 7.90625 20 
C 5.59375 20 4.09375 18.59375 4.09375 15.796875 
C 4.09375 7.09375 11 -2 21.59375 -2 
C 31.90625 -2 41.703125 6.875 41.703125 19.75 
C 41.703125 31.71875 33.90625 41 24.203125 41 
C 19.09375 41 14.796875 39.109375 11.40625 35.53125 
z
" id="CMR17-53"/>
     </defs>
     <g style="fill:#ffff00;" transform="translate(200 103.075634)scale(0.2 -0.2)">
      <use transform="scale(0.996264)" xlink:href="#CMMI12-97"/>
      <use transform="translate(78.881866 0)scale(0.996264)" xlink:href="#CMR17-61"/>
      <use transform="translate(178.270663 0)scale(0.996264)" xlink:href="#CMR17-53"/>
      <use transform="translate(223.961141 0)scale(0.996264)" xlink:href="#CMMI12-59"/>
      <use transform="translate(298.891836 0)scale(0.996264)" xlink:href="#CMMI12-98"/>
      <use transform="translate(368.041719 0)scale(0.996264)" xlink:href="#CMR17-61"/>
      <use transform="translate(467.430516 0)scale(0.996264)" xlink:href="#CMR17-53"/>
     </g>
    </g>
    <g id="line2d_14">
     <path d="M 144 123.951267 
L 184 123.951267 
" style="fill:none;stroke:#ffff00;stroke-dasharray:2,3.3;stroke-dashoffset:0;stroke-width:2;"/>
    </g>
    <g id="line2d_15"/>
    <g id="text_11">
     <!-- $a=5, ~ b=1.5$ -->
     <g style="fill:#ffff00;" transform="translate(200 130.951267)scale(0.2 -0.2)">
      <use transform="scale(0.996264)" xlink:href="#CMMI12-97"/>
      <use transform="translate(78.881866 0)scale(0.996264)" xlink:href="#CMR17-61"/>
      <use transform="translate(178.270663 0)scale(0.996264)" xlink:href="#CMR17-53"/>
      <use transform="translate(223.961141 0)scale(0.996264)" xlink:href="#CMMI12-59"/>
      <use transform="translate(298.891836 0)scale(0.996264)" xlink:href="#CMMI12-98"/>
      <use transform="translate(368.041719 0)scale(0.996264)" xlink:href="#CMR17-61"/>
      <use transform="translate(467.430516 0)scale(0.996264)" xlink:href="#CMR17-49"/>
      <use transform="translate(513.120993 0)scale(0.996264)" xlink:href="#CMMI12-58"/>
      <use transform="translate(540.21817 0)scale(0.996264)" xlink:href="#CMR17-53"/>
     </g>
    </g>
   </g>
  </g>
 </g>
 <defs>
  <clipPath id="p1c59e386cc">
   <rect height="271.8" width="781.2" x="126" y="43.2"/>
  </clipPath>
 </defs>
</svg>
