<?xml version="1.0" encoding="utf-8" standalone="no"?>
<!DOCTYPE svg PUBLIC "-//W3C//DTD SVG 1.1//EN"
  "http://www.w3.org/Graphics/SVG/1.1/DTD/svg11.dtd">
<!-- Created with matplotlib (https://matplotlib.org/) -->
<svg height="360pt" version="1.1" viewBox="0 0 1008 360" width="1008pt" xmlns="http://www.w3.org/2000/svg" xmlns:xlink="http://www.w3.org/1999/xlink">
 <defs>
  <style type="text/css">
*{stroke-linecap:butt;stroke-linejoin:round;}
  </style>
 </defs>
 <g id="figure_1">
  <g id="patch_1">
   <path d="M 0 360 
L 1008 360 
L 1008 0 
L 0 0 
z
" style="fill:none;opacity:0;"/>
  </g>
  <g id="axes_1">
   <g id="matplotlib.axis_1">
    <g id="xtick_1">
     <g id="line2d_1">
      <defs>
       <path d="M 0 0 
L 0 3.5 
" id="m21277b77ef" style="stroke:#00aac2;stroke-width:0.8;"/>
      </defs>
      <g>
       <use style="fill:#00aac2;stroke:#00aac2;stroke-width:0.8;" x="161.509091" xlink:href="#m21277b77ef" y="315"/>
      </g>
     </g>
     <g id="text_1">
      <!-- $0.0$ -->
      <defs>
       <path d="M 42 31.640625 
C 42 37.75 41.90625 48.125 37.703125 56.109375 
C 34 63.109375 28.09375 65.59375 22.90625 65.59375 
C 18.09375 65.59375 12 63.40625 8.203125 56.203125 
C 4.203125 48.71875 3.796875 39.4375 3.796875 31.640625 
C 3.796875 25.953125 3.90625 17.28125 7 9.671875 
C 11.296875 -0.609375 19 -2 22.90625 -2 
C 27.5 -2 34.5 -0.109375 38.59375 9.375 
C 41.59375 16.28125 42 24.359375 42 31.640625 
z
M 22.90625 -0.40625 
C 16.5 -0.40625 12.703125 5.078125 11.296875 12.6875 
C 10.203125 18.5625 10.203125 27.15625 10.203125 32.75 
C 10.203125 40.4375 10.203125 46.828125 11.5 52.921875 
C 13.40625 61.390625 19 64 22.90625 64 
C 27 64 32.296875 61.296875 34.203125 53.125 
C 35.5 47.4375 35.59375 40.734375 35.59375 32.75 
C 35.59375 26.25 35.59375 18.265625 34.40625 12.375 
C 32.296875 1.484375 26.40625 -0.40625 22.90625 -0.40625 
z
" id="CMR17-48"/>
       <path d="M 18.40625 4.796875 
C 18.40625 7.6875 16 9.671875 13.59375 9.671875 
C 10.703125 9.671875 8.703125 7.28125 8.703125 4.890625 
C 8.703125 2 11.09375 0 13.5 0 
C 16.40625 0 18.40625 2.390625 18.40625 4.796875 
z
" id="CMMI12-58"/>
      </defs>
      <g style="fill:#00aac2;" transform="translate(149.661278 335.836997)scale(0.2 -0.2)">
       <use transform="scale(0.996264)" xlink:href="#CMR17-48"/>
       <use transform="translate(45.690477 0)scale(0.996264)" xlink:href="#CMMI12-58"/>
       <use transform="translate(72.787654 0)scale(0.996264)" xlink:href="#CMR17-48"/>
      </g>
     </g>
    </g>
    <g id="xtick_2">
     <g id="line2d_2">
      <g>
       <use style="fill:#00aac2;stroke:#00aac2;stroke-width:0.8;" x="303.545455" xlink:href="#m21277b77ef" y="315"/>
      </g>
     </g>
     <g id="text_2">
      <!-- $0.2$ -->
      <defs>
       <path d="M 41.703125 15.453125 
L 39.90625 15.453125 
C 38.90625 8.375 38.09375 7.171875 37.703125 6.5625 
C 37.203125 5.765625 30 5.765625 28.59375 5.765625 
L 9.40625 5.765625 
C 13 9.671875 20 16.75 28.5 24.953125 
C 34.59375 30.734375 41.703125 37.53125 41.703125 47.421875 
C 41.703125 59.21875 32.296875 66 21.796875 66 
C 10.796875 66 4.09375 56.3125 4.09375 47.34375 
C 4.09375 43.4375 7 42.9375 8.203125 42.9375 
C 9.203125 42.9375 12.203125 43.546875 12.203125 47.03125 
C 12.203125 50.109375 9.59375 51 8.203125 51 
C 7.59375 51 7 50.90625 6.59375 50.703125 
C 8.5 59.21875 14.296875 63.40625 20.40625 63.40625 
C 29.09375 63.40625 34.796875 56.515625 34.796875 47.421875 
C 34.796875 38.734375 29.703125 31.25 24 24.75 
L 4.09375 2.28125 
L 4.09375 0 
L 39.296875 0 
z
" id="CMR17-50"/>
      </defs>
      <g style="fill:#00aac2;" transform="translate(291.697641 335.836997)scale(0.2 -0.2)">
       <use transform="scale(0.996264)" xlink:href="#CMR17-48"/>
       <use transform="translate(45.690477 0)scale(0.996264)" xlink:href="#CMMI12-58"/>
       <use transform="translate(72.787654 0)scale(0.996264)" xlink:href="#CMR17-50"/>
      </g>
     </g>
    </g>
    <g id="xtick_3">
     <g id="line2d_3">
      <g>
       <use style="fill:#00aac2;stroke:#00aac2;stroke-width:0.8;" x="445.581818" xlink:href="#m21277b77ef" y="315"/>
      </g>
     </g>
     <g id="text_3">
      <!-- $0.4$ -->
      <defs>
       <path d="M 33.59375 64.40625 
C 33.59375 66.5 33.5 66.5 31.703125 66.5 
L 2 19.59375 
L 2 17 
L 27.796875 17 
L 27.796875 7.140625 
C 27.796875 3.5 27.59375 2.5 20.59375 2.5 
L 18.703125 2.5 
L 18.703125 0 
C 21.90625 0 27.296875 0 30.703125 0 
C 34.09375 0 39.5 0 42.703125 0 
L 42.703125 2.5 
L 40.796875 2.5 
C 33.796875 2.5 33.59375 3.5 33.59375 7.140625 
L 33.59375 17 
L 43.796875 17 
L 43.796875 19.59375 
L 33.59375 19.59375 
z
M 28.09375 57.859375 
L 28.09375 19.59375 
L 4 19.59375 
z
" id="CMR17-52"/>
      </defs>
      <g style="fill:#00aac2;" transform="translate(433.734005 335.836997)scale(0.2 -0.2)">
       <use transform="scale(0.996264)" xlink:href="#CMR17-48"/>
       <use transform="translate(45.690477 0)scale(0.996264)" xlink:href="#CMMI12-58"/>
       <use transform="translate(72.787654 0)scale(0.996264)" xlink:href="#CMR17-52"/>
      </g>
     </g>
    </g>
    <g id="xtick_4">
     <g id="line2d_4">
      <g>
       <use style="fill:#00aac2;stroke:#00aac2;stroke-width:0.8;" x="587.618182" xlink:href="#m21277b77ef" y="315"/>
      </g>
     </g>
     <g id="text_4">
      <!-- $0.6$ -->
      <defs>
       <path d="M 10.59375 34 
C 10.59375 57.65625 21.796875 63 28.296875 63 
C 30.40625 63 35.5 62.640625 37.5 59 
C 35.90625 59 32.90625 59 32.90625 55.515625 
C 32.90625 52.828125 35.09375 51.921875 36.5 51.921875 
C 37.40625 51.921875 40.09375 52.3125 40.09375 55.625 
C 40.09375 61.78125 35.09375 65.296875 28.203125 65.296875 
C 16.296875 65.296875 3.796875 52.96875 3.796875 31 
C 3.796875 3.953125 15.09375 -2 23.09375 -2 
C 32.796875 -2 42 6.671875 42 20.046875 
C 42 32.515625 33.90625 41.59375 23.703125 41.59375 
C 17.59375 41.59375 13.09375 37.609375 10.59375 30.625 
z
M 23.09375 0.390625 
C 10.796875 0.390625 10.796875 18.75 10.796875 22.4375 
C 10.796875 29.625 14.203125 40 23.5 40 
C 25.203125 40 30.09375 40 33.40625 33.125 
C 35.203125 29.21875 35.203125 25.140625 35.203125 20.140625 
C 35.203125 14.75 35.203125 10.78125 33.09375 6.78125 
C 30.90625 2.671875 27.703125 0.390625 23.09375 0.390625 
z
" id="CMR17-54"/>
      </defs>
      <g style="fill:#00aac2;" transform="translate(575.770369 335.836997)scale(0.2 -0.2)">
       <use transform="scale(0.996264)" xlink:href="#CMR17-48"/>
       <use transform="translate(45.690477 0)scale(0.996264)" xlink:href="#CMMI12-58"/>
       <use transform="translate(72.787654 0)scale(0.996264)" xlink:href="#CMR17-54"/>
      </g>
     </g>
    </g>
    <g id="xtick_5">
     <g id="line2d_5">
      <g>
       <use style="fill:#00aac2;stroke:#00aac2;stroke-width:0.8;" x="729.654545" xlink:href="#m21277b77ef" y="315"/>
      </g>
     </g>
     <g id="text_5">
      <!-- $0.8$ -->
      <defs>
       <path d="M 27.203125 35.375 
C 33.5 38.546875 39.90625 43.328125 39.90625 50.984375 
C 39.90625 60.015625 31.09375 65.296875 23 65.296875 
C 13.90625 65.296875 5.90625 58.734375 5.90625 49.6875 
C 5.90625 47.203125 6.5 42.921875 10.40625 39.140625 
C 11.40625 38.15625 15.59375 35.171875 18.296875 33.28125 
C 13.796875 30.984375 3.296875 25.53125 3.296875 14.59375 
C 3.296875 4.359375 13.09375 -2 22.796875 -2 
C 33.5 -2 42.5 5.65625 42.5 15.78125 
C 42.5 24.84375 36.40625 29.015625 32.40625 31.703125 
z
M 14.09375 44.09375 
C 13.296875 44.59375 9.296875 47.671875 9.296875 52.359375 
C 9.296875 58.421875 15.59375 63 22.796875 63 
C 30.703125 63 36.5 57.4375 36.5 50.96875 
C 36.5 41.703125 26.09375 36.421875 25.59375 36.421875 
C 25.5 36.421875 25.40625 36.421875 24.59375 37.03125 
z
M 32.5 23.734375 
C 34 22.640625 38.796875 19.375 38.796875 13.296875 
C 38.796875 5.953125 31.40625 0.390625 23 0.390625 
C 13.90625 0.390625 7 6.84375 7 14.6875 
C 7 22.546875 13.09375 29.09375 20 32.1875 
z
" id="CMR17-56"/>
      </defs>
      <g style="fill:#00aac2;" transform="translate(717.806732 335.836997)scale(0.2 -0.2)">
       <use transform="scale(0.996264)" xlink:href="#CMR17-48"/>
       <use transform="translate(45.690477 0)scale(0.996264)" xlink:href="#CMMI12-58"/>
       <use transform="translate(72.787654 0)scale(0.996264)" xlink:href="#CMR17-56"/>
      </g>
     </g>
    </g>
    <g id="xtick_6">
     <g id="line2d_6">
      <g>
       <use style="fill:#00aac2;stroke:#00aac2;stroke-width:0.8;" x="871.690909" xlink:href="#m21277b77ef" y="315"/>
      </g>
     </g>
     <g id="text_6">
      <!-- $1.0$ -->
      <defs>
       <path d="M 26.59375 63.40625 
C 26.59375 65.5 26.5 65.5 25.09375 65.5 
C 21.203125 61.1875 15.296875 59.796875 9.703125 59.796875 
C 9.40625 59.796875 8.90625 59.796875 8.796875 59.5 
C 8.703125 59.296875 8.703125 59.09375 8.703125 57 
C 11.796875 57 17 57.59375 21 59.984375 
L 21 7.203125 
C 21 3.6875 20.796875 2.5 12.203125 2.5 
L 9.203125 2.5 
L 9.203125 0 
C 14 0 19 0 23.796875 0 
C 28.59375 0 33.59375 0 38.40625 0 
L 38.40625 2.5 
L 35.40625 2.5 
C 26.796875 2.5 26.59375 3.59375 26.59375 7.15625 
z
" id="CMR17-49"/>
      </defs>
      <g style="fill:#00aac2;" transform="translate(859.843096 335.836997)scale(0.2 -0.2)">
       <use transform="scale(0.996264)" xlink:href="#CMR17-49"/>
       <use transform="translate(45.690477 0)scale(0.996264)" xlink:href="#CMMI12-58"/>
       <use transform="translate(72.787654 0)scale(0.996264)" xlink:href="#CMR17-48"/>
      </g>
     </g>
    </g>
    <g id="text_7">
     <!-- $\theta$ -->
     <defs>
      <path d="M 44.296875 50 
C 44.296875 60.15625 41.09375 70 32.90625 70 
C 18.90625 70 4 40.859375 4 19 
C 4 14.421875 5 -1 15.5 -1 
C 29.09375 -1 44.296875 27.4375 44.296875 50 
z
M 14 36 
C 15.5 41.859375 17.59375 50.21875 21.59375 57.265625 
C 24.90625 63.234375 28.40625 68 32.796875 68 
C 36.09375 68 38.296875 65.21875 38.296875 55.6875 
C 38.296875 52.09375 38 47.140625 35.09375 36 
z
M 34.40625 33.015625 
C 31.90625 23.28125 29.796875 17 26.203125 10.734375 
C 23.296875 5.671875 19.796875 1 15.59375 1 
C 12.5 1 10 3.390625 10 13.21875 
C 10 19.6875 11.59375 26.453125 13.203125 33.015625 
z
" id="CMMI12-18"/>
     </defs>
     <g style="fill:#00aac2;" transform="translate(510.917528 361.008884)scale(0.25 -0.25)">
      <use transform="scale(0.996264)" xlink:href="#CMMI12-18"/>
     </g>
    </g>
   </g>
   <g id="matplotlib.axis_2">
    <g id="text_8">
     <!-- $p(\theta)$ -->
     <defs>
      <path d="M 4.296875 -12.328125 
C 3.59375 -15.3125 3.203125 -16.109375 -0.90625 -16.109375 
C -2.09375 -16.109375 -3.09375 -16.109375 -3.09375 -18 
C -3.09375 -18.203125 -3 -19 -1.90625 -19 
C -0.59375 -19 0.796875 -19 2.09375 -19 
L 6.40625 -19 
C 8.5 -19 13.59375 -19 15.703125 -19 
C 16.296875 -19 17.5 -19 17.5 -17.203125 
C 17.5 -16.109375 16.796875 -16.109375 15.09375 -16.109375 
C 10.5 -16.109375 10.203125 -15.421875 10.203125 -14.640625 
C 10.203125 -13.453125 14.703125 3.421875 15.296875 5.6875 
C 16.40625 2.890625 19.09375 -1 24.296875 -1 
C 35.59375 -1 47.796875 13.671875 47.796875 28.34375 
C 47.796875 37.515625 42.59375 44 35.09375 44 
C 28.703125 44 23.296875 37.8125 22.203125 36.421875 
C 21.40625 41.40625 17.5 44 13.5 44 
C 10.59375 44 8.296875 42.609375 6.40625 38.8125 
C 4.59375 35.21875 3.203125 29.140625 3.203125 28.734375 
C 3.203125 28.34375 3.59375 27.84375 4.296875 27.84375 
C 5.09375 27.84375 5.203125 27.9375 5.796875 30.234375 
C 7.296875 36.125 9.203125 42.015625 13.203125 42.015625 
C 15.5 42.015625 16.296875 40.421875 16.296875 37.453125 
C 16.296875 35.078125 16 34.078125 15.59375 32.296875 
z
M 21.59375 31.140625 
C 22.296875 33.921875 25.09375 36.828125 26.703125 38.21875 
C 27.796875 39.21875 31.09375 42.015625 34.90625 42.015625 
C 39.296875 42.015625 41.296875 37.625 41.296875 32.4375 
C 41.296875 27.640625 38.5 16.359375 36 11.171875 
C 33.5 5.78125 28.90625 1 24.296875 1 
C 17.5 1 16.40625 9.578125 16.40625 9.984375 
C 16.40625 10.28125 16.59375 11.078125 16.703125 11.578125 
z
" id="CMMI12-112"/>
      <path d="M 30.59375 -24.390625 
C 30.59375 -24.296875 30.59375 -24.09375 30.296875 -23.796875 
C 25.703125 -19.125 13.40625 -6.359375 13.40625 24.703125 
C 13.40625 55.765625 25.5 68.421875 30.40625 73.390625 
C 30.40625 73.5 30.59375 73.703125 30.59375 74 
C 30.59375 74.296875 30.296875 74.5 29.90625 74.5 
C 28.796875 74.5 20.296875 67.125 15.40625 56.15625 
C 10.40625 45.109375 9 34.359375 9 24.8125 
C 9 17.625 9.703125 5.484375 15.703125 -7.359375 
C 20.5 -17.734375 28.703125 -25 29.90625 -25 
C 30.40625 -25 30.59375 -24.796875 30.59375 -24.390625 
z
" id="CMR17-40"/>
      <path d="M 26.296875 24.703125 
C 26.296875 31.875 25.59375 44.015625 19.59375 56.859375 
C 14.796875 67.234375 6.59375 74.5 5.40625 74.5 
C 5.09375 74.5 4.703125 74.390625 4.703125 73.890625 
C 4.703125 73.703125 4.796875 73.59375 4.90625 73.390625 
C 9.703125 68.40625 21.90625 55.75 21.90625 24.75 
C 21.90625 -6.359375 9.796875 -19.015625 4.90625 -24.015625 
C 4.796875 -24.203125 4.703125 -24.3125 4.703125 -24.5 
C 4.703125 -25 5.09375 -25 5.40625 -25 
C 6.5 -25 15 -17.625 19.90625 -6.65625 
C 24.90625 4.390625 26.296875 15.140625 26.296875 24.703125 
z
" id="CMR17-41"/>
     </defs>
     <g style="fill:#00aac2;" transform="translate(115.794192 200.061297)rotate(-90)scale(0.25 -0.25)">
      <use transform="scale(0.996264)" xlink:href="#CMMI12-112"/>
      <use transform="translate(48.959514 0)scale(0.996264)" xlink:href="#CMR17-40"/>
      <use transform="translate(84.240282 0)scale(0.996264)" xlink:href="#CMMI12-18"/>
      <use transform="translate(132.40979 0)scale(0.996264)" xlink:href="#CMR17-41"/>
     </g>
    </g>
   </g>
   <g id="line2d_7">
    <path clip-path="url(#pa32f5bdf27)" d="M 161.509091 280.825867 
L 871.690909 280.825867 
L 871.690909 280.825867 
" style="fill:none;stroke:#00aac2;stroke-dasharray:2,3.3;stroke-dashoffset:0;stroke-width:2;"/>
   </g>
   <g id="line2d_8">
    <path clip-path="url(#pa32f5bdf27)" d="M 161.509091 302.645455 
L 215.728228 302.539991 
L 233.504995 302.265948 
L 246.83757 301.8469 
L 258.392468 301.272836 
L 269.058528 300.525887 
L 278.835749 299.627791 
L 288.612971 298.501916 
L 297.501354 297.265338 
L 306.389737 295.81585 
L 315.27812 294.148288 
L 324.166504 292.26226 
L 333.054887 290.162378 
L 342.832108 287.617231 
L 352.60933 284.845106 
L 363.27539 281.594034 
L 375.719126 277.559642 
L 391.718216 272.121585 
L 422.827557 261.495864 
L 434.382455 257.803001 
L 444.159677 254.888903 
L 453.04806 252.452157 
L 461.936443 250.254043 
L 469.935988 248.506294 
L 477.935533 246.998603 
L 485.04624 245.874633 
L 492.156946 244.965349 
L 499.267653 244.279436 
L 506.378359 243.823465 
L 513.489066 243.601813 
L 520.599772 243.616611 
L 527.710479 243.867715 
L 534.821186 244.352714 
L 541.931892 245.066952 
L 549.042599 246.00359 
L 556.153305 247.153683 
L 564.15285 248.688991 
L 572.152395 250.462177 
L 580.15194 252.452157 
L 589.040323 254.888903 
L 598.817545 257.803001 
L 610.372443 261.495864 
L 624.593856 266.288745 
L 663.702742 279.60487 
L 675.25764 283.246759 
L 685.9237 286.383848 
L 695.700922 289.035073 
L 705.478143 291.447541 
L 714.366526 293.419948 
L 723.25491 295.175126 
L 732.143293 296.711484 
L 741.031676 298.032315 
L 750.808897 299.245805 
L 760.586119 300.224306 
L 771.252179 301.048896 
L 781.918239 301.652211 
L 794.361975 302.125257 
L 808.583388 302.435018 
L 827.248993 302.603437 
L 862.802526 302.645437 
L 871.690909 302.645455 
L 871.690909 302.645455 
" style="fill:none;stroke:#00aac2;stroke-dasharray:7.4,3.2;stroke-dashoffset:0;stroke-width:2;"/>
   </g>
   <g id="line2d_9">
    <path clip-path="url(#pa32f5bdf27)" d="M 161.509091 302.645455 
L 340.165593 302.541153 
L 353.498168 302.311322 
L 363.27539 301.926985 
L 370.386096 301.444476 
L 376.607965 300.81472 
L 381.940994 300.06947 
L 387.274024 299.084087 
L 391.718216 298.040776 
L 396.162408 296.759675 
L 400.606599 295.20559 
L 404.161952 293.741744 
L 407.717306 292.062229 
L 411.272659 290.149678 
L 414.828012 287.987926 
L 418.383366 285.562549 
L 421.938719 282.861428 
L 425.494072 279.875329 
L 429.049425 276.598484 
L 432.604779 273.029143 
L 436.160132 269.170095 
L 439.715485 265.029123 
L 444.159677 259.477032 
L 448.603868 253.543572 
L 453.936898 245.99477 
L 460.158767 236.748101 
L 478.824371 208.646418 
L 483.268563 202.504563 
L 486.823916 197.911908 
L 490.37927 193.667997 
L 493.934623 189.828448 
L 496.601138 187.245325 
L 499.267653 184.9386 
L 501.934168 182.926234 
L 504.600683 181.224072 
L 507.267198 179.845638 
L 509.933713 178.801968 
L 512.600228 178.101462 
L 514.377904 177.828017 
L 516.155581 177.71065 
L 517.933257 177.749784 
L 519.710934 177.945278 
L 521.488611 178.296427 
L 523.266287 178.801968 
L 525.932802 179.845638 
L 528.599317 181.224072 
L 531.265832 182.926234 
L 533.932347 184.9386 
L 536.598862 187.245325 
L 539.265377 189.828448 
L 541.931892 192.668109 
L 545.487245 196.816004 
L 549.042599 201.326868 
L 553.48679 207.387409 
L 558.81982 215.123717 
L 565.930527 225.890354 
L 577.485425 243.392851 
L 582.818455 251.074659 
L 587.262646 257.146799 
L 591.706838 262.856809 
L 596.15103 268.160863 
L 599.706383 272.091325 
L 603.261736 275.733542 
L 606.81709 279.083516 
L 610.372443 282.141908 
L 613.927796 284.913534 
L 617.483149 287.406814 
L 621.038503 289.6332 
L 624.593856 291.606594 
L 628.149209 293.342778 
L 631.704563 294.858867 
L 635.259916 296.1728 
L 639.704107 297.558816 
L 644.148299 298.693098 
L 648.592491 299.610038 
L 653.925521 300.46896 
L 659.25855 301.11257 
L 665.480419 301.65088 
L 673.479964 302.097121 
L 683.257185 302.397021 
L 697.478598 302.577033 
L 725.032586 302.642217 
L 871.690909 302.645455 
L 871.690909 302.645455 
" style="fill:none;stroke:#00aac2;stroke-dasharray:12.8,3.2,2,3.2;stroke-dashoffset:0;stroke-width:2;"/>
   </g>
   <g id="line2d_10">
    <path clip-path="url(#pa32f5bdf27)" d="M 161.509091 302.645455 
L 419.272204 302.54519 
L 426.38291 302.33287 
L 431.71594 301.95768 
L 435.271294 301.516208 
L 438.826647 300.834433 
L 441.493162 300.103548 
L 444.159677 299.123468 
L 446.826192 297.827519 
L 448.603868 296.750023 
L 450.381545 295.471835 
L 452.159222 293.964985 
L 453.936898 292.199608 
L 455.714575 290.144224 
L 457.492252 287.766134 
L 459.269928 285.031907 
L 461.047605 281.907988 
L 462.825282 278.361408 
L 464.602958 274.360612 
L 466.380635 269.876368 
L 468.158312 264.88277 
L 469.935988 259.358301 
L 471.713665 253.286933 
L 474.38018 243.135896 
L 477.046695 231.736614 
L 479.71321 219.137148 
L 482.379725 205.438059 
L 485.935078 185.741968 
L 490.37927 159.60144 
L 496.601138 122.779825 
L 499.267653 107.961561 
L 501.934168 94.302641 
L 503.711844 86.037137 
L 505.489521 78.574187 
L 507.267198 72.016479 
L 509.044874 66.456211 
L 510.822551 61.972959 
L 511.711389 60.15616 
L 512.600228 58.631794 
L 513.489066 57.405474 
L 514.377904 56.481732 
L 515.266743 55.863991 
L 516.155581 55.554545 
L 517.044419 55.554545 
L 517.933257 55.863991 
L 518.822096 56.481732 
L 519.710934 57.405474 
L 520.599772 58.631794 
L 521.488611 60.15616 
L 522.377449 61.972959 
L 524.155126 66.456211 
L 525.932802 72.016479 
L 527.710479 78.574187 
L 529.488156 86.037137 
L 531.265832 94.302641 
L 533.932347 107.961561 
L 536.598862 122.779825 
L 541.043054 148.954058 
L 547.264922 185.741968 
L 550.820275 205.438059 
L 553.48679 219.137148 
L 556.153305 231.736614 
L 558.81982 243.135896 
L 561.486335 253.286933 
L 563.264012 259.358301 
L 565.041688 264.88277 
L 566.819365 269.876368 
L 568.597042 274.360612 
L 570.374718 278.361408 
L 572.152395 281.907988 
L 573.930072 285.031907 
L 575.707748 287.766134 
L 577.485425 290.144224 
L 579.263102 292.199608 
L 581.040778 293.964985 
L 582.818455 295.471835 
L 584.596132 296.750023 
L 586.373808 297.827519 
L 589.040323 299.123468 
L 591.706838 300.103548 
L 594.373353 300.834433 
L 597.928706 301.516208 
L 601.48406 301.95768 
L 605.928251 302.287616 
L 612.150119 302.510977 
L 622.816179 302.62446 
L 659.25855 302.645449 
L 871.690909 302.645455 
L 871.690909 302.645455 
" style="fill:none;stroke:#00aac2;stroke-linecap:square;stroke-width:2;"/>
   </g>
   <g id="patch_2">
    <path d="M 126 315 
L 126 43.2 
" style="fill:none;stroke:#00aac2;stroke-linecap:square;stroke-linejoin:miter;stroke-width:0.8;"/>
   </g>
   <g id="patch_3">
    <path d="M 126 315 
L 907.2 315 
" style="fill:none;stroke:#00aac2;stroke-linecap:square;stroke-linejoin:miter;stroke-width:0.8;"/>
   </g>
   <g id="legend_1">
    <g id="patch_4">
     <path d="M 606.299883 170.702534 
L 893.2 170.702534 
Q 897.2 170.702534 897.2 166.702534 
L 897.2 57.2 
Q 897.2 53.2 893.2 53.2 
L 606.299883 53.2 
Q 602.299883 53.2 602.299883 57.2 
L 602.299883 166.702534 
Q 602.299883 170.702534 606.299883 170.702534 
z
" style="fill:none;opacity:0;"/>
    </g>
    <g id="line2d_11">
     <path d="M 610.299883 68.2 
L 650.299883 68.2 
" style="fill:none;stroke:#00aac2;stroke-dasharray:2,3.3;stroke-dashoffset:0;stroke-width:2;"/>
    </g>
    <g id="line2d_12"/>
    <g id="text_9">
     <!-- Prior -->
     <defs>
      <path d="M 32.90625 29 
C 44.90625 29 54.703125 38.328125 54.703125 49.34375 
C 54.703125 60.15625 45.296875 69.578125 32.296875 69.578125 
L 8.90625 69.578125 
L 8.90625 0 
L 17.296875 0 
L 17.296875 29 
z
M 30.09375 64 
C 41.703125 64 46.796875 56.671875 46.796875 49.328125 
C 46.796875 42.5 42.09375 34.78125 30.09375 34.78125 
L 17.09375 34.78125 
L 17.09375 64 
z
" id="CMSS17-80"/>
      <path d="M 14.90625 21.296875 
C 14.90625 30.703125 21.796875 37 30.59375 37 
L 30.59375 43.578125 
C 24.203125 43.578125 18.203125 40.390625 14.59375 35.203125 
L 14.59375 43.09375 
L 7.5 43.09375 
L 7.5 0 
L 14.90625 0 
z
" id="CMSS17-114"/>
      <path d="M 15.296875 65.359375 
L 6.90625 65.359375 
L 6.90625 57 
L 15.296875 57 
z
M 14.796875 42.796875 
L 7.40625 42.796875 
L 7.40625 0 
L 14.796875 0 
z
" id="CMSS17-105"/>
      <path d="M 44.203125 21.1875 
C 44.203125 34 34.703125 44 23.5 44 
C 12 44 2.703125 33.703125 2.703125 21.1875 
C 2.703125 8.5 12.296875 -1 23.40625 -1 
C 34.796875 -1 44.203125 8.796875 44.203125 21.1875 
z
M 23.5 5.265625 
C 16.40625 5.265625 10.296875 11.078125 10.296875 22 
C 10.296875 33.609375 17.40625 37.921875 23.40625 37.921875 
C 29.90625 37.921875 36.59375 33.21875 36.59375 22 
C 36.59375 10.671875 30.09375 5.265625 23.5 5.265625 
z
" id="CMSS17-111"/>
     </defs>
     <g style="fill:#00aac2;" transform="translate(666.299883 75.2)scale(0.2 -0.2)">
      <use transform="scale(0.996264)" xlink:href="#CMSS17-80"/>
      <use transform="translate(59.735586 0)scale(0.996264)" xlink:href="#CMSS17-114"/>
      <use transform="translate(91.645359 0)scale(0.996264)" xlink:href="#CMSS17-105"/>
      <use transform="translate(113.826082 0)scale(0.996264)" xlink:href="#CMSS17-111"/>
      <use transform="translate(158.067251 0)scale(0.996264)" xlink:href="#CMSS17-114"/>
     </g>
    </g>
    <g id="line2d_13">
     <path d="M 610.299883 96.075634 
L 650.299883 96.075634 
" style="fill:none;stroke:#00aac2;stroke-dasharray:7.4,3.2;stroke-dashoffset:0;stroke-width:2;"/>
    </g>
    <g id="line2d_14"/>
    <g id="text_10">
     <!-- Posterior $N=10, ~ s=5$ -->
     <defs>
      <path d="M 32.203125 41.046875 
C 26.296875 43.859375 21.703125 43.859375 18.703125 43.859375 
C 11.59375 43.859375 3.09375 41.375 3.09375 31.296875 
C 3.09375 21.234375 14.09375 19.03125 17.09375 18.421875 
C 21.703125 17.53125 26.796875 16.53125 26.796875 11.5625 
C 26.796875 5.265625 19.59375 5.265625 18.296875 5.265625 
C 14.296875 5.265625 8.796875 6.359375 3.796875 9.96875 
L 2.59375 3.28125 
C 8.296875 0 13.796875 -1 18.40625 -1 
C 30.703125 -1 33.796875 6.5 33.796875 12.203125 
C 33.796875 17.09375 31 20.390625 29.09375 21.890625 
C 25.796875 24.5 24.59375 24.796875 16.40625 26.5 
C 15 26.703125 10.09375 27.796875 10.09375 32.28125 
C 10.09375 38 16.40625 38 17.796875 38 
C 24.296875 38 28.296875 35.984375 31 34.5 
z
" id="CMSS17-115"/>
      <path d="M 16.703125 37 
L 29.703125 37 
L 29.703125 42.765625 
L 16.703125 42.765625 
L 16.703125 55 
L 9.59375 55 
L 9.59375 42.765625 
L 1.703125 42.765625 
L 1.703125 37 
L 9.40625 37 
L 9.40625 11.703125 
C 9.40625 6 10.703125 -1 17.296875 -1 
C 22.296875 -1 26.90625 0.390625 31.296875 2.6875 
L 29.703125 8.5625 
C 27.296875 6.46875 24.40625 5.265625 21.296875 5.265625 
C 16.90625 5.265625 16.703125 10.875 16.703125 13.375 
z
" id="CMSS17-116"/>
      <path d="M 39.09375 21.515625 
C 39.09375 24.84375 38.90625 31.296875 35.703125 36.640625 
C 32.203125 42.390625 26.5 44 22.203125 44 
C 11.796875 44 3 34.1875 3 21.484375 
C 3 9.09375 12.09375 -1 23.59375 -1 
C 28.09375 -1 33.59375 0.296875 38.59375 3.875 
C 38.59375 4.28125 38.40625 6.46875 38.296875 6.5625 
C 38.296875 6.765625 38 9.84375 38 10.25 
C 33.203125 6.359375 27.703125 5.078125 23.703125 5.078125 
C 17.296875 5.078125 10.40625 10.421875 10.09375 21.515625 
z
M 10.90625 27 
C 12.203125 32.5625 16.59375 37.828125 22.203125 37.828125 
C 23.703125 37.828125 30.703125 37.828125 32.5 27 
z
" id="CMSS17-101"/>
      <path d="M 74 57.78125 
C 75.09375 62.09375 76.703125 65.09375 84.296875 65.09375 
C 84.59375 65.09375 85.796875 65.09375 85.796875 66.859375 
C 85.796875 68 84.90625 68 84.5 68 
C 82.5 68 77.40625 68 75.40625 68 
L 70.59375 68 
C 69.203125 68 67.40625 68 66 68 
C 65.40625 68 64.203125 68 64.203125 66.09375 
C 64.203125 65.09375 65 65.09375 65.703125 65.09375 
C 71.703125 65.09375 72.09375 62.796875 72.09375 60.984375 
C 72.09375 60.09375 72 59.78125 71.703125 58.390625 
L 60.40625 13.28125 
L 39 66.390625 
C 38.296875 68 38.203125 68 36 68 
L 23.796875 68 
C 21.796875 68 20.90625 68 20.90625 66.09375 
C 20.90625 65.09375 21.59375 65.09375 23.5 65.09375 
C 24 65.09375 29.90625 65.09375 29.90625 64.296875 
C 29.90625 64.09375 29.703125 63.296875 29.59375 63 
L 16.296875 9.921875 
C 15.09375 5 12.703125 2.90625 6.09375 2.90625 
C 5.59375 2.90625 4.59375 2.90625 4.59375 1.046875 
C 4.59375 0 5.59375 0 5.90625 0 
C 7.90625 0 13 0 15 0 
L 19.796875 0 
C 21.203125 0 22.90625 0 24.296875 0 
C 25 0 26.09375 0 26.09375 1.90625 
C 26.09375 2.8125 25.09375 2.90625 24.703125 2.90625 
C 21.40625 2.90625 18.203125 3.5 18.203125 7.09375 
C 18.203125 7.890625 18.40625 8.78125 18.59375 9.578125 
L 32.09375 63 
C 32.703125 62 32.703125 61.8125 33.09375 60.90625 
L 56.90625 1.796875 
C 57.40625 0.59375 57.59375 0 58.5 0 
C 59.5 0 59.59375 0.296875 60 2 
z
" id="CMMI12-78"/>
      <path d="M 64.296875 31.515625 
C 65.796875 31.515625 67.296875 31.515625 67.296875 33.203125 
C 67.296875 35 65.59375 35 63.90625 35 
L 8 35 
C 6.296875 35 4.59375 35 4.59375 33.203125 
C 4.59375 31.515625 6.09375 31.515625 7.59375 31.515625 
z
M 63.90625 14 
C 65.59375 14 67.296875 14 67.296875 15.796875 
C 67.296875 17.484375 65.796875 17.484375 64.296875 17.484375 
L 7.59375 17.484375 
C 6.09375 17.484375 4.59375 17.484375 4.59375 15.796875 
C 4.59375 14 6.296875 14 8 14 
z
" id="CMR17-61"/>
      <path d="M 19.5 -0.484375 
C 19.5 5.359375 17.59375 9.671875 13.5 9.671875 
C 10.296875 9.671875 8.703125 7.078125 8.703125 4.890625 
C 8.703125 2.6875 10.203125 0 13.59375 0 
C 14.90625 0 16 0.40625 16.90625 1.296875 
C 17.09375 1.5 17.203125 1.5 17.296875 1.5 
C 17.5 1.5 17.5 0.078125 17.5 -0.421875 
C 17.5 -3.75 16.90625 -10.296875 11.09375 -16.875 
C 10 -18.078125 10 -18.28125 10 -18.484375 
C 10 -19 10.5 -19.5 11 -19.5 
C 11.796875 -19.5 19.5 -12.046875 19.5 -0.484375 
z
" id="CMMI12-59"/>
      <path d="M 22.796875 20 
C 24.5 19.703125 27.203125 19.109375 27.796875 19 
C 29.09375 18.625 33.59375 17.03125 33.59375 12.234375 
C 33.59375 9.15625 30.796875 1.09375 19.203125 1.09375 
C 17.09375 1.09375 9.59375 1.09375 7.59375 6.8125 
C 11.59375 6.3125 13.59375 9.421875 13.59375 11.640625 
C 13.59375 13.75 12.203125 14.84375 10.203125 14.84375 
C 8 14.84375 5.09375 13.140625 5.09375 8.625 
C 5.09375 2.703125 11.09375 -1 19.09375 -1 
C 34.296875 -1 38.796875 10.171875 38.796875 15.375 
C 38.796875 16.859375 38.796875 19.65625 35.59375 22.84375 
C 33.09375 25.25 30.703125 25.75 25.296875 26.84375 
C 22.59375 27.4375 18.296875 28.34375 18.296875 32.828125 
C 18.296875 34.828125 20.09375 42.015625 29.59375 42.015625 
C 33.796875 42.015625 37.90625 40.453125 38.90625 37 
C 34.5 37 34.296875 33.203125 34.296875 33.109375 
C 34.296875 31 36.203125 30.40625 37.09375 30.40625 
C 38.5 30.40625 41.296875 31.484375 41.296875 35.640625 
C 41.296875 39.765625 37.5 44 29.703125 44 
C 16.59375 44 13.09375 33.75 13.09375 29.671875 
C 13.09375 22.09375 20.5 20.5 22.796875 20 
z
" id="CMMI12-115"/>
      <path d="M 11.40625 57.6875 
C 12.40625 57.28125 16.5 56 20.703125 56 
C 30 56 35.09375 61.109375 38 64.0625 
C 38 64.953125 38 65.5 37.40625 65.5 
C 37.296875 65.5 37.09375 65.5 36.296875 65.046875 
C 32.796875 63.40625 28.703125 62.078125 23.703125 62.078125 
C 20.703125 62.078125 16.203125 62.484375 11.296875 64.671875 
C 10.203125 65.171875 10 65.171875 9.90625 65.171875 
C 9.40625 65.171875 9.296875 65.0625 9.296875 63.078125 
L 9.296875 34.421875 
C 9.296875 32.640625 9.296875 32.140625 10.296875 32.140625 
C 10.796875 32.140625 11 32.34375 11.5 33.03125 
C 14.703125 37.515625 19.09375 39.40625 24.09375 39.40625 
C 27.59375 39.40625 35.09375 37.21875 35.09375 20.140625 
C 35.09375 16.953125 35.09375 11.171875 32.09375 6.578125 
C 29.59375 2.484375 25.703125 0.390625 21.40625 0.390625 
C 14.796875 0.390625 8.09375 5 6.296875 12.71875 
C 6.703125 12.609375 7.5 12.421875 7.90625 12.421875 
C 9.203125 12.421875 11.703125 13.125 11.703125 16.21875 
C 11.703125 18.90625 9.796875 20 7.90625 20 
C 5.59375 20 4.09375 18.59375 4.09375 15.796875 
C 4.09375 7.09375 11 -2 21.59375 -2 
C 31.90625 -2 41.703125 6.875 41.703125 19.75 
C 41.703125 31.71875 33.90625 41 24.203125 41 
C 19.09375 41 14.796875 39.109375 11.40625 35.53125 
z
" id="CMR17-53"/>
     </defs>
     <g style="fill:#00aac2;" transform="translate(666.299883 103.075634)scale(0.2 -0.2)">
      <use transform="scale(0.996264)" xlink:href="#CMSS17-80"/>
      <use transform="translate(57.133132 0)scale(0.996264)" xlink:href="#CMSS17-111"/>
      <use transform="translate(103.976756 0)scale(0.996264)" xlink:href="#CMSS17-115"/>
      <use transform="translate(139.890298 0)scale(0.996264)" xlink:href="#CMSS17-116"/>
      <use transform="translate(173.721865 0)scale(0.996264)" xlink:href="#CMSS17-101"/>
      <use transform="translate(215.360687 0)scale(0.996264)" xlink:href="#CMSS17-114"/>
      <use transform="translate(247.270459 0)scale(0.996264)" xlink:href="#CMSS17-105"/>
      <use transform="translate(269.451182 0)scale(0.996264)" xlink:href="#CMSS17-111"/>
      <use transform="translate(313.692352 0)scale(0.996264)" xlink:href="#CMSS17-114"/>
      <use transform="translate(376.831237 0)scale(0.996264)" xlink:href="#CMMI12-78"/>
      <use transform="translate(493.027018 0)scale(0.996264)" xlink:href="#CMR17-61"/>
      <use transform="translate(592.415816 0)scale(0.996264)" xlink:href="#CMR17-49"/>
      <use transform="translate(638.106293 0)scale(0.996264)" xlink:href="#CMR17-48"/>
      <use transform="translate(683.79677 0)scale(0.996264)" xlink:href="#CMMI12-59"/>
      <use transform="translate(758.727465 0)scale(0.996264)" xlink:href="#CMMI12-115"/>
      <use transform="translate(832.351521 0)scale(0.996264)" xlink:href="#CMR17-61"/>
      <use transform="translate(931.740318 0)scale(0.996264)" xlink:href="#CMR17-53"/>
     </g>
    </g>
    <g id="line2d_15">
     <path d="M 610.299883 123.951267 
L 650.299883 123.951267 
" style="fill:none;stroke:#00aac2;stroke-dasharray:12.8,3.2,2,3.2;stroke-dashoffset:0;stroke-width:2;"/>
    </g>
    <g id="line2d_16"/>
    <g id="text_11">
     <!-- Posterior $N=50, ~ s=25$ -->
     <g style="fill:#00aac2;" transform="translate(666.299883 130.951267)scale(0.2 -0.2)">
      <use transform="scale(0.996264)" xlink:href="#CMSS17-80"/>
      <use transform="translate(57.133132 0)scale(0.996264)" xlink:href="#CMSS17-111"/>
      <use transform="translate(103.976756 0)scale(0.996264)" xlink:href="#CMSS17-115"/>
      <use transform="translate(139.890298 0)scale(0.996264)" xlink:href="#CMSS17-116"/>
      <use transform="translate(173.721865 0)scale(0.996264)" xlink:href="#CMSS17-101"/>
      <use transform="translate(215.360687 0)scale(0.996264)" xlink:href="#CMSS17-114"/>
      <use transform="translate(247.270459 0)scale(0.996264)" xlink:href="#CMSS17-105"/>
      <use transform="translate(269.451182 0)scale(0.996264)" xlink:href="#CMSS17-111"/>
      <use transform="translate(313.692352 0)scale(0.996264)" xlink:href="#CMSS17-114"/>
      <use transform="translate(376.831237 0)scale(0.996264)" xlink:href="#CMMI12-78"/>
      <use transform="translate(493.027018 0)scale(0.996264)" xlink:href="#CMR17-61"/>
      <use transform="translate(592.415816 0)scale(0.996264)" xlink:href="#CMR17-53"/>
      <use transform="translate(638.106293 0)scale(0.996264)" xlink:href="#CMR17-48"/>
      <use transform="translate(683.79677 0)scale(0.996264)" xlink:href="#CMMI12-59"/>
      <use transform="translate(758.727465 0)scale(0.996264)" xlink:href="#CMMI12-115"/>
      <use transform="translate(832.351521 0)scale(0.996264)" xlink:href="#CMR17-61"/>
      <use transform="translate(931.740318 0)scale(0.996264)" xlink:href="#CMR17-50"/>
      <use transform="translate(977.430795 0)scale(0.996264)" xlink:href="#CMR17-53"/>
     </g>
    </g>
    <g id="line2d_17">
     <path d="M 610.299883 151.826901 
L 650.299883 151.826901 
" style="fill:none;stroke:#00aac2;stroke-linecap:square;stroke-width:2;"/>
    </g>
    <g id="line2d_18"/>
    <g id="text_12">
     <!-- Posterior $N=200, ~ s=100$ -->
     <g style="fill:#00aac2;" transform="translate(666.299883 158.826901)scale(0.2 -0.2)">
      <use transform="scale(0.996264)" xlink:href="#CMSS17-80"/>
      <use transform="translate(57.133132 0)scale(0.996264)" xlink:href="#CMSS17-111"/>
      <use transform="translate(103.976756 0)scale(0.996264)" xlink:href="#CMSS17-115"/>
      <use transform="translate(139.890298 0)scale(0.996264)" xlink:href="#CMSS17-116"/>
      <use transform="translate(173.721865 0)scale(0.996264)" xlink:href="#CMSS17-101"/>
      <use transform="translate(215.360687 0)scale(0.996264)" xlink:href="#CMSS17-114"/>
      <use transform="translate(247.270459 0)scale(0.996264)" xlink:href="#CMSS17-105"/>
      <use transform="translate(269.451182 0)scale(0.996264)" xlink:href="#CMSS17-111"/>
      <use transform="translate(313.692352 0)scale(0.996264)" xlink:href="#CMSS17-114"/>
      <use transform="translate(376.831237 0)scale(0.996264)" xlink:href="#CMMI12-78"/>
      <use transform="translate(493.027018 0)scale(0.996264)" xlink:href="#CMR17-61"/>
      <use transform="translate(592.415816 0)scale(0.996264)" xlink:href="#CMR17-50"/>
      <use transform="translate(638.106293 0)scale(0.996264)" xlink:href="#CMR17-48"/>
      <use transform="translate(683.79677 0)scale(0.996264)" xlink:href="#CMR17-48"/>
      <use transform="translate(729.487247 0)scale(0.996264)" xlink:href="#CMMI12-59"/>
      <use transform="translate(804.417942 0)scale(0.996264)" xlink:href="#CMMI12-115"/>
      <use transform="translate(878.041998 0)scale(0.996264)" xlink:href="#CMR17-61"/>
      <use transform="translate(977.430795 0)scale(0.996264)" xlink:href="#CMR17-49"/>
      <use transform="translate(1023.121273 0)scale(0.996264)" xlink:href="#CMR17-48"/>
      <use transform="translate(1068.81175 0)scale(0.996264)" xlink:href="#CMR17-48"/>
     </g>
    </g>
   </g>
  </g>
 </g>
 <defs>
  <clipPath id="pa32f5bdf27">
   <rect height="271.8" width="781.2" x="126" y="43.2"/>
  </clipPath>
 </defs>
</svg>
