<?xml version="1.0" encoding="utf-8" standalone="no"?>
<!DOCTYPE svg PUBLIC "-//W3C//DTD SVG 1.1//EN"
  "http://www.w3.org/Graphics/SVG/1.1/DTD/svg11.dtd">
<!-- Created with matplotlib (http://matplotlib.org/) -->
<svg height="288pt" version="1.1" viewBox="0 0 864 288" width="864pt" xmlns="http://www.w3.org/2000/svg" xmlns:xlink="http://www.w3.org/1999/xlink">
 <defs>
  <style type="text/css">
*{stroke-linecap:butt;stroke-linejoin:round;}
  </style>
 </defs>
 <g id="figure_1">
  <g id="patch_1">
   <path d="M 0 288 
L 864 288 
L 864 0 
L 0 0 
z
" style="fill:none;opacity:0;"/>
  </g>
  <g id="axes_1">
   <g id="patch_2">
    <path clip-path="url(#p4a78a47e85)" d="M 138.436364 252 
L 168.872727 252 
L 168.872727 72.1847 
L 138.436364 72.1847 
z
" style="fill:#f08080;"/>
   </g>
   <g id="patch_3">
    <path clip-path="url(#p4a78a47e85)" d="M 168.872727 252 
L 199.309091 252 
L 199.309091 251.273474 
L 168.872727 251.273474 
z
" style="fill:#f08080;"/>
   </g>
   <g id="patch_4">
    <path clip-path="url(#p4a78a47e85)" d="M 199.309091 252 
L 229.745455 252 
L 229.745455 248.367368 
L 199.309091 248.367368 
z
" style="fill:#f08080;"/>
   </g>
   <g id="patch_5">
    <path clip-path="url(#p4a78a47e85)" d="M 229.745455 252 
L 260.181818 252 
L 260.181818 246.551052 
L 229.745455 246.551052 
z
" style="fill:#f08080;"/>
   </g>
   <g id="patch_6">
    <path clip-path="url(#p4a78a47e85)" d="M 260.181818 252 
L 290.618182 252 
L 290.618182 239.285787 
L 260.181818 239.285787 
z
" style="fill:#f08080;"/>
   </g>
   <g id="patch_7">
    <path clip-path="url(#p4a78a47e85)" d="M 290.618182 252 
L 321.054545 252 
L 321.054545 227.2981 
L 290.618182 227.2981 
z
" style="fill:#f08080;"/>
   </g>
   <g id="patch_8">
    <path clip-path="url(#p4a78a47e85)" d="M 321.054545 252 
L 351.490909 252 
L 351.490909 192.061567 
L 321.054545 192.061567 
z
" style="fill:#f08080;"/>
   </g>
   <g id="patch_9">
    <path clip-path="url(#p4a78a47e85)" d="M 351.490909 252 
L 381.927273 252 
L 381.927273 214.94715 
L 351.490909 214.94715 
z
" style="fill:#f08080;"/>
   </g>
   <g id="patch_10">
    <path clip-path="url(#p4a78a47e85)" d="M 381.927273 252 
L 412.363636 252 
L 412.363636 184.433039 
L 381.927273 184.433039 
z
" style="fill:#f08080;"/>
   </g>
   <g id="patch_11">
    <path clip-path="url(#p4a78a47e85)" d="M 412.363636 252 
L 442.8 252 
L 442.8 203.68599 
L 412.363636 203.68599 
z
" style="fill:#f08080;"/>
   </g>
   <g id="patch_12">
    <path clip-path="url(#p4a78a47e85)" d="M 442.8 252 
L 473.236364 252 
L 473.236364 119.772184 
L 442.8 119.772184 
z
" style="fill:#f08080;"/>
   </g>
   <g id="patch_13">
    <path clip-path="url(#p4a78a47e85)" d="M 473.236364 252 
L 503.672727 252 
L 503.672727 174.624932 
L 473.236364 174.624932 
z
" style="fill:#f08080;"/>
   </g>
   <g id="patch_14">
    <path clip-path="url(#p4a78a47e85)" d="M 503.672727 252 
L 534.109091 252 
L 534.109091 200.779884 
L 503.672727 200.779884 
z
" style="fill:#f08080;"/>
   </g>
   <g id="patch_15">
    <path clip-path="url(#p4a78a47e85)" d="M 534.109091 252 
L 564.545455 252 
L 564.545455 170.629036 
L 534.109091 170.629036 
z
" style="fill:#f08080;"/>
   </g>
   <g id="patch_16">
    <path clip-path="url(#p4a78a47e85)" d="M 564.545455 252 
L 594.981818 252 
L 594.981818 218.579783 
L 564.545455 218.579783 
z
" style="fill:#f08080;"/>
   </g>
   <g id="patch_17">
    <path clip-path="url(#p4a78a47e85)" d="M 594.981818 252 
L 625.418182 252 
L 625.418182 201.506411 
L 594.981818 201.506411 
z
" style="fill:#f08080;"/>
   </g>
   <g id="patch_18">
    <path clip-path="url(#p4a78a47e85)" d="M 625.418182 252 
L 655.854545 252 
L 655.854545 218.579783 
L 625.418182 218.579783 
z
" style="fill:#f08080;"/>
   </g>
   <g id="patch_19">
    <path clip-path="url(#p4a78a47e85)" d="M 655.854545 252 
L 686.290909 252 
L 686.290909 235.653155 
L 655.854545 235.653155 
z
" style="fill:#f08080;"/>
   </g>
   <g id="patch_20">
    <path clip-path="url(#p4a78a47e85)" d="M 686.290909 252 
L 716.727273 252 
L 716.727273 245.824525 
L 686.290909 245.824525 
z
" style="fill:#f08080;"/>
   </g>
   <g id="patch_21">
    <path clip-path="url(#p4a78a47e85)" d="M 716.727273 252 
L 747.163636 252 
L 747.163636 84.172387 
L 716.727273 84.172387 
z
" style="fill:#f08080;"/>
   </g>
   <g id="patch_22">
    <path clip-path="url(#p4a78a47e85)" d="M 242.025128 252 
L 261.566055 252 
L 261.566055 250.302576 
L 242.025128 250.302576 
z
" style="fill:#ffff00;opacity:0.7;"/>
   </g>
   <g id="patch_23">
    <path clip-path="url(#p4a78a47e85)" d="M 261.566055 252 
L 281.106982 252 
L 281.106982 246.907728 
L 261.566055 246.907728 
z
" style="fill:#ffff00;opacity:0.7;"/>
   </g>
   <g id="patch_24">
    <path clip-path="url(#p4a78a47e85)" d="M 281.106982 252 
L 300.647908 252 
L 300.647908 245.210304 
L 281.106982 245.210304 
z
" style="fill:#ffff00;opacity:0.7;"/>
   </g>
   <g id="patch_25">
    <path clip-path="url(#p4a78a47e85)" d="M 300.647908 252 
L 320.188835 252 
L 320.188835 229.933489 
L 300.647908 229.933489 
z
" style="fill:#ffff00;opacity:0.7;"/>
   </g>
   <g id="patch_26">
    <path clip-path="url(#p4a78a47e85)" d="M 320.188835 252 
L 339.729761 252 
L 339.729761 223.143794 
L 320.188835 223.143794 
z
" style="fill:#ffff00;opacity:0.7;"/>
   </g>
   <g id="patch_27">
    <path clip-path="url(#p4a78a47e85)" d="M 339.729761 252 
L 359.270688 252 
L 359.270688 192.590164 
L 339.729761 192.590164 
z
" style="fill:#ffff00;opacity:0.7;"/>
   </g>
   <g id="patch_28">
    <path clip-path="url(#p4a78a47e85)" d="M 359.270688 252 
L 378.811614 252 
L 378.811614 163.733958 
L 359.270688 163.733958 
z
" style="fill:#ffff00;opacity:0.7;"/>
   </g>
   <g id="patch_29">
    <path clip-path="url(#p4a78a47e85)" d="M 378.811614 252 
L 398.352541 252 
L 398.352541 136.575176 
L 378.811614 136.575176 
z
" style="fill:#ffff00;opacity:0.7;"/>
   </g>
   <g id="patch_30">
    <path clip-path="url(#p4a78a47e85)" d="M 398.352541 252 
L 417.893467 252 
L 417.893467 97.534426 
L 398.352541 97.534426 
z
" style="fill:#ffff00;opacity:0.7;"/>
   </g>
   <g id="patch_31">
    <path clip-path="url(#p4a78a47e85)" d="M 417.893467 252 
L 437.434394 252 
L 437.434394 77.16534 
L 417.893467 77.16534 
z
" style="fill:#ffff00;opacity:0.7;"/>
   </g>
   <g id="patch_32">
    <path clip-path="url(#p4a78a47e85)" d="M 437.434394 252 
L 456.97532 252 
L 456.97532 58.493677 
L 437.434394 58.493677 
z
" style="fill:#ffff00;opacity:0.7;"/>
   </g>
   <g id="patch_33">
    <path clip-path="url(#p4a78a47e85)" d="M 456.97532 252 
L 476.516247 252 
L 476.516247 44.914286 
L 456.97532 44.914286 
z
" style="fill:#ffff00;opacity:0.7;"/>
   </g>
   <g id="patch_34">
    <path clip-path="url(#p4a78a47e85)" d="M 476.516247 252 
L 496.057173 252 
L 496.057173 83.955035 
L 476.516247 83.955035 
z
" style="fill:#ffff00;opacity:0.7;"/>
   </g>
   <g id="patch_35">
    <path clip-path="url(#p4a78a47e85)" d="M 496.057173 252 
L 515.5981 252 
L 515.5981 87.349883 
L 496.057173 87.349883 
z
" style="fill:#ffff00;opacity:0.7;"/>
   </g>
   <g id="patch_36">
    <path clip-path="url(#p4a78a47e85)" d="M 515.5981 252 
L 535.139026 252 
L 535.139026 107.71897 
L 515.5981 107.71897 
z
" style="fill:#ffff00;opacity:0.7;"/>
   </g>
   <g id="patch_37">
    <path clip-path="url(#p4a78a47e85)" d="M 535.139026 252 
L 554.679953 252 
L 554.679953 170.523653 
L 535.139026 170.523653 
z
" style="fill:#ffff00;opacity:0.7;"/>
   </g>
   <g id="patch_38">
    <path clip-path="url(#p4a78a47e85)" d="M 554.679953 252 
L 574.220879 252 
L 574.220879 211.261827 
L 554.679953 211.261827 
z
" style="fill:#ffff00;opacity:0.7;"/>
   </g>
   <g id="patch_39">
    <path clip-path="url(#p4a78a47e85)" d="M 574.220879 252 
L 593.761806 252 
L 593.761806 228.236066 
L 574.220879 228.236066 
z
" style="fill:#ffff00;opacity:0.7;"/>
   </g>
   <g id="patch_40">
    <path clip-path="url(#p4a78a47e85)" d="M 593.761806 252 
L 613.302732 252 
L 613.302732 245.210304 
L 593.761806 245.210304 
z
" style="fill:#ffff00;opacity:0.7;"/>
   </g>
   <g id="patch_41">
    <path clip-path="url(#p4a78a47e85)" d="M 613.302732 252 
L 632.843659 252 
L 632.843659 241.815457 
L 613.302732 241.815457 
z
" style="fill:#ffff00;opacity:0.7;"/>
   </g>
   <g id="matplotlib.axis_1">
    <g id="xtick_1">
     <g id="line2d_1">
      <defs>
       <path d="M 0 0 
L 0 3.5 
" id="meec11d48b8" style="stroke:#ffff00;stroke-width:0.8;"/>
      </defs>
      <g>
       <use style="fill:#ffff00;stroke:#ffff00;stroke-width:0.8;" x="138.436364" xlink:href="#meec11d48b8" y="252"/>
      </g>
     </g>
     <g id="text_1">
      <!-- $0.0$ -->
      <defs>
       <path d="M 42 31.640625 
C 42 37.75 41.90625 48.125 37.703125 56.109375 
C 34 63.109375 28.09375 65.59375 22.90625 65.59375 
C 18.09375 65.59375 12 63.40625 8.203125 56.203125 
C 4.203125 48.71875 3.796875 39.4375 3.796875 31.640625 
C 3.796875 25.953125 3.90625 17.28125 7 9.671875 
C 11.296875 -0.609375 19 -2 22.90625 -2 
C 27.5 -2 34.5 -0.109375 38.59375 9.375 
C 41.59375 16.28125 42 24.359375 42 31.640625 
z
M 22.90625 -0.40625 
C 16.5 -0.40625 12.703125 5.078125 11.296875 12.6875 
C 10.203125 18.5625 10.203125 27.15625 10.203125 32.75 
C 10.203125 40.4375 10.203125 46.828125 11.5 52.921875 
C 13.40625 61.390625 19 64 22.90625 64 
C 27 64 32.296875 61.296875 34.203125 53.125 
C 35.5 47.4375 35.59375 40.734375 35.59375 32.75 
C 35.59375 26.25 35.59375 18.265625 34.40625 12.375 
C 32.296875 1.484375 26.40625 -0.40625 22.90625 -0.40625 
z
" id="CMR17-48"/>
       <path d="M 18.40625 4.796875 
C 18.40625 7.6875 16 9.671875 13.59375 9.671875 
C 10.703125 9.671875 8.703125 7.28125 8.703125 4.890625 
C 8.703125 2 11.09375 0 13.5 0 
C 16.40625 0 18.40625 2.390625 18.40625 4.796875 
z
" id="CMMI12-58"/>
      </defs>
      <g style="fill:#ffff00;" transform="translate(126.588551 272.836997)scale(0.2 -0.2)">
       <use transform="scale(0.996264)" xlink:href="#CMR17-48"/>
       <use transform="translate(45.690477 0)scale(0.996264)" xlink:href="#CMMI12-58"/>
       <use transform="translate(72.787654 0)scale(0.996264)" xlink:href="#CMR17-48"/>
      </g>
     </g>
    </g>
    <g id="xtick_2">
     <g id="line2d_2">
      <g>
       <use style="fill:#ffff00;stroke:#ffff00;stroke-width:0.8;" x="260.181818" xlink:href="#meec11d48b8" y="252"/>
      </g>
     </g>
     <g id="text_2">
      <!-- $0.2$ -->
      <defs>
       <path d="M 41.703125 15.453125 
L 39.90625 15.453125 
C 38.90625 8.375 38.09375 7.171875 37.703125 6.5625 
C 37.203125 5.765625 30 5.765625 28.59375 5.765625 
L 9.40625 5.765625 
C 13 9.671875 20 16.75 28.5 24.953125 
C 34.59375 30.734375 41.703125 37.53125 41.703125 47.421875 
C 41.703125 59.21875 32.296875 66 21.796875 66 
C 10.796875 66 4.09375 56.3125 4.09375 47.34375 
C 4.09375 43.4375 7 42.9375 8.203125 42.9375 
C 9.203125 42.9375 12.203125 43.546875 12.203125 47.03125 
C 12.203125 50.109375 9.59375 51 8.203125 51 
C 7.59375 51 7 50.90625 6.59375 50.703125 
C 8.5 59.21875 14.296875 63.40625 20.40625 63.40625 
C 29.09375 63.40625 34.796875 56.515625 34.796875 47.421875 
C 34.796875 38.734375 29.703125 31.25 24 24.75 
L 4.09375 2.28125 
L 4.09375 0 
L 39.296875 0 
z
" id="CMR17-50"/>
      </defs>
      <g style="fill:#ffff00;" transform="translate(248.334005 272.836997)scale(0.2 -0.2)">
       <use transform="scale(0.996264)" xlink:href="#CMR17-48"/>
       <use transform="translate(45.690477 0)scale(0.996264)" xlink:href="#CMMI12-58"/>
       <use transform="translate(72.787654 0)scale(0.996264)" xlink:href="#CMR17-50"/>
      </g>
     </g>
    </g>
    <g id="xtick_3">
     <g id="line2d_3">
      <g>
       <use style="fill:#ffff00;stroke:#ffff00;stroke-width:0.8;" x="381.927273" xlink:href="#meec11d48b8" y="252"/>
      </g>
     </g>
     <g id="text_3">
      <!-- $0.4$ -->
      <defs>
       <path d="M 33.59375 64.40625 
C 33.59375 66.5 33.5 66.5 31.703125 66.5 
L 2 19.59375 
L 2 17 
L 27.796875 17 
L 27.796875 7.140625 
C 27.796875 3.5 27.59375 2.5 20.59375 2.5 
L 18.703125 2.5 
L 18.703125 0 
C 21.90625 0 27.296875 0 30.703125 0 
C 34.09375 0 39.5 0 42.703125 0 
L 42.703125 2.5 
L 40.796875 2.5 
C 33.796875 2.5 33.59375 3.5 33.59375 7.140625 
L 33.59375 17 
L 43.796875 17 
L 43.796875 19.59375 
L 33.59375 19.59375 
z
M 28.09375 57.859375 
L 28.09375 19.59375 
L 4 19.59375 
z
" id="CMR17-52"/>
      </defs>
      <g style="fill:#ffff00;" transform="translate(370.07946 272.836997)scale(0.2 -0.2)">
       <use transform="scale(0.996264)" xlink:href="#CMR17-48"/>
       <use transform="translate(45.690477 0)scale(0.996264)" xlink:href="#CMMI12-58"/>
       <use transform="translate(72.787654 0)scale(0.996264)" xlink:href="#CMR17-52"/>
      </g>
     </g>
    </g>
    <g id="xtick_4">
     <g id="line2d_4">
      <g>
       <use style="fill:#ffff00;stroke:#ffff00;stroke-width:0.8;" x="503.672727" xlink:href="#meec11d48b8" y="252"/>
      </g>
     </g>
     <g id="text_4">
      <!-- $0.6$ -->
      <defs>
       <path d="M 10.59375 34 
C 10.59375 57.65625 21.796875 63 28.296875 63 
C 30.40625 63 35.5 62.640625 37.5 59 
C 35.90625 59 32.90625 59 32.90625 55.515625 
C 32.90625 52.828125 35.09375 51.921875 36.5 51.921875 
C 37.40625 51.921875 40.09375 52.3125 40.09375 55.625 
C 40.09375 61.78125 35.09375 65.296875 28.203125 65.296875 
C 16.296875 65.296875 3.796875 52.96875 3.796875 31 
C 3.796875 3.953125 15.09375 -2 23.09375 -2 
C 32.796875 -2 42 6.671875 42 20.046875 
C 42 32.515625 33.90625 41.59375 23.703125 41.59375 
C 17.59375 41.59375 13.09375 37.609375 10.59375 30.625 
z
M 23.09375 0.390625 
C 10.796875 0.390625 10.796875 18.75 10.796875 22.4375 
C 10.796875 29.625 14.203125 40 23.5 40 
C 25.203125 40 30.09375 40 33.40625 33.125 
C 35.203125 29.21875 35.203125 25.140625 35.203125 20.140625 
C 35.203125 14.75 35.203125 10.78125 33.09375 6.78125 
C 30.90625 2.671875 27.703125 0.390625 23.09375 0.390625 
z
" id="CMR17-54"/>
      </defs>
      <g style="fill:#ffff00;" transform="translate(491.824914 272.836997)scale(0.2 -0.2)">
       <use transform="scale(0.996264)" xlink:href="#CMR17-48"/>
       <use transform="translate(45.690477 0)scale(0.996264)" xlink:href="#CMMI12-58"/>
       <use transform="translate(72.787654 0)scale(0.996264)" xlink:href="#CMR17-54"/>
      </g>
     </g>
    </g>
    <g id="xtick_5">
     <g id="line2d_5">
      <g>
       <use style="fill:#ffff00;stroke:#ffff00;stroke-width:0.8;" x="625.418182" xlink:href="#meec11d48b8" y="252"/>
      </g>
     </g>
     <g id="text_5">
      <!-- $0.8$ -->
      <defs>
       <path d="M 27.203125 35.375 
C 33.5 38.546875 39.90625 43.328125 39.90625 50.984375 
C 39.90625 60.015625 31.09375 65.296875 23 65.296875 
C 13.90625 65.296875 5.90625 58.734375 5.90625 49.6875 
C 5.90625 47.203125 6.5 42.921875 10.40625 39.140625 
C 11.40625 38.15625 15.59375 35.171875 18.296875 33.28125 
C 13.796875 30.984375 3.296875 25.53125 3.296875 14.59375 
C 3.296875 4.359375 13.09375 -2 22.796875 -2 
C 33.5 -2 42.5 5.65625 42.5 15.78125 
C 42.5 24.84375 36.40625 29.015625 32.40625 31.703125 
z
M 14.09375 44.09375 
C 13.296875 44.59375 9.296875 47.671875 9.296875 52.359375 
C 9.296875 58.421875 15.59375 63 22.796875 63 
C 30.703125 63 36.5 57.4375 36.5 50.96875 
C 36.5 41.703125 26.09375 36.421875 25.59375 36.421875 
C 25.5 36.421875 25.40625 36.421875 24.59375 37.03125 
z
M 32.5 23.734375 
C 34 22.640625 38.796875 19.375 38.796875 13.296875 
C 38.796875 5.953125 31.40625 0.390625 23 0.390625 
C 13.90625 0.390625 7 6.84375 7 14.6875 
C 7 22.546875 13.09375 29.09375 20 32.1875 
z
" id="CMR17-56"/>
      </defs>
      <g style="fill:#ffff00;" transform="translate(613.570369 272.836997)scale(0.2 -0.2)">
       <use transform="scale(0.996264)" xlink:href="#CMR17-48"/>
       <use transform="translate(45.690477 0)scale(0.996264)" xlink:href="#CMMI12-58"/>
       <use transform="translate(72.787654 0)scale(0.996264)" xlink:href="#CMR17-56"/>
      </g>
     </g>
    </g>
    <g id="xtick_6">
     <g id="line2d_6">
      <g>
       <use style="fill:#ffff00;stroke:#ffff00;stroke-width:0.8;" x="747.163636" xlink:href="#meec11d48b8" y="252"/>
      </g>
     </g>
     <g id="text_6">
      <!-- $1.0$ -->
      <defs>
       <path d="M 26.59375 63.40625 
C 26.59375 65.5 26.5 65.5 25.09375 65.5 
C 21.203125 61.1875 15.296875 59.796875 9.703125 59.796875 
C 9.40625 59.796875 8.90625 59.796875 8.796875 59.5 
C 8.703125 59.296875 8.703125 59.09375 8.703125 57 
C 11.796875 57 17 57.59375 21 59.984375 
L 21 7.203125 
C 21 3.6875 20.796875 2.5 12.203125 2.5 
L 9.203125 2.5 
L 9.203125 0 
C 14 0 19 0 23.796875 0 
C 28.59375 0 33.59375 0 38.40625 0 
L 38.40625 2.5 
L 35.40625 2.5 
C 26.796875 2.5 26.59375 3.59375 26.59375 7.15625 
z
" id="CMR17-49"/>
      </defs>
      <g style="fill:#ffff00;" transform="translate(735.315823 272.836997)scale(0.2 -0.2)">
       <use transform="scale(0.996264)" xlink:href="#CMR17-49"/>
       <use transform="translate(45.690477 0)scale(0.996264)" xlink:href="#CMMI12-58"/>
       <use transform="translate(72.787654 0)scale(0.996264)" xlink:href="#CMR17-48"/>
      </g>
     </g>
    </g>
    <g id="text_7">
     <!-- \theta -->
     <defs>
      <path d="M 44.296875 50 
C 44.296875 60.15625 41.09375 70 32.90625 70 
C 18.90625 70 4 40.859375 4 19 
C 4 14.421875 5 -1 15.5 -1 
C 29.09375 -1 44.296875 27.4375 44.296875 50 
z
M 14 36 
C 15.5 41.859375 17.59375 50.21875 21.59375 57.265625 
C 24.90625 63.234375 28.40625 68 32.796875 68 
C 36.09375 68 38.296875 65.21875 38.296875 55.6875 
C 38.296875 52.09375 38 47.140625 35.09375 36 
z
M 34.40625 33.015625 
C 31.90625 23.28125 29.796875 17 26.203125 10.734375 
C 23.296875 5.671875 19.796875 1 15.59375 1 
C 12.5 1 10 3.390625 10 13.21875 
C 10 19.6875 11.59375 26.453125 13.203125 33.015625 
z
" id="CMMI12-18"/>
     </defs>
     <g style="fill:#ffff00;" transform="translate(438.254021 294.549627)scale(0.2 -0.2)">
      <use transform="scale(0.996264)" xlink:href="#CMMI12-18"/>
     </g>
    </g>
   </g>
   <g id="matplotlib.axis_2">
    <g id="text_8">
     <!-- $p(\theta)$ -->
     <defs>
      <path d="M 4.296875 -12.328125 
C 3.59375 -15.3125 3.203125 -16.109375 -0.90625 -16.109375 
C -2.09375 -16.109375 -3.09375 -16.109375 -3.09375 -18 
C -3.09375 -18.203125 -3 -19 -1.90625 -19 
C -0.59375 -19 0.796875 -19 2.09375 -19 
L 6.40625 -19 
C 8.5 -19 13.59375 -19 15.703125 -19 
C 16.296875 -19 17.5 -19 17.5 -17.203125 
C 17.5 -16.109375 16.796875 -16.109375 15.09375 -16.109375 
C 10.5 -16.109375 10.203125 -15.421875 10.203125 -14.640625 
C 10.203125 -13.453125 14.703125 3.421875 15.296875 5.6875 
C 16.40625 2.890625 19.09375 -1 24.296875 -1 
C 35.59375 -1 47.796875 13.671875 47.796875 28.34375 
C 47.796875 37.515625 42.59375 44 35.09375 44 
C 28.703125 44 23.296875 37.8125 22.203125 36.421875 
C 21.40625 41.40625 17.5 44 13.5 44 
C 10.59375 44 8.296875 42.609375 6.40625 38.8125 
C 4.59375 35.21875 3.203125 29.140625 3.203125 28.734375 
C 3.203125 28.34375 3.59375 27.84375 4.296875 27.84375 
C 5.09375 27.84375 5.203125 27.9375 5.796875 30.234375 
C 7.296875 36.125 9.203125 42.015625 13.203125 42.015625 
C 15.5 42.015625 16.296875 40.421875 16.296875 37.453125 
C 16.296875 35.078125 16 34.078125 15.59375 32.296875 
z
M 21.59375 31.140625 
C 22.296875 33.921875 25.09375 36.828125 26.703125 38.21875 
C 27.796875 39.21875 31.09375 42.015625 34.90625 42.015625 
C 39.296875 42.015625 41.296875 37.625 41.296875 32.4375 
C 41.296875 27.640625 38.5 16.359375 36 11.171875 
C 33.5 5.78125 28.90625 1 24.296875 1 
C 17.5 1 16.40625 9.578125 16.40625 9.984375 
C 16.40625 10.28125 16.59375 11.078125 16.703125 11.578125 
z
" id="CMMI12-112"/>
      <path d="M 30.59375 -24.390625 
C 30.59375 -24.296875 30.59375 -24.09375 30.296875 -23.796875 
C 25.703125 -19.125 13.40625 -6.359375 13.40625 24.703125 
C 13.40625 55.765625 25.5 68.421875 30.40625 73.390625 
C 30.40625 73.5 30.59375 73.703125 30.59375 74 
C 30.59375 74.296875 30.296875 74.5 29.90625 74.5 
C 28.796875 74.5 20.296875 67.125 15.40625 56.15625 
C 10.40625 45.109375 9 34.359375 9 24.8125 
C 9 17.625 9.703125 5.484375 15.703125 -7.359375 
C 20.5 -17.734375 28.703125 -25 29.90625 -25 
C 30.40625 -25 30.59375 -24.796875 30.59375 -24.390625 
z
" id="CMR17-40"/>
      <path d="M 26.296875 24.703125 
C 26.296875 31.875 25.59375 44.015625 19.59375 56.859375 
C 14.796875 67.234375 6.59375 74.5 5.40625 74.5 
C 5.09375 74.5 4.703125 74.390625 4.703125 73.890625 
C 4.703125 73.703125 4.796875 73.59375 4.90625 73.390625 
C 9.703125 68.40625 21.90625 55.75 21.90625 24.75 
C 21.90625 -6.359375 9.796875 -19.015625 4.90625 -24.015625 
C 4.796875 -24.203125 4.703125 -24.3125 4.703125 -24.5 
C 4.703125 -25 5.09375 -25 5.40625 -25 
C 6.5 -25 15 -17.625 19.90625 -6.65625 
C 24.90625 4.390625 26.296875 15.140625 26.296875 24.703125 
z
" id="CMR17-41"/>
     </defs>
     <g style="fill:#ffff00;" transform="translate(99.035356 160.049048)rotate(-90)scale(0.2 -0.2)">
      <use transform="scale(0.996264)" xlink:href="#CMMI12-112"/>
      <use transform="translate(48.959514 0)scale(0.996264)" xlink:href="#CMR17-40"/>
      <use transform="translate(84.240282 0)scale(0.996264)" xlink:href="#CMMI12-18"/>
      <use transform="translate(132.40979 0)scale(0.996264)" xlink:href="#CMR17-41"/>
     </g>
    </g>
   </g>
   <g id="patch_42">
    <path d="M 108 252 
L 108 34.56 
" style="fill:none;stroke:#ffff00;stroke-linecap:square;stroke-linejoin:miter;stroke-width:0.8;"/>
   </g>
   <g id="patch_43">
    <path d="M 108 252 
L 777.6 252 
" style="fill:none;stroke:#ffff00;stroke-linecap:square;stroke-linejoin:miter;stroke-width:0.8;"/>
   </g>
   <g id="legend_1">
    <g id="patch_44">
     <path d="M 122 106.311267 
L 402.297603 106.311267 
Q 406.297603 106.311267 406.297603 102.311267 
L 406.297603 48.56 
Q 406.297603 44.56 402.297603 44.56 
L 122 44.56 
Q 118 44.56 118 48.56 
L 118 102.311267 
Q 118 106.311267 122 106.311267 
z
" style="fill:none;opacity:0;"/>
    </g>
    <g id="patch_45">
     <path d="M 126 66.56 
L 166 66.56 
L 166 52.56 
L 126 52.56 
z
" style="fill:#f08080;"/>
    </g>
    <g id="text_9">
     <!-- Distribution of return ratios -->
     <defs>
      <path d="M 8.90625 69 
L 8.90625 0 
L 33.5 0 
C 49.90625 0 62.5 15.3125 62.5 33.90625 
C 62.5 53.09375 49.90625 69 33.5 69 
z
M 17.09375 5.578125 
L 17.09375 63.421875 
L 31.296875 63.421875 
C 44.703125 63.421875 54.296875 51.203125 54.296875 33.90625 
C 54.296875 17.296875 44.796875 5.578125 31.296875 5.578125 
z
" id="CMSS17-68"/>
      <path d="M 15.296875 65.359375 
L 6.90625 65.359375 
L 6.90625 57 
L 15.296875 57 
z
M 14.796875 42.796875 
L 7.40625 42.796875 
L 7.40625 0 
L 14.796875 0 
z
" id="CMSS17-105"/>
      <path d="M 32.203125 41.046875 
C 26.296875 43.859375 21.703125 43.859375 18.703125 43.859375 
C 11.59375 43.859375 3.09375 41.375 3.09375 31.296875 
C 3.09375 21.234375 14.09375 19.03125 17.09375 18.421875 
C 21.703125 17.53125 26.796875 16.53125 26.796875 11.5625 
C 26.796875 5.265625 19.59375 5.265625 18.296875 5.265625 
C 14.296875 5.265625 8.796875 6.359375 3.796875 9.96875 
L 2.59375 3.28125 
C 8.296875 0 13.796875 -1 18.40625 -1 
C 30.703125 -1 33.796875 6.5 33.796875 12.203125 
C 33.796875 17.09375 31 20.390625 29.09375 21.890625 
C 25.796875 24.5 24.59375 24.796875 16.40625 26.5 
C 15 26.703125 10.09375 27.796875 10.09375 32.28125 
C 10.09375 38 16.40625 38 17.796875 38 
C 24.296875 38 28.296875 35.984375 31 34.5 
z
" id="CMSS17-115"/>
      <path d="M 16.703125 37 
L 29.703125 37 
L 29.703125 42.765625 
L 16.703125 42.765625 
L 16.703125 55 
L 9.59375 55 
L 9.59375 42.765625 
L 1.703125 42.765625 
L 1.703125 37 
L 9.40625 37 
L 9.40625 11.703125 
C 9.40625 6 10.703125 -1 17.296875 -1 
C 22.296875 -1 26.90625 0.390625 31.296875 2.6875 
L 29.703125 8.5625 
C 27.296875 6.46875 24.40625 5.265625 21.296875 5.265625 
C 16.90625 5.265625 16.703125 10.875 16.703125 13.375 
z
" id="CMSS17-116"/>
      <path d="M 14.90625 21.296875 
C 14.90625 30.703125 21.796875 37 30.59375 37 
L 30.59375 43.578125 
C 24.203125 43.578125 18.203125 40.390625 14.59375 35.203125 
L 14.59375 43.09375 
L 7.5 43.09375 
L 7.5 0 
L 14.90625 0 
z
" id="CMSS17-114"/>
      <path d="M 14.90625 69 
L 7.5 69 
L 7.5 -0.203125 
L 15.09375 -0.203125 
L 15.09375 4.28125 
C 18.90625 0.59375 23.5 -1 27.59375 -1 
C 37.203125 -1 45 8.578125 45 21.125 
C 45 32.59375 39 43.0625 30.09375 43.0625 
C 23.796875 43.0625 18.203125 40.484375 14.90625 37.796875 
z
M 15.09375 31.96875 
C 17.296875 34.71875 20.40625 37 24.796875 37 
C 30.703125 37 37.40625 32.765625 37.40625 21.125 
C 37.40625 8.71875 29.40625 5.078125 23.90625 5.078125 
C 21.90625 5.078125 19.796875 5.5625 17.796875 7.25 
C 15.09375 9.609375 15.09375 11.078125 15.09375 12.453125 
z
" id="CMSS17-98"/>
      <path d="M 40.90625 42.796875 
L 33.296875 42.796875 
L 33.296875 15.1875 
C 33.296875 7.78125 27.90625 4.78125 22.203125 4.78125 
C 15.59375 4.78125 15 6.984375 15 11.078125 
L 15 42.796875 
L 7.40625 42.796875 
L 7.40625 10.59375 
C 7.40625 2.796875 10.09375 -1 17 -1 
C 20.40625 -1 28.09375 -0.203125 33.5 4.78125 
L 33.5 0 
L 40.90625 0 
z
" id="CMSS17-117"/>
      <path d="M 44.203125 21.1875 
C 44.203125 34 34.703125 44 23.5 44 
C 12 44 2.703125 33.703125 2.703125 21.1875 
C 2.703125 8.5 12.296875 -1 23.40625 -1 
C 34.796875 -1 44.203125 8.796875 44.203125 21.1875 
z
M 23.5 5.265625 
C 16.40625 5.265625 10.296875 11.078125 10.296875 22 
C 10.296875 33.609375 17.40625 37.921875 23.40625 37.921875 
C 29.90625 37.921875 36.59375 33.21875 36.59375 22 
C 36.59375 10.671875 30.09375 5.265625 23.5 5.265625 
z
" id="CMSS17-111"/>
      <path d="M 40.90625 29.328125 
C 40.90625 35.671875 39.40625 44 28.09375 44 
C 21.703125 44 17.5 40.71875 14.703125 37.328125 
L 14.703125 43.09375 
L 7.40625 43.09375 
L 7.40625 0 
L 15 0 
L 15 24.359375 
C 15 30.6875 17.40625 37.9375 24.203125 37.9375 
C 33 37.9375 33.296875 32 33.296875 28.578125 
L 33.296875 0 
L 40.90625 0 
z
" id="CMSS17-110"/>
      <path d="M 16.796875 37 
L 26.90625 37 
L 26.90625 42.765625 
L 16.59375 42.765625 
L 16.59375 55.609375 
C 16.59375 62.71875 22 63.9375 25.09375 63.9375 
C 26.09375 63.9375 28.90625 63.9375 32.5 62.640625 
L 32.5 69.203125 
C 30.203125 69.703125 27.40625 70 25.203125 70 
C 15.90625 70 9.40625 62.390625 9.40625 52.484375 
L 9.40625 42.765625 
L 2.5 42.765625 
L 2.5 37 
L 9.40625 37 
L 9.40625 0 
L 16.796875 0 
z
" id="CMSS17-102"/>
      <path d="M 39.09375 21.515625 
C 39.09375 24.84375 38.90625 31.296875 35.703125 36.640625 
C 32.203125 42.390625 26.5 44 22.203125 44 
C 11.796875 44 3 34.1875 3 21.484375 
C 3 9.09375 12.09375 -1 23.59375 -1 
C 28.09375 -1 33.59375 0.296875 38.59375 3.875 
C 38.59375 4.28125 38.40625 6.46875 38.296875 6.5625 
C 38.296875 6.765625 38 9.84375 38 10.25 
C 33.203125 6.359375 27.703125 5.078125 23.703125 5.078125 
C 17.296875 5.078125 10.40625 10.421875 10.09375 21.515625 
z
M 10.90625 27 
C 12.203125 32.5625 16.59375 37.828125 22.203125 37.828125 
C 23.703125 37.828125 30.703125 37.828125 32.5 27 
z
" id="CMSS17-101"/>
      <path d="M 37.59375 27.984375 
C 37.59375 37.375 30.90625 43.875 21.90625 43.875 
C 17.5 43.875 12.703125 43.078125 7.203125 39.890625 
L 7.796875 33.359375 
C 10.296875 35.125 14.59375 38 21.796875 38 
C 26.90625 38 30 34.0625 30 27.84375 
L 30 24 
C 14 24 4 19.34375 4 11.34375 
C 4 7.203125 6.5 -1 14.796875 -1 
C 16.296875 -1 24.40625 -1 30.203125 3.390625 
L 30.203125 -0.296875 
L 37.59375 -0.296875 
z
M 30 12.75 
C 30 10.953125 30 8.5625 27 6.78125 
C 24.40625 5.078125 21.09375 5.078125 19.703125 5.078125 
C 14.703125 5.078125 11.296875 7.984375 11.296875 11.625 
C 11.296875 18.921875 26.90625 18.921875 30 18.921875 
z
" id="CMSS17-97"/>
     </defs>
     <g style="fill:#ffff00;" transform="translate(182 66.56)scale(0.2 -0.2)">
      <use transform="scale(0.996264)" xlink:href="#CMSS17-68"/>
      <use transform="translate(67.542842 0)scale(0.996264)" xlink:href="#CMSS17-105"/>
      <use transform="translate(89.723565 0)scale(0.996264)" xlink:href="#CMSS17-115"/>
      <use transform="translate(125.637107 0)scale(0.996264)" xlink:href="#CMSS17-116"/>
      <use transform="translate(159.468673 0)scale(0.996264)" xlink:href="#CMSS17-114"/>
      <use transform="translate(191.378446 0)scale(0.996264)" xlink:href="#CMSS17-105"/>
      <use transform="translate(213.559169 0)scale(0.996264)" xlink:href="#CMSS17-98"/>
      <use transform="translate(261.764112 0)scale(0.996264)" xlink:href="#CMSS17-117"/>
      <use transform="translate(309.969055 0)scale(0.996264)" xlink:href="#CMSS17-116"/>
      <use transform="translate(343.800622 0)scale(0.996264)" xlink:href="#CMSS17-105"/>
      <use transform="translate(365.981345 0)scale(0.996264)" xlink:href="#CMSS17-111"/>
      <use transform="translate(412.824969 0)scale(0.996264)" xlink:href="#CMSS17-110"/>
      <use transform="translate(492.259024 0)scale(0.996264)" xlink:href="#CMSS17-111"/>
      <use transform="translate(539.102648 0)scale(0.996264)" xlink:href="#CMSS17-102"/>
      <use transform="translate(598.958419 0)scale(0.996264)" xlink:href="#CMSS17-114"/>
      <use transform="translate(630.868192 0)scale(0.996264)" xlink:href="#CMSS17-101"/>
      <use transform="translate(672.507014 0)scale(0.996264)" xlink:href="#CMSS17-116"/>
      <use transform="translate(706.338581 0)scale(0.996264)" xlink:href="#CMSS17-117"/>
      <use transform="translate(754.543524 0)scale(0.996264)" xlink:href="#CMSS17-114"/>
      <use transform="translate(786.453296 0)scale(0.996264)" xlink:href="#CMSS17-110"/>
      <use transform="translate(865.887352 0)scale(0.996264)" xlink:href="#CMSS17-114"/>
      <use transform="translate(897.797125 0)scale(0.996264)" xlink:href="#CMSS17-97"/>
      <use transform="translate(942.719046 0)scale(0.996264)" xlink:href="#CMSS17-116"/>
      <use transform="translate(976.550612 0)scale(0.996264)" xlink:href="#CMSS17-105"/>
      <use transform="translate(998.731335 0)scale(0.996264)" xlink:href="#CMSS17-111"/>
      <use transform="translate(1045.574959 0)scale(0.996264)" xlink:href="#CMSS17-115"/>
     </g>
    </g>
    <g id="patch_46">
     <path d="M 126 94.435634 
L 166 94.435634 
L 166 80.435634 
L 126 80.435634 
z
" style="fill:#ffff00;opacity:0.7;"/>
    </g>
    <g id="text_10">
     <!-- Predictive Prior -->
     <defs>
      <path d="M 32.90625 29 
C 44.90625 29 54.703125 38.328125 54.703125 49.34375 
C 54.703125 60.15625 45.296875 69.578125 32.296875 69.578125 
L 8.90625 69.578125 
L 8.90625 0 
L 17.296875 0 
L 17.296875 29 
z
M 30.09375 64 
C 41.703125 64 46.796875 56.671875 46.796875 49.328125 
C 46.796875 42.5 42.09375 34.78125 30.09375 34.78125 
L 17.09375 34.78125 
L 17.09375 64 
z
" id="CMSS17-80"/>
      <path d="M 40.796875 69 
L 33.40625 69 
L 33.40625 38.09375 
C 30.296875 40.671875 25.203125 43.0625 19.59375 43.0625 
C 10.5 43.0625 3.296875 33.296875 3.296875 21.046875 
C 3.296875 8.78125 10.40625 -1 19.296875 -1 
C 26.203125 -1 30.796875 2.6875 33.203125 4.78125 
L 33.203125 -0.203125 
L 40.796875 -0.203125 
z
M 33.203125 13.0625 
C 33.203125 11.671875 33.203125 10.203125 30.09375 7.53125 
C 28.09375 5.859375 25.703125 5.078125 23.40625 5.078125 
C 18 5.078125 10.90625 9 10.90625 20.9375 
C 10.90625 33.34375 18.90625 37 24.40625 37 
C 28.09375 37 31.09375 35.21875 33.203125 32.265625 
z
" id="CMSS17-100"/>
      <path d="M 38.5 39.703125 
C 38.5 40.390625 33.90625 42.40625 32.703125 42.796875 
C 29.40625 44 25.203125 44 24.09375 44 
C 11.09375 44 3.296875 32.703125 3.296875 21.296875 
C 3.296875 9.296875 12 -1 23.703125 -1 
C 30.40625 -1 35.203125 1.1875 39.09375 3.78125 
L 38.5 10.375 
C 34.203125 7.078125 29.203125 5.265625 23.796875 5.265625 
C 16 5.265625 10.90625 12.09375 10.90625 21.390625 
C 10.90625 28.609375 14.203125 37.71875 24.203125 37.71875 
C 29.703125 37.71875 32.796875 36.609375 37.40625 33.515625 
z
" id="CMSS17-99"/>
      <path d="M 41.796875 43 
L 34 43 
L 27.296875 24.3125 
C 25.203125 18.203125 22.203125 9.796875 21.703125 5.5 
L 21.59375 5.5 
C 21.40625 7.3125 20.59375 9.90625 20.09375 11.703125 
C 19.5 13.90625 18.703125 16.5 18.09375 18.3125 
L 9.296875 43 
L 1.296875 43 
L 17.09375 0 
L 26 0 
z
" id="CMSS17-118"/>
     </defs>
     <g style="fill:#ffff00;" transform="translate(182 94.435634)scale(0.2 -0.2)">
      <use transform="scale(0.996264)" xlink:href="#CMSS17-80"/>
      <use transform="translate(59.735586 0)scale(0.996264)" xlink:href="#CMSS17-114"/>
      <use transform="translate(91.645359 0)scale(0.996264)" xlink:href="#CMSS17-101"/>
      <use transform="translate(133.284181 0)scale(0.996264)" xlink:href="#CMSS17-100"/>
      <use transform="translate(181.489124 0)scale(0.996264)" xlink:href="#CMSS17-105"/>
      <use transform="translate(203.669847 0)scale(0.996264)" xlink:href="#CMSS17-99"/>
      <use transform="translate(245.308669 0)scale(0.996264)" xlink:href="#CMSS17-116"/>
      <use transform="translate(279.140236 0)scale(0.996264)" xlink:href="#CMSS17-105"/>
      <use transform="translate(301.320959 0)scale(0.996264)" xlink:href="#CMSS17-118"/>
      <use transform="translate(344.321101 0)scale(0.996264)" xlink:href="#CMSS17-101"/>
      <use transform="translate(417.189035 0)scale(0.996264)" xlink:href="#CMSS17-80"/>
      <use transform="translate(476.924622 0)scale(0.996264)" xlink:href="#CMSS17-114"/>
      <use transform="translate(508.834394 0)scale(0.996264)" xlink:href="#CMSS17-105"/>
      <use transform="translate(531.015117 0)scale(0.996264)" xlink:href="#CMSS17-111"/>
      <use transform="translate(575.256287 0)scale(0.996264)" xlink:href="#CMSS17-114"/>
     </g>
    </g>
   </g>
  </g>
 </g>
 <defs>
  <clipPath id="p4a78a47e85">
   <rect height="217.44" width="669.6" x="108" y="34.56"/>
  </clipPath>
 </defs>
</svg>
