<?xml version="1.0" encoding="utf-8" standalone="no"?>
<!DOCTYPE svg PUBLIC "-//W3C//DTD SVG 1.1//EN"
  "http://www.w3.org/Graphics/SVG/1.1/DTD/svg11.dtd">
<!-- Created with matplotlib (http://matplotlib.org/) -->
<svg height="576pt" version="1.1" viewBox="0 0 864 576" width="864pt" xmlns="http://www.w3.org/2000/svg" xmlns:xlink="http://www.w3.org/1999/xlink">
 <defs>
  <style type="text/css">
*{stroke-linecap:butt;stroke-linejoin:round;}
  </style>
 </defs>
 <g id="figure_1">
  <g id="patch_1">
   <path d="M 0 576 
L 864 576 
L 864 0 
L 0 0 
z
" style="fill:none;opacity:0;"/>
  </g>
  <g id="axes_1">
   <g id="patch_2">
    <path clip-path="url(#p4f1e51953c)" d="M 254.169793 197.025882 
L 275.326195 197.025882 
L 275.326195 194.495745 
L 254.169793 194.495745 
z
" style="fill:#ffff00;"/>
   </g>
   <g id="patch_3">
    <path clip-path="url(#p4f1e51953c)" d="M 275.326195 197.025882 
L 296.482596 197.025882 
L 296.482596 193.483689 
L 275.326195 193.483689 
z
" style="fill:#ffff00;"/>
   </g>
   <g id="patch_4">
    <path clip-path="url(#p4f1e51953c)" d="M 296.482596 197.025882 
L 317.638998 197.025882 
L 317.638998 188.929441 
L 296.482596 188.929441 
z
" style="fill:#ffff00;"/>
   </g>
   <g id="patch_5">
    <path clip-path="url(#p4f1e51953c)" d="M 317.638998 197.025882 
L 338.795399 197.025882 
L 338.795399 183.363138 
L 317.638998 183.363138 
z
" style="fill:#ffff00;"/>
   </g>
   <g id="patch_6">
    <path clip-path="url(#p4f1e51953c)" d="M 338.795399 197.025882 
L 359.951801 197.025882 
L 359.951801 173.748614 
L 338.795399 173.748614 
z
" style="fill:#ffff00;"/>
   </g>
   <g id="patch_7">
    <path clip-path="url(#p4f1e51953c)" d="M 359.951801 197.025882 
L 381.108202 197.025882 
L 381.108202 166.158201 
L 359.951801 166.158201 
z
" style="fill:#ffff00;"/>
   </g>
   <g id="patch_8">
    <path clip-path="url(#p4f1e51953c)" d="M 381.108202 197.025882 
L 402.264604 197.025882 
L 402.264604 155.531622 
L 381.108202 155.531622 
z
" style="fill:#ffff00;"/>
   </g>
   <g id="patch_9">
    <path clip-path="url(#p4f1e51953c)" d="M 402.264604 197.025882 
L 423.421005 197.025882 
L 423.421005 144.905043 
L 402.264604 144.905043 
z
" style="fill:#ffff00;"/>
   </g>
   <g id="patch_10">
    <path clip-path="url(#p4f1e51953c)" d="M 423.421005 197.025882 
L 444.577407 197.025882 
L 444.577407 143.892988 
L 423.421005 143.892988 
z
" style="fill:#ffff00;"/>
   </g>
   <g id="patch_11">
    <path clip-path="url(#p4f1e51953c)" d="M 444.577407 197.025882 
L 465.733808 197.025882 
L 465.733808 139.33874 
L 444.577407 139.33874 
z
" style="fill:#ffff00;"/>
   </g>
   <g id="patch_12">
    <path clip-path="url(#p4f1e51953c)" d="M 465.733808 197.025882 
L 486.89021 197.025882 
L 486.89021 141.36285 
L 465.733808 141.36285 
z
" style="fill:#ffff00;"/>
   </g>
   <g id="patch_13">
    <path clip-path="url(#p4f1e51953c)" d="M 486.89021 197.025882 
L 508.046611 197.025882 
L 508.046611 141.868878 
L 486.89021 141.868878 
z
" style="fill:#ffff00;"/>
   </g>
   <g id="patch_14">
    <path clip-path="url(#p4f1e51953c)" d="M 508.046611 197.025882 
L 529.203013 197.025882 
L 529.203013 159.073815 
L 508.046611 159.073815 
z
" style="fill:#ffff00;"/>
   </g>
   <g id="patch_15">
    <path clip-path="url(#p4f1e51953c)" d="M 529.203013 197.025882 
L 550.359415 197.025882 
L 550.359415 172.736559 
L 529.203013 172.736559 
z
" style="fill:#ffff00;"/>
   </g>
   <g id="patch_16">
    <path clip-path="url(#p4f1e51953c)" d="M 550.359415 197.025882 
L 571.515816 197.025882 
L 571.515816 175.266697 
L 550.359415 175.266697 
z
" style="fill:#ffff00;"/>
   </g>
   <g id="patch_17">
    <path clip-path="url(#p4f1e51953c)" d="M 571.515816 197.025882 
L 592.672218 197.025882 
L 592.672218 185.387248 
L 571.515816 185.387248 
z
" style="fill:#ffff00;"/>
   </g>
   <g id="patch_18">
    <path clip-path="url(#p4f1e51953c)" d="M 592.672218 197.025882 
L 613.828619 197.025882 
L 613.828619 190.447524 
L 592.672218 190.447524 
z
" style="fill:#ffff00;"/>
   </g>
   <g id="patch_19">
    <path clip-path="url(#p4f1e51953c)" d="M 613.828619 197.025882 
L 634.985021 197.025882 
L 634.985021 193.989717 
L 613.828619 193.989717 
z
" style="fill:#ffff00;"/>
   </g>
   <g id="patch_20">
    <path clip-path="url(#p4f1e51953c)" d="M 634.985021 197.025882 
L 656.141422 197.025882 
L 656.141422 195.001772 
L 634.985021 195.001772 
z
" style="fill:#ffff00;"/>
   </g>
   <g id="patch_21">
    <path clip-path="url(#p4f1e51953c)" d="M 656.141422 197.025882 
L 677.297824 197.025882 
L 677.297824 195.5078 
L 656.141422 195.5078 
z
" style="fill:#ffff00;"/>
   </g>
   <g id="patch_22">
    <path clip-path="url(#p4f1e51953c)" d="M 321.089136 197.025882 
L 338.831936 197.025882 
L 338.831936 196.422498 
L 321.089136 196.422498 
z
" style="fill:#f08080;"/>
   </g>
   <g id="patch_23">
    <path clip-path="url(#p4f1e51953c)" d="M 338.831936 197.025882 
L 356.574736 197.025882 
L 356.574736 195.819114 
L 338.831936 195.819114 
z
" style="fill:#f08080;"/>
   </g>
   <g id="patch_24">
    <path clip-path="url(#p4f1e51953c)" d="M 356.574736 197.025882 
L 374.317536 197.025882 
L 374.317536 191.595426 
L 356.574736 191.595426 
z
" style="fill:#f08080;"/>
   </g>
   <g id="patch_25">
    <path clip-path="url(#p4f1e51953c)" d="M 374.317536 197.025882 
L 392.060337 197.025882 
L 392.060337 191.595426 
L 374.317536 191.595426 
z
" style="fill:#f08080;"/>
   </g>
   <g id="patch_26">
    <path clip-path="url(#p4f1e51953c)" d="M 392.060337 197.025882 
L 409.803137 197.025882 
L 409.803137 183.751434 
L 392.060337 183.751434 
z
" style="fill:#f08080;"/>
   </g>
   <g id="patch_27">
    <path clip-path="url(#p4f1e51953c)" d="M 409.803137 197.025882 
L 427.545937 197.025882 
L 427.545937 181.337897 
L 409.803137 181.337897 
z
" style="fill:#f08080;"/>
   </g>
   <g id="patch_28">
    <path clip-path="url(#p4f1e51953c)" d="M 427.545937 197.025882 
L 445.288737 197.025882 
L 445.288737 166.253297 
L 427.545937 166.253297 
z
" style="fill:#f08080;"/>
   </g>
   <g id="patch_29">
    <path clip-path="url(#p4f1e51953c)" d="M 445.288737 197.025882 
L 463.031538 197.025882 
L 463.031538 162.632992 
L 445.288737 162.632992 
z
" style="fill:#f08080;"/>
   </g>
   <g id="patch_30">
    <path clip-path="url(#p4f1e51953c)" d="M 463.031538 197.025882 
L 480.774338 197.025882 
L 480.774338 154.789 
L 463.031538 154.789 
z
" style="fill:#f08080;"/>
   </g>
   <g id="patch_31">
    <path clip-path="url(#p4f1e51953c)" d="M 480.774338 197.025882 
L 498.517138 197.025882 
L 498.517138 127.033335 
L 480.774338 127.033335 
z
" style="fill:#f08080;"/>
   </g>
   <g id="patch_32">
    <path clip-path="url(#p4f1e51953c)" d="M 498.517138 197.025882 
L 516.259938 197.025882 
L 516.259938 128.240103 
L 498.517138 128.240103 
z
" style="fill:#f08080;"/>
   </g>
   <g id="patch_33">
    <path clip-path="url(#p4f1e51953c)" d="M 516.259938 197.025882 
L 534.002738 197.025882 
L 534.002738 116.775806 
L 516.259938 116.775806 
z
" style="fill:#f08080;"/>
   </g>
   <g id="patch_34">
    <path clip-path="url(#p4f1e51953c)" d="M 534.002738 197.025882 
L 551.745539 197.025882 
L 551.745539 122.809646 
L 534.002738 122.809646 
z
" style="fill:#f08080;"/>
   </g>
   <g id="patch_35">
    <path clip-path="url(#p4f1e51953c)" d="M 551.745539 197.025882 
L 569.488339 197.025882 
L 569.488339 144.531471 
L 551.745539 144.531471 
z
" style="fill:#f08080;"/>
   </g>
   <g id="patch_36">
    <path clip-path="url(#p4f1e51953c)" d="M 569.488339 197.025882 
L 587.231139 197.025882 
L 587.231139 153.582232 
L 569.488339 153.582232 
z
" style="fill:#f08080;"/>
   </g>
   <g id="patch_37">
    <path clip-path="url(#p4f1e51953c)" d="M 587.231139 197.025882 
L 604.973939 197.025882 
L 604.973939 168.063449 
L 587.231139 168.063449 
z
" style="fill:#f08080;"/>
   </g>
   <g id="patch_38">
    <path clip-path="url(#p4f1e51953c)" d="M 604.973939 197.025882 
L 622.71674 197.025882 
L 622.71674 178.320977 
L 604.973939 178.320977 
z
" style="fill:#f08080;"/>
   </g>
   <g id="patch_39">
    <path clip-path="url(#p4f1e51953c)" d="M 622.71674 197.025882 
L 640.45954 197.025882 
L 640.45954 184.958202 
L 622.71674 184.958202 
z
" style="fill:#f08080;"/>
   </g>
   <g id="patch_40">
    <path clip-path="url(#p4f1e51953c)" d="M 640.45954 197.025882 
L 658.20234 197.025882 
L 658.20234 194.008962 
L 640.45954 194.008962 
z
" style="fill:#f08080;"/>
   </g>
   <g id="patch_41">
    <path clip-path="url(#p4f1e51953c)" d="M 658.20234 197.025882 
L 675.94514 197.025882 
L 675.94514 194.612346 
L 658.20234 194.612346 
z
" style="fill:#f08080;"/>
   </g>
   <g id="matplotlib.axis_1">
    <g id="xtick_1">
     <g id="line2d_1">
      <defs>
       <path d="M 0 0 
L 0 3.5 
" id="m611311bfef" style="stroke:#ffff00;stroke-width:0.8;"/>
      </defs>
      <g>
       <use style="fill:#ffff00;stroke:#ffff00;stroke-width:0.8;" x="108" xlink:href="#m611311bfef" y="197.025882"/>
      </g>
     </g>
    </g>
    <g id="xtick_2">
     <g id="line2d_2">
      <g>
       <use style="fill:#ffff00;stroke:#ffff00;stroke-width:0.8;" x="241.92" xlink:href="#m611311bfef" y="197.025882"/>
      </g>
     </g>
    </g>
    <g id="xtick_3">
     <g id="line2d_3">
      <g>
       <use style="fill:#ffff00;stroke:#ffff00;stroke-width:0.8;" x="375.84" xlink:href="#m611311bfef" y="197.025882"/>
      </g>
     </g>
    </g>
    <g id="xtick_4">
     <g id="line2d_4">
      <g>
       <use style="fill:#ffff00;stroke:#ffff00;stroke-width:0.8;" x="509.76" xlink:href="#m611311bfef" y="197.025882"/>
      </g>
     </g>
    </g>
    <g id="xtick_5">
     <g id="line2d_5">
      <g>
       <use style="fill:#ffff00;stroke:#ffff00;stroke-width:0.8;" x="643.68" xlink:href="#m611311bfef" y="197.025882"/>
      </g>
     </g>
    </g>
    <g id="xtick_6">
     <g id="line2d_6">
      <g>
       <use style="fill:#ffff00;stroke:#ffff00;stroke-width:0.8;" x="777.6" xlink:href="#m611311bfef" y="197.025882"/>
      </g>
     </g>
    </g>
   </g>
   <g id="matplotlib.axis_2">
    <g id="text_1">
     <!-- $p(\theta)$ -->
     <defs>
      <path d="M 4.296875 -12.328125 
C 3.59375 -15.3125 3.203125 -16.109375 -0.90625 -16.109375 
C -2.09375 -16.109375 -3.09375 -16.109375 -3.09375 -18 
C -3.09375 -18.203125 -3 -19 -1.90625 -19 
C -0.59375 -19 0.796875 -19 2.09375 -19 
L 6.40625 -19 
C 8.5 -19 13.59375 -19 15.703125 -19 
C 16.296875 -19 17.5 -19 17.5 -17.203125 
C 17.5 -16.109375 16.796875 -16.109375 15.09375 -16.109375 
C 10.5 -16.109375 10.203125 -15.421875 10.203125 -14.640625 
C 10.203125 -13.453125 14.703125 3.421875 15.296875 5.6875 
C 16.40625 2.890625 19.09375 -1 24.296875 -1 
C 35.59375 -1 47.796875 13.671875 47.796875 28.34375 
C 47.796875 37.515625 42.59375 44 35.09375 44 
C 28.703125 44 23.296875 37.8125 22.203125 36.421875 
C 21.40625 41.40625 17.5 44 13.5 44 
C 10.59375 44 8.296875 42.609375 6.40625 38.8125 
C 4.59375 35.21875 3.203125 29.140625 3.203125 28.734375 
C 3.203125 28.34375 3.59375 27.84375 4.296875 27.84375 
C 5.09375 27.84375 5.203125 27.9375 5.796875 30.234375 
C 7.296875 36.125 9.203125 42.015625 13.203125 42.015625 
C 15.5 42.015625 16.296875 40.421875 16.296875 37.453125 
C 16.296875 35.078125 16 34.078125 15.59375 32.296875 
z
M 21.59375 31.140625 
C 22.296875 33.921875 25.09375 36.828125 26.703125 38.21875 
C 27.796875 39.21875 31.09375 42.015625 34.90625 42.015625 
C 39.296875 42.015625 41.296875 37.625 41.296875 32.4375 
C 41.296875 27.640625 38.5 16.359375 36 11.171875 
C 33.5 5.78125 28.90625 1 24.296875 1 
C 17.5 1 16.40625 9.578125 16.40625 9.984375 
C 16.40625 10.28125 16.59375 11.078125 16.703125 11.578125 
z
" id="CMMI12-112"/>
      <path d="M 30.59375 -24.390625 
C 30.59375 -24.296875 30.59375 -24.09375 30.296875 -23.796875 
C 25.703125 -19.125 13.40625 -6.359375 13.40625 24.703125 
C 13.40625 55.765625 25.5 68.421875 30.40625 73.390625 
C 30.40625 73.5 30.59375 73.703125 30.59375 74 
C 30.59375 74.296875 30.296875 74.5 29.90625 74.5 
C 28.796875 74.5 20.296875 67.125 15.40625 56.15625 
C 10.40625 45.109375 9 34.359375 9 24.8125 
C 9 17.625 9.703125 5.484375 15.703125 -7.359375 
C 20.5 -17.734375 28.703125 -25 29.90625 -25 
C 30.40625 -25 30.59375 -24.796875 30.59375 -24.390625 
z
" id="CMR17-40"/>
      <path d="M 44.296875 50 
C 44.296875 60.15625 41.09375 70 32.90625 70 
C 18.90625 70 4 40.859375 4 19 
C 4 14.421875 5 -1 15.5 -1 
C 29.09375 -1 44.296875 27.4375 44.296875 50 
z
M 14 36 
C 15.5 41.859375 17.59375 50.21875 21.59375 57.265625 
C 24.90625 63.234375 28.40625 68 32.796875 68 
C 36.09375 68 38.296875 65.21875 38.296875 55.6875 
C 38.296875 52.09375 38 47.140625 35.09375 36 
z
M 34.40625 33.015625 
C 31.90625 23.28125 29.796875 17 26.203125 10.734375 
C 23.296875 5.671875 19.796875 1 15.59375 1 
C 12.5 1 10 3.390625 10 13.21875 
C 10 19.6875 11.59375 26.453125 13.203125 33.015625 
z
" id="CMMI12-18"/>
      <path d="M 26.296875 24.703125 
C 26.296875 31.875 25.59375 44.015625 19.59375 56.859375 
C 14.796875 67.234375 6.59375 74.5 5.40625 74.5 
C 5.09375 74.5 4.703125 74.390625 4.703125 73.890625 
C 4.703125 73.703125 4.796875 73.59375 4.90625 73.390625 
C 9.703125 68.40625 21.90625 55.75 21.90625 24.75 
C 21.90625 -6.359375 9.796875 -19.015625 4.90625 -24.015625 
C 4.796875 -24.203125 4.703125 -24.3125 4.703125 -24.5 
C 4.703125 -25 5.09375 -25 5.40625 -25 
C 6.5 -25 15 -17.625 19.90625 -6.65625 
C 24.90625 4.390625 26.296875 15.140625 26.296875 24.703125 
z
" id="CMR17-41"/>
     </defs>
     <g style="fill:#ffff00;" transform="translate(99.035356 149.841989)rotate(-90)scale(0.2 -0.2)">
      <use transform="scale(0.996264)" xlink:href="#CMMI12-112"/>
      <use transform="translate(48.959514 0)scale(0.996264)" xlink:href="#CMR17-40"/>
      <use transform="translate(84.240282 0)scale(0.996264)" xlink:href="#CMMI12-18"/>
      <use transform="translate(132.40979 0)scale(0.996264)" xlink:href="#CMR17-41"/>
     </g>
    </g>
   </g>
   <g id="line2d_7">
    <path clip-path="url(#p4f1e51953c)" d="M 452.722786 197.025882 
L 452.722786 69.12 
" style="fill:none;opacity:0.3;stroke:#000000;stroke-dasharray:5.55,2.4;stroke-dashoffset:0;stroke-width:1.5;"/>
   </g>
   <g id="patch_42">
    <path d="M 108 197.025882 
L 108 69.12 
" style="fill:none;stroke:#000000;stroke-linecap:square;stroke-linejoin:miter;stroke-width:0.8;"/>
   </g>
   <g id="patch_43">
    <path d="M 777.6 197.025882 
L 777.6 69.12 
" style="fill:none;stroke:#000000;stroke-linecap:square;stroke-linejoin:miter;stroke-width:0.8;"/>
   </g>
   <g id="patch_44">
    <path d="M 108 197.025882 
L 777.6 197.025882 
" style="fill:none;stroke:#000000;stroke-linecap:square;stroke-linejoin:miter;stroke-width:0.8;"/>
   </g>
   <g id="patch_45">
    <path d="M 108 69.12 
L 777.6 69.12 
" style="fill:none;stroke:#000000;stroke-linecap:square;stroke-linejoin:miter;stroke-width:0.8;"/>
   </g>
   <g id="patch_46">
    <path d="M 516.275926 146.9126 
Q 516.275926 170.970585 516.275926 193.910536 
" style="fill:none;stroke:#000000;stroke-linecap:round;"/>
    <path d="M 519.275926 187.910536 
L 516.275926 193.910536 
L 513.275926 187.910536 
" style="fill:none;stroke:#000000;stroke-linecap:round;"/>
   </g>
   <g id="text_2">
    <g id="patch_47">
     <path d="M 504.601672 142.794921 
C 506.851672 145.044921 525.70018 145.044921 527.95018 142.794921 
C 530.20018 140.544921 530.20018 125.600961 527.95018 123.350961 
C 525.70018 121.100961 506.851672 121.100961 504.601672 123.350961 
C 502.351672 125.600961 502.351672 140.544921 504.601672 142.794921 
z
" style="fill:#ffffff;stroke:#000000;stroke-linejoin:miter;"/>
    </g>
    <!-- $\langle\theta\rangle$ -->
    <defs>
     <path d="M 32.796875 71.203125 
C 33.296875 72.296875 33.296875 72.5 33.296875 73 
C 33.296875 74.09375 32.40625 75 31.296875 75 
C 30.40625 75 29.703125 74.5 29 72.703125 
L 11.5 26.796875 
C 11.296875 26.203125 11 25.59375 11 25 
C 11 24.703125 11 24.5 11.5 23.296875 
L 29 -22.59375 
C 29.40625 -23.703125 29.90625 -25 31.296875 -25 
C 32.40625 -25 33.296875 -24.09375 33.296875 -23 
C 33.296875 -22.703125 33.296875 -22.5 32.796875 -21.40625 
L 15.09375 25 
z
" id="CMSY10-104"/>
     <path d="M 27.296875 23.296875 
C 27.796875 24.5 27.796875 24.703125 27.796875 25 
C 27.796875 25.296875 27.796875 25.5 27.296875 26.703125 
L 9.796875 72.703125 
C 9.203125 74.40625 8.59375 75 7.5 75 
C 6.40625 75 5.5 74.09375 5.5 73 
C 5.5 72.703125 5.5 72.5 6 71.40625 
L 23.703125 25 
L 6 -21.203125 
C 5.5 -22.296875 5.5 -22.5 5.5 -23 
C 5.5 -24.09375 6.40625 -25 7.5 -25 
C 8.796875 -25 9.203125 -24 9.59375 -23 
z
" id="CMSY10-105"/>
    </defs>
    <g style="fill:#ffff00;" transform="translate(506.851672 136.808931)scale(0.15 -0.15)">
     <use transform="scale(0.996264)" xlink:href="#CMSY10-104"/>
     <use transform="translate(38.743734 0)scale(0.996264)" xlink:href="#CMMI12-18"/>
     <use transform="translate(86.913242 0)scale(0.996264)" xlink:href="#CMSY10-105"/>
    </g>
   </g>
   <g id="patch_48">
    <path d="M 643.68 186.052339 
Q 643.68 190.538471 643.68 193.90657 
" style="fill:none;stroke:#000000;stroke-linecap:round;"/>
    <path d="M 646.68 187.90657 
L 643.68 193.90657 
L 640.68 187.90657 
" style="fill:none;stroke:#000000;stroke-linecap:round;"/>
   </g>
   <g id="text_3">
    <g id="patch_49">
     <path d="M 635.190459 181.935264 
C 637.440459 184.185264 649.919541 184.185264 652.169541 181.935264 
C 654.419541 179.685264 654.419541 166.401795 652.169541 164.151795 
C 649.919541 161.901795 637.440459 161.901795 635.190459 164.151795 
C 632.940459 166.401795 632.940459 179.685264 635.190459 181.935264 
z
" style="fill:#ffffff;stroke:#000000;stroke-linejoin:miter;"/>
    </g>
    <!-- rq -->
    <defs>
     <path d="M 14.90625 21.296875 
C 14.90625 30.703125 21.796875 37 30.59375 37 
L 30.59375 43.578125 
C 24.203125 43.578125 18.203125 40.390625 14.59375 35.203125 
L 14.59375 43.09375 
L 7.5 43.09375 
L 7.5 0 
L 14.90625 0 
z
" id="CMSS17-114"/>
     <path d="M 40.796875 44 
L 33.40625 44 
L 33.40625 37.9375 
C 33 38.4375 28.40625 44 20.59375 44 
C 11.5 44 3.296875 34.8125 3.296875 21.859375 
C 3.296875 9.890625 10.203125 -0.078125 19.203125 -0.078125 
C 23.40625 -0.078125 28.703125 1.421875 33.203125 5.703125 
L 33.203125 -19 
L 40.796875 -19 
z
M 33.40625 14.28125 
C 33.40625 13 33.40625 11.21875 30.296875 8.65625 
C 29.5 7.96875 27.296875 6 23.5 6 
C 16.40625 6 10.90625 13.28125 10.90625 21.859375 
C 10.90625 31.421875 17.59375 37.734375 24.40625 37.734375 
C 30.09375 37.734375 33.40625 32.203125 33.40625 28.078125 
z
" id="CMSS17-113"/>
    </defs>
    <g style="fill:#ffff00;" transform="translate(637.440459 176.779519)scale(0.15 -0.15)">
     <use transform="scale(0.996264)" xlink:href="#CMSS17-114"/>
     <use transform="translate(31.909773 0)scale(0.996264)" xlink:href="#CMSS17-113"/>
    </g>
   </g>
   <g id="patch_50">
    <path d="M 605.04829 85.108235 
Q 511.766861 85.108235 418.485431 85.108235 
" style="fill:none;stroke:#ffff00;stroke-linecap:round;"/>
    <path d="M 597.04829 81.108235 
L 605.04829 85.108235 
L 597.04829 89.108235 
" style="fill:none;stroke:#ffff00;stroke-linecap:round;"/>
    <path d="M 426.485431 89.108235 
L 418.485431 85.108235 
L 426.485431 81.108235 
" style="fill:none;stroke:#ffff00;stroke-linecap:round;"/>
   </g>
   <g id="text_4">
    <!-- Spread -->
    <defs>
     <path d="M 43.703125 65.140625 
C 39.296875 67.71875 34.5 70 26.40625 70 
C 13.5 70 5.203125 60.609375 5.203125 51.03125 
C 5.203125 47.265625 6.296875 43.015625 10.203125 38.671875 
C 14.09375 34.3125 18.5 33.140625 24.09375 31.765625 
C 26.40625 31.15625 30.296875 30.0625 31 29.78125 
C 36.59375 27.609375 39.296875 22.5625 39.296875 17.8125 
C 39.296875 11.59375 34.40625 4.96875 25.703125 4.96875 
C 22.703125 4.96875 13.90625 4.96875 5.59375 12.796875 
L 4.203125 4.96875 
C 12.40625 -1 21.296875 -2 25.796875 -2 
C 38.09375 -2 46.90625 7.625 46.90625 18.53125 
C 46.90625 22.5 45.703125 27.546875 41.5 32.203125 
C 37.40625 36.671875 33.796875 37.65625 25.59375 39.828125 
C 20.90625 41.03125 17.90625 41.828125 15.40625 44.890625 
C 13.703125 47.078125 12.796875 49.15625 12.796875 51.828125 
C 12.796875 57.390625 17.59375 63.4375 26.40625 63.4375 
C 30.796875 63.4375 36.5 62.53125 42.296875 57.1875 
z
" id="CMSS17-83"/>
     <path d="M 15.09375 5.203125 
C 18.40625 2.015625 22.90625 -0.078125 27.703125 -0.078125 
C 37 -0.078125 45 9.421875 45 22.0625 
C 45 33.734375 39 44 30.40625 44 
C 25.40625 44 19.40625 42.21875 14.90625 38.625 
L 14.90625 43.203125 
L 7.5 43.203125 
L 7.5 -19 
L 15.09375 -19 
z
M 15.09375 32.8125 
C 15.90625 34 19.296875 37.734375 24.796875 37.734375 
C 31.796875 37.734375 37.40625 30.625 37.40625 22.0625 
C 37.40625 12.296875 30.59375 6 23.90625 6 
C 21.90625 6 19.796875 6.484375 17.796875 8.171875 
C 15.09375 10.53125 15.09375 12 15.09375 13.390625 
z
" id="CMSS17-112"/>
     <path d="M 39.09375 21.515625 
C 39.09375 24.84375 38.90625 31.296875 35.703125 36.640625 
C 32.203125 42.390625 26.5 44 22.203125 44 
C 11.796875 44 3 34.1875 3 21.484375 
C 3 9.09375 12.09375 -1 23.59375 -1 
C 28.09375 -1 33.59375 0.296875 38.59375 3.875 
C 38.59375 4.28125 38.40625 6.46875 38.296875 6.5625 
C 38.296875 6.765625 38 9.84375 38 10.25 
C 33.203125 6.359375 27.703125 5.078125 23.703125 5.078125 
C 17.296875 5.078125 10.40625 10.421875 10.09375 21.515625 
z
M 10.90625 27 
C 12.203125 32.5625 16.59375 37.828125 22.203125 37.828125 
C 23.703125 37.828125 30.703125 37.828125 32.5 27 
z
" id="CMSS17-101"/>
     <path d="M 37.59375 27.984375 
C 37.59375 37.375 30.90625 43.875 21.90625 43.875 
C 17.5 43.875 12.703125 43.078125 7.203125 39.890625 
L 7.796875 33.359375 
C 10.296875 35.125 14.59375 38 21.796875 38 
C 26.90625 38 30 34.0625 30 27.84375 
L 30 24 
C 14 24 4 19.34375 4 11.34375 
C 4 7.203125 6.5 -1 14.796875 -1 
C 16.296875 -1 24.40625 -1 30.203125 3.390625 
L 30.203125 -0.296875 
L 37.59375 -0.296875 
z
M 30 12.75 
C 30 10.953125 30 8.5625 27 6.78125 
C 24.40625 5.078125 21.09375 5.078125 19.703125 5.078125 
C 14.703125 5.078125 11.296875 7.984375 11.296875 11.625 
C 11.296875 18.921875 26.90625 18.921875 30 18.921875 
z
" id="CMSS17-97"/>
     <path d="M 40.796875 69 
L 33.40625 69 
L 33.40625 38.09375 
C 30.296875 40.671875 25.203125 43.0625 19.59375 43.0625 
C 10.5 43.0625 3.296875 33.296875 3.296875 21.046875 
C 3.296875 8.78125 10.40625 -1 19.296875 -1 
C 26.203125 -1 30.796875 2.6875 33.203125 4.78125 
L 33.203125 -0.203125 
L 40.796875 -0.203125 
z
M 33.203125 13.0625 
C 33.203125 11.671875 33.203125 10.203125 30.09375 7.53125 
C 28.09375 5.859375 25.703125 5.078125 23.40625 5.078125 
C 18 5.078125 10.90625 9 10.90625 20.9375 
C 10.90625 33.34375 18.90625 37 24.40625 37 
C 28.09375 37 31.09375 35.21875 33.203125 32.265625 
z
" id="CMSS17-100"/>
    </defs>
    <g style="fill:#ffff00;" transform="translate(491.157327 101.096471)scale(0.15 -0.15)">
     <use transform="scale(0.996264)" xlink:href="#CMSS17-83"/>
     <use transform="translate(52.048516 0)scale(0.996264)" xlink:href="#CMSS17-112"/>
     <use transform="translate(97.651005 0)scale(0.996264)" xlink:href="#CMSS17-114"/>
     <use transform="translate(129.560778 0)scale(0.996264)" xlink:href="#CMSS17-101"/>
     <use transform="translate(171.1996 0)scale(0.996264)" xlink:href="#CMSS17-97"/>
     <use transform="translate(216.121521 0)scale(0.996264)" xlink:href="#CMSS17-100"/>
    </g>
   </g>
   <g id="text_5">
    <!-- 8 returned / 10 ordered -->
    <defs>
     <path d="M 30.203125 34.71875 
C 37.796875 37.1875 41.703125 43.125 41.703125 48.96875 
C 41.703125 58.15625 33.703125 66.078125 23.5 66.078125 
C 12.90625 66.078125 5.203125 57.9375 5.203125 49.125 
C 5.203125 43.4375 9 37.546875 16.703125 35.015625 
C 6.90625 31.203125 3.90625 23.625 3.90625 17.953125 
C 3.90625 6.96875 12.796875 -2 23.40625 -2 
C 34.40625 -2 43 7.109375 43 17.78125 
C 43 24.328125 39.09375 31.25 30.203125 34.71875 
z
M 23.5 38 
C 16.796875 38 12.296875 42.375 12.296875 49 
C 12.296875 55.71875 16.796875 60 23.5 60 
C 29.703125 60 34.59375 56.109375 34.59375 49 
C 34.59375 41.984375 29.796875 38 23.5 38 
z
M 23.5 4.171875 
C 17.796875 4.171875 11.703125 8.078125 11.703125 18.0625 
C 11.703125 28.328125 18.5 31.921875 23.40625 31.921875 
C 28.796875 31.921875 35.203125 28.125 35.203125 18.0625 
C 35.203125 7.671875 28.59375 4.171875 23.5 4.171875 
z
" id="CMSS17-56"/>
     <path d="M 16.703125 37 
L 29.703125 37 
L 29.703125 42.765625 
L 16.703125 42.765625 
L 16.703125 55 
L 9.59375 55 
L 9.59375 42.765625 
L 1.703125 42.765625 
L 1.703125 37 
L 9.40625 37 
L 9.40625 11.703125 
C 9.40625 6 10.703125 -1 17.296875 -1 
C 22.296875 -1 26.90625 0.390625 31.296875 2.6875 
L 29.703125 8.5625 
C 27.296875 6.46875 24.40625 5.265625 21.296875 5.265625 
C 16.90625 5.265625 16.703125 10.875 16.703125 13.375 
z
" id="CMSS17-116"/>
     <path d="M 40.90625 42.796875 
L 33.296875 42.796875 
L 33.296875 15.1875 
C 33.296875 7.78125 27.90625 4.78125 22.203125 4.78125 
C 15.59375 4.78125 15 6.984375 15 11.078125 
L 15 42.796875 
L 7.40625 42.796875 
L 7.40625 10.59375 
C 7.40625 2.796875 10.09375 -1 17 -1 
C 20.40625 -1 28.09375 -0.203125 33.5 4.78125 
L 33.5 0 
L 40.90625 0 
z
" id="CMSS17-117"/>
     <path d="M 40.90625 29.328125 
C 40.90625 35.671875 39.40625 44 28.09375 44 
C 21.703125 44 17.5 40.71875 14.703125 37.328125 
L 14.703125 43.09375 
L 7.40625 43.09375 
L 7.40625 0 
L 15 0 
L 15 24.359375 
C 15 30.6875 17.40625 37.9375 24.203125 37.9375 
C 33 37.9375 33.296875 32 33.296875 28.578125 
L 33.296875 0 
L 40.90625 0 
z
" id="CMSS17-110"/>
     <path d="M 41.203125 71.015625 
C 41.703125 72.296875 41.703125 72.5 41.703125 72.703125 
C 41.703125 73.890625 40.796875 74.5 40 74.5 
C 38.796875 74.5 38.40625 73.703125 38 72.5 
L 5.703125 -21.515625 
C 5.203125 -22.8125 5.203125 -23.015625 5.203125 -23.21875 
C 5.203125 -24.40625 6.09375 -25 6.90625 -25 
C 8.09375 -25 8.5 -24.203125 8.90625 -23.015625 
z
" id="CMSS17-47"/>
     <path d="M 28.40625 67 
L 26.5 67 
C 21.09375 61.5625 14.796875 60.78125 8.40625 60.78125 
L 8.40625 55 
C 11.296875 55 16 55 20.703125 57.296875 
L 20.703125 5.765625 
L 8.90625 5.765625 
L 8.90625 0 
L 40.203125 0 
L 40.203125 5.765625 
L 28.40625 5.765625 
z
" id="CMSS17-49"/>
     <path d="M 43.09375 31.9375 
C 43.09375 37.578125 43 48.078125 38.90625 56.1875 
C 34.796875 64 28.203125 66.078125 23.5 66.078125 
C 16.703125 66.078125 10.90625 62.109375 7.90625 55.78125 
C 4.703125 49.15625 3.796875 42.328125 3.796875 31.9375 
C 3.796875 24.828125 4.09375 16.109375 7.703125 8.484375 
C 11.796875 0.078125 18.703125 -2 23.40625 -2 
C 29.59375 -2 35.59375 1.265625 39 8.09375 
C 42.5 15.21875 43.09375 23.03125 43.09375 31.9375 
z
M 23.40625 4.078125 
C 15.796875 4.078125 13.5 12.671875 12.796875 15.546875 
C 11.59375 20.46875 11.40625 25.21875 11.40625 33.03125 
C 11.40625 39.15625 11.40625 46.0625 13.296875 51.515625 
C 15.59375 57.828125 19.59375 60 23.40625 60 
C 30.796875 60 33.203125 52.6875 34 50.125 
C 35.5 44.890625 35.5 38.765625 35.5 33.03125 
C 35.5 23.84375 35.5 4.078125 23.40625 4.078125 
z
" id="CMSS17-48"/>
     <path d="M 44.203125 21.1875 
C 44.203125 34 34.703125 44 23.5 44 
C 12 44 2.703125 33.703125 2.703125 21.1875 
C 2.703125 8.5 12.296875 -1 23.40625 -1 
C 34.796875 -1 44.203125 8.796875 44.203125 21.1875 
z
M 23.5 5.265625 
C 16.40625 5.265625 10.296875 11.078125 10.296875 22 
C 10.296875 33.609375 17.40625 37.921875 23.40625 37.921875 
C 29.90625 37.921875 36.59375 33.21875 36.59375 22 
C 36.59375 10.671875 30.09375 5.265625 23.5 5.265625 
z
" id="CMSS17-111"/>
    </defs>
    <g style="fill:#ffff00;" transform="translate(331.73013 63.12)scale(0.24 -0.24)">
     <use transform="scale(0.996264)" xlink:href="#CMSS17-56"/>
     <use transform="translate(78.072736 0)scale(0.996264)" xlink:href="#CMSS17-114"/>
     <use transform="translate(109.982509 0)scale(0.996264)" xlink:href="#CMSS17-101"/>
     <use transform="translate(151.621331 0)scale(0.996264)" xlink:href="#CMSS17-116"/>
     <use transform="translate(185.452898 0)scale(0.996264)" xlink:href="#CMSS17-117"/>
     <use transform="translate(233.657841 0)scale(0.996264)" xlink:href="#CMSS17-114"/>
     <use transform="translate(265.567613 0)scale(0.996264)" xlink:href="#CMSS17-110"/>
     <use transform="translate(313.772556 0)scale(0.996264)" xlink:href="#CMSS17-101"/>
     <use transform="translate(355.411378 0)scale(0.996264)" xlink:href="#CMSS17-100"/>
     <use transform="translate(434.845434 0)scale(0.996264)" xlink:href="#CMSS17-47"/>
     <use transform="translate(512.918171 0)scale(0.996264)" xlink:href="#CMSS17-49"/>
     <use transform="translate(559.761794 0)scale(0.996264)" xlink:href="#CMSS17-48"/>
     <use transform="translate(637.83453 0)scale(0.996264)" xlink:href="#CMSS17-111"/>
     <use transform="translate(682.0757 0)scale(0.996264)" xlink:href="#CMSS17-114"/>
     <use transform="translate(713.985473 0)scale(0.996264)" xlink:href="#CMSS17-100"/>
     <use transform="translate(762.190416 0)scale(0.996264)" xlink:href="#CMSS17-101"/>
     <use transform="translate(803.829238 0)scale(0.996264)" xlink:href="#CMSS17-114"/>
     <use transform="translate(835.73901 0)scale(0.996264)" xlink:href="#CMSS17-101"/>
     <use transform="translate(877.377832 0)scale(0.996264)" xlink:href="#CMSS17-100"/>
    </g>
   </g>
   <g id="legend_1">
    <g id="patch_51">
     <path d="M 631.744762 140.871267 
L 763.6 140.871267 
Q 767.6 140.871267 767.6 136.871267 
L 767.6 83.12 
Q 767.6 79.12 763.6 79.12 
L 631.744762 79.12 
Q 627.744762 79.12 627.744762 83.12 
L 627.744762 136.871267 
Q 627.744762 140.871267 631.744762 140.871267 
z
" style="fill:none;opacity:0;"/>
    </g>
    <g id="patch_52">
     <path d="M 635.744762 101.12 
L 675.744762 101.12 
L 675.744762 87.12 
L 635.744762 87.12 
z
" style="fill:#ffff00;"/>
    </g>
    <g id="text_6">
     <!-- prior -->
     <defs>
      <path d="M 15.296875 65.359375 
L 6.90625 65.359375 
L 6.90625 57 
L 15.296875 57 
z
M 14.796875 42.796875 
L 7.40625 42.796875 
L 7.40625 0 
L 14.796875 0 
z
" id="CMSS17-105"/>
     </defs>
     <g style="fill:#ffff00;" transform="translate(691.744762 101.12)scale(0.2 -0.2)">
      <use transform="scale(0.996264)" xlink:href="#CMSS17-112"/>
      <use transform="translate(45.602489 0)scale(0.996264)" xlink:href="#CMSS17-114"/>
      <use transform="translate(77.512262 0)scale(0.996264)" xlink:href="#CMSS17-105"/>
      <use transform="translate(99.692985 0)scale(0.996264)" xlink:href="#CMSS17-111"/>
      <use transform="translate(143.934154 0)scale(0.996264)" xlink:href="#CMSS17-114"/>
     </g>
    </g>
    <g id="patch_53">
     <path d="M 635.744762 128.995634 
L 675.744762 128.995634 
L 675.744762 114.995634 
L 635.744762 114.995634 
z
" style="fill:#f08080;"/>
    </g>
    <g id="text_7">
     <!-- posterior -->
     <defs>
      <path d="M 32.203125 41.046875 
C 26.296875 43.859375 21.703125 43.859375 18.703125 43.859375 
C 11.59375 43.859375 3.09375 41.375 3.09375 31.296875 
C 3.09375 21.234375 14.09375 19.03125 17.09375 18.421875 
C 21.703125 17.53125 26.796875 16.53125 26.796875 11.5625 
C 26.796875 5.265625 19.59375 5.265625 18.296875 5.265625 
C 14.296875 5.265625 8.796875 6.359375 3.796875 9.96875 
L 2.59375 3.28125 
C 8.296875 0 13.796875 -1 18.40625 -1 
C 30.703125 -1 33.796875 6.5 33.796875 12.203125 
C 33.796875 17.09375 31 20.390625 29.09375 21.890625 
C 25.796875 24.5 24.59375 24.796875 16.40625 26.5 
C 15 26.703125 10.09375 27.796875 10.09375 32.28125 
C 10.09375 38 16.40625 38 17.796875 38 
C 24.296875 38 28.296875 35.984375 31 34.5 
z
" id="CMSS17-115"/>
     </defs>
     <g style="fill:#ffff00;" transform="translate(691.744762 128.995634)scale(0.2 -0.2)">
      <use transform="scale(0.996264)" xlink:href="#CMSS17-112"/>
      <use transform="translate(50.807382 0)scale(0.996264)" xlink:href="#CMSS17-111"/>
      <use transform="translate(97.651005 0)scale(0.996264)" xlink:href="#CMSS17-115"/>
      <use transform="translate(133.564547 0)scale(0.996264)" xlink:href="#CMSS17-116"/>
      <use transform="translate(167.396114 0)scale(0.996264)" xlink:href="#CMSS17-101"/>
      <use transform="translate(209.034936 0)scale(0.996264)" xlink:href="#CMSS17-114"/>
      <use transform="translate(240.944709 0)scale(0.996264)" xlink:href="#CMSS17-105"/>
      <use transform="translate(263.125432 0)scale(0.996264)" xlink:href="#CMSS17-111"/>
      <use transform="translate(307.366601 0)scale(0.996264)" xlink:href="#CMSS17-114"/>
     </g>
    </g>
   </g>
  </g>
  <g id="axes_2">
   <g id="patch_54">
    <path clip-path="url(#pae97cf3d24)" d="M 254.169793 350.512941 
L 275.326195 350.512941 
L 275.326195 347.982803 
L 254.169793 347.982803 
z
" style="fill:#ffff00;"/>
   </g>
   <g id="patch_55">
    <path clip-path="url(#pae97cf3d24)" d="M 275.326195 350.512941 
L 296.482596 350.512941 
L 296.482596 346.970748 
L 275.326195 346.970748 
z
" style="fill:#ffff00;"/>
   </g>
   <g id="patch_56">
    <path clip-path="url(#pae97cf3d24)" d="M 296.482596 350.512941 
L 317.638998 350.512941 
L 317.638998 342.4165 
L 296.482596 342.4165 
z
" style="fill:#ffff00;"/>
   </g>
   <g id="patch_57">
    <path clip-path="url(#pae97cf3d24)" d="M 317.638998 350.512941 
L 338.795399 350.512941 
L 338.795399 336.850197 
L 317.638998 336.850197 
z
" style="fill:#ffff00;"/>
   </g>
   <g id="patch_58">
    <path clip-path="url(#pae97cf3d24)" d="M 338.795399 350.512941 
L 359.951801 350.512941 
L 359.951801 327.235673 
L 338.795399 327.235673 
z
" style="fill:#ffff00;"/>
   </g>
   <g id="patch_59">
    <path clip-path="url(#pae97cf3d24)" d="M 359.951801 350.512941 
L 381.108202 350.512941 
L 381.108202 319.64526 
L 359.951801 319.64526 
z
" style="fill:#ffff00;"/>
   </g>
   <g id="patch_60">
    <path clip-path="url(#pae97cf3d24)" d="M 381.108202 350.512941 
L 402.264604 350.512941 
L 402.264604 309.018681 
L 381.108202 309.018681 
z
" style="fill:#ffff00;"/>
   </g>
   <g id="patch_61">
    <path clip-path="url(#pae97cf3d24)" d="M 402.264604 350.512941 
L 423.421005 350.512941 
L 423.421005 298.392102 
L 402.264604 298.392102 
z
" style="fill:#ffff00;"/>
   </g>
   <g id="patch_62">
    <path clip-path="url(#pae97cf3d24)" d="M 423.421005 350.512941 
L 444.577407 350.512941 
L 444.577407 297.380047 
L 423.421005 297.380047 
z
" style="fill:#ffff00;"/>
   </g>
   <g id="patch_63">
    <path clip-path="url(#pae97cf3d24)" d="M 444.577407 350.512941 
L 465.733808 350.512941 
L 465.733808 292.825799 
L 444.577407 292.825799 
z
" style="fill:#ffff00;"/>
   </g>
   <g id="patch_64">
    <path clip-path="url(#pae97cf3d24)" d="M 465.733808 350.512941 
L 486.89021 350.512941 
L 486.89021 294.849909 
L 465.733808 294.849909 
z
" style="fill:#ffff00;"/>
   </g>
   <g id="patch_65">
    <path clip-path="url(#pae97cf3d24)" d="M 486.89021 350.512941 
L 508.046611 350.512941 
L 508.046611 295.355937 
L 486.89021 295.355937 
z
" style="fill:#ffff00;"/>
   </g>
   <g id="patch_66">
    <path clip-path="url(#pae97cf3d24)" d="M 508.046611 350.512941 
L 529.203013 350.512941 
L 529.203013 312.560874 
L 508.046611 312.560874 
z
" style="fill:#ffff00;"/>
   </g>
   <g id="patch_67">
    <path clip-path="url(#pae97cf3d24)" d="M 529.203013 350.512941 
L 550.359415 350.512941 
L 550.359415 326.223618 
L 529.203013 326.223618 
z
" style="fill:#ffff00;"/>
   </g>
   <g id="patch_68">
    <path clip-path="url(#pae97cf3d24)" d="M 550.359415 350.512941 
L 571.515816 350.512941 
L 571.515816 328.753756 
L 550.359415 328.753756 
z
" style="fill:#ffff00;"/>
   </g>
   <g id="patch_69">
    <path clip-path="url(#pae97cf3d24)" d="M 571.515816 350.512941 
L 592.672218 350.512941 
L 592.672218 338.874307 
L 571.515816 338.874307 
z
" style="fill:#ffff00;"/>
   </g>
   <g id="patch_70">
    <path clip-path="url(#pae97cf3d24)" d="M 592.672218 350.512941 
L 613.828619 350.512941 
L 613.828619 343.934583 
L 592.672218 343.934583 
z
" style="fill:#ffff00;"/>
   </g>
   <g id="patch_71">
    <path clip-path="url(#pae97cf3d24)" d="M 613.828619 350.512941 
L 634.985021 350.512941 
L 634.985021 347.476776 
L 613.828619 347.476776 
z
" style="fill:#ffff00;"/>
   </g>
   <g id="patch_72">
    <path clip-path="url(#pae97cf3d24)" d="M 634.985021 350.512941 
L 656.141422 350.512941 
L 656.141422 348.488831 
L 634.985021 348.488831 
z
" style="fill:#ffff00;"/>
   </g>
   <g id="patch_73">
    <path clip-path="url(#pae97cf3d24)" d="M 656.141422 350.512941 
L 677.297824 350.512941 
L 677.297824 348.994858 
L 656.141422 348.994858 
z
" style="fill:#ffff00;"/>
   </g>
   <g id="patch_74">
    <path clip-path="url(#pae97cf3d24)" d="M 420.773274 350.512941 
L 434.125621 350.512941 
L 434.125621 349.711155 
L 420.773274 349.711155 
z
" style="fill:#f08080;"/>
   </g>
   <g id="patch_75">
    <path clip-path="url(#pae97cf3d24)" d="M 434.125621 350.512941 
L 447.477968 350.512941 
L 447.477968 350.512941 
L 434.125621 350.512941 
z
" style="fill:#f08080;"/>
   </g>
   <g id="patch_76">
    <path clip-path="url(#pae97cf3d24)" d="M 447.477968 350.512941 
L 460.830315 350.512941 
L 460.830315 350.512941 
L 447.477968 350.512941 
z
" style="fill:#f08080;"/>
   </g>
   <g id="patch_77">
    <path clip-path="url(#pae97cf3d24)" d="M 460.830315 350.512941 
L 474.182662 350.512941 
L 474.182662 350.512941 
L 460.830315 350.512941 
z
" style="fill:#f08080;"/>
   </g>
   <g id="patch_78">
    <path clip-path="url(#pae97cf3d24)" d="M 474.182662 350.512941 
L 487.535009 350.512941 
L 487.535009 348.107584 
L 474.182662 348.107584 
z
" style="fill:#f08080;"/>
   </g>
   <g id="patch_79">
    <path clip-path="url(#pae97cf3d24)" d="M 487.535009 350.512941 
L 500.887356 350.512941 
L 500.887356 344.098655 
L 487.535009 344.098655 
z
" style="fill:#f08080;"/>
   </g>
   <g id="patch_80">
    <path clip-path="url(#pae97cf3d24)" d="M 500.887356 350.512941 
L 514.239704 350.512941 
L 514.239704 340.891511 
L 500.887356 340.891511 
z
" style="fill:#f08080;"/>
   </g>
   <g id="patch_81">
    <path clip-path="url(#pae97cf3d24)" d="M 514.239704 350.512941 
L 527.592051 350.512941 
L 527.592051 321.648652 
L 514.239704 321.648652 
z
" style="fill:#f08080;"/>
   </g>
   <g id="patch_82">
    <path clip-path="url(#pae97cf3d24)" d="M 527.592051 350.512941 
L 540.944398 350.512941 
L 540.944398 316.036151 
L 527.592051 316.036151 
z
" style="fill:#f08080;"/>
   </g>
   <g id="patch_83">
    <path clip-path="url(#pae97cf3d24)" d="M 540.944398 350.512941 
L 554.296745 350.512941 
L 554.296745 291.982577 
L 540.944398 291.982577 
z
" style="fill:#f08080;"/>
   </g>
   <g id="patch_84">
    <path clip-path="url(#pae97cf3d24)" d="M 554.296745 350.512941 
L 567.649092 350.512941 
L 567.649092 266.325431 
L 554.296745 266.325431 
z
" style="fill:#f08080;"/>
   </g>
   <g id="patch_85">
    <path clip-path="url(#pae97cf3d24)" d="M 567.649092 350.512941 
L 581.001439 350.512941 
L 581.001439 251.893287 
L 567.649092 251.893287 
z
" style="fill:#f08080;"/>
   </g>
   <g id="patch_86">
    <path clip-path="url(#pae97cf3d24)" d="M 581.001439 350.512941 
L 594.353786 350.512941 
L 594.353786 230.24507 
L 581.001439 230.24507 
z
" style="fill:#f08080;"/>
   </g>
   <g id="patch_87">
    <path clip-path="url(#pae97cf3d24)" d="M 594.353786 350.512941 
L 607.706133 350.512941 
L 607.706133 240.668286 
L 594.353786 240.668286 
z
" style="fill:#f08080;"/>
   </g>
   <g id="patch_88">
    <path clip-path="url(#pae97cf3d24)" d="M 607.706133 350.512941 
L 621.05848 350.512941 
L 621.05848 259.911145 
L 607.706133 259.911145 
z
" style="fill:#f08080;"/>
   </g>
   <g id="patch_89">
    <path clip-path="url(#pae97cf3d24)" d="M 621.05848 350.512941 
L 634.410827 350.512941 
L 634.410827 279.95579 
L 621.05848 279.95579 
z
" style="fill:#f08080;"/>
   </g>
   <g id="patch_90">
    <path clip-path="url(#pae97cf3d24)" d="M 634.410827 350.512941 
L 647.763174 350.512941 
L 647.763174 303.207579 
L 634.410827 303.207579 
z
" style="fill:#f08080;"/>
   </g>
   <g id="patch_91">
    <path clip-path="url(#pae97cf3d24)" d="M 647.763174 350.512941 
L 661.115521 350.512941 
L 661.115521 327.261153 
L 647.763174 327.261153 
z
" style="fill:#f08080;"/>
   </g>
   <g id="patch_92">
    <path clip-path="url(#pae97cf3d24)" d="M 661.115521 350.512941 
L 674.467868 350.512941 
L 674.467868 342.495083 
L 661.115521 342.495083 
z
" style="fill:#f08080;"/>
   </g>
   <g id="patch_93">
    <path clip-path="url(#pae97cf3d24)" d="M 674.467868 350.512941 
L 687.820215 350.512941 
L 687.820215 342.495083 
L 674.467868 342.495083 
z
" style="fill:#f08080;"/>
   </g>
   <g id="matplotlib.axis_3">
    <g id="xtick_7">
     <g id="line2d_8">
      <g>
       <use style="fill:#ffff00;stroke:#ffff00;stroke-width:0.8;" x="108" xlink:href="#m611311bfef" y="350.512941"/>
      </g>
     </g>
    </g>
    <g id="xtick_8">
     <g id="line2d_9">
      <g>
       <use style="fill:#ffff00;stroke:#ffff00;stroke-width:0.8;" x="241.92" xlink:href="#m611311bfef" y="350.512941"/>
      </g>
     </g>
    </g>
    <g id="xtick_9">
     <g id="line2d_10">
      <g>
       <use style="fill:#ffff00;stroke:#ffff00;stroke-width:0.8;" x="375.84" xlink:href="#m611311bfef" y="350.512941"/>
      </g>
     </g>
    </g>
    <g id="xtick_10">
     <g id="line2d_11">
      <g>
       <use style="fill:#ffff00;stroke:#ffff00;stroke-width:0.8;" x="509.76" xlink:href="#m611311bfef" y="350.512941"/>
      </g>
     </g>
    </g>
    <g id="xtick_11">
     <g id="line2d_12">
      <g>
       <use style="fill:#ffff00;stroke:#ffff00;stroke-width:0.8;" x="643.68" xlink:href="#m611311bfef" y="350.512941"/>
      </g>
     </g>
    </g>
    <g id="xtick_12">
     <g id="line2d_13">
      <g>
       <use style="fill:#ffff00;stroke:#ffff00;stroke-width:0.8;" x="777.6" xlink:href="#m611311bfef" y="350.512941"/>
      </g>
     </g>
    </g>
   </g>
   <g id="matplotlib.axis_4">
    <g id="text_8">
     <!-- $p(\theta)$ -->
     <g style="fill:#ffff00;" transform="translate(99.035356 303.329048)rotate(-90)scale(0.2 -0.2)">
      <use transform="scale(0.996264)" xlink:href="#CMMI12-112"/>
      <use transform="translate(48.959514 0)scale(0.996264)" xlink:href="#CMR17-40"/>
      <use transform="translate(84.240282 0)scale(0.996264)" xlink:href="#CMMI12-18"/>
      <use transform="translate(132.40979 0)scale(0.996264)" xlink:href="#CMR17-41"/>
     </g>
    </g>
   </g>
   <g id="line2d_14">
    <path clip-path="url(#pae97cf3d24)" d="M 452.722786 350.512941 
L 452.722786 222.607059 
" style="fill:none;opacity:0.3;stroke:#000000;stroke-dasharray:5.55,2.4;stroke-dashoffset:0;stroke-width:1.5;"/>
   </g>
   <g id="patch_94">
    <path d="M 108 350.512941 
L 108 222.607059 
" style="fill:none;stroke:#000000;stroke-linecap:square;stroke-linejoin:miter;stroke-width:0.8;"/>
   </g>
   <g id="patch_95">
    <path d="M 777.6 350.512941 
L 777.6 222.607059 
" style="fill:none;stroke:#000000;stroke-linecap:square;stroke-linejoin:miter;stroke-width:0.8;"/>
   </g>
   <g id="patch_96">
    <path d="M 108 350.512941 
L 777.6 350.512941 
" style="fill:none;stroke:#000000;stroke-linecap:square;stroke-linejoin:miter;stroke-width:0.8;"/>
   </g>
   <g id="patch_97">
    <path d="M 108 222.607059 
L 777.6 222.607059 
" style="fill:none;stroke:#000000;stroke-linecap:square;stroke-linejoin:miter;stroke-width:0.8;"/>
   </g>
   <g id="patch_98">
    <path d="M 588.55348 300.399659 
Q 588.55348 324.457644 588.55348 347.397594 
" style="fill:none;stroke:#000000;stroke-linecap:round;"/>
    <path d="M 591.55348 341.397594 
L 588.55348 347.397594 
L 585.55348 341.397594 
" style="fill:none;stroke:#000000;stroke-linecap:round;"/>
   </g>
   <g id="text_9">
    <g id="patch_99">
     <path d="M 576.879226 296.28198 
C 579.129226 298.53198 597.977734 298.53198 600.227734 296.28198 
C 602.477734 294.03198 602.477734 279.08802 600.227734 276.83802 
C 597.977734 274.58802 579.129226 274.58802 576.879226 276.83802 
C 574.629226 279.08802 574.629226 294.03198 576.879226 296.28198 
z
" style="fill:#ffffff;stroke:#000000;stroke-linejoin:miter;"/>
    </g>
    <!-- $\langle\theta\rangle$ -->
    <g style="fill:#ffff00;" transform="translate(579.129226 290.29599)scale(0.15 -0.15)">
     <use transform="scale(0.996264)" xlink:href="#CMSY10-104"/>
     <use transform="translate(38.743734 0)scale(0.996264)" xlink:href="#CMMI12-18"/>
     <use transform="translate(86.913242 0)scale(0.996264)" xlink:href="#CMSY10-105"/>
    </g>
   </g>
   <g id="patch_100">
    <path d="M 643.68 339.539398 
Q 643.68 344.02553 643.68 347.393629 
" style="fill:none;stroke:#000000;stroke-linecap:round;"/>
    <path d="M 646.68 341.393629 
L 643.68 347.393629 
L 640.68 341.393629 
" style="fill:none;stroke:#000000;stroke-linecap:round;"/>
   </g>
   <g id="text_10">
    <g id="patch_101">
     <path d="M 635.190459 335.422323 
C 637.440459 337.672323 649.919541 337.672323 652.169541 335.422323 
C 654.419541 333.172323 654.419541 319.888854 652.169541 317.638854 
C 649.919541 315.388854 637.440459 315.388854 635.190459 317.638854 
C 632.940459 319.888854 632.940459 333.172323 635.190459 335.422323 
z
" style="fill:#ffffff;stroke:#000000;stroke-linejoin:miter;"/>
    </g>
    <!-- rq -->
    <g style="fill:#ffff00;" transform="translate(637.440459 330.266578)scale(0.15 -0.15)">
     <use transform="scale(0.996264)" xlink:href="#CMSS17-114"/>
     <use transform="translate(31.909773 0)scale(0.996264)" xlink:href="#CMSS17-113"/>
    </g>
   </g>
   <g id="patch_102">
    <path d="M 644.262744 238.595294 
Q 586.312121 238.595294 528.361498 238.595294 
" style="fill:none;stroke:#ffff00;stroke-linecap:round;"/>
    <path d="M 636.262744 234.595294 
L 644.262744 238.595294 
L 636.262744 242.595294 
" style="fill:none;stroke:#ffff00;stroke-linecap:round;"/>
    <path d="M 536.361498 242.595294 
L 528.361498 238.595294 
L 536.361498 234.595294 
" style="fill:none;stroke:#ffff00;stroke-linecap:round;"/>
   </g>
   <g id="text_11">
    <!-- Spread -->
    <g style="fill:#ffff00;" transform="translate(565.705622 254.583529)scale(0.15 -0.15)">
     <use transform="scale(0.996264)" xlink:href="#CMSS17-83"/>
     <use transform="translate(52.048516 0)scale(0.996264)" xlink:href="#CMSS17-112"/>
     <use transform="translate(97.651005 0)scale(0.996264)" xlink:href="#CMSS17-114"/>
     <use transform="translate(129.560778 0)scale(0.996264)" xlink:href="#CMSS17-101"/>
     <use transform="translate(171.1996 0)scale(0.996264)" xlink:href="#CMSS17-97"/>
     <use transform="translate(216.121521 0)scale(0.996264)" xlink:href="#CMSS17-100"/>
    </g>
   </g>
   <g id="text_12">
    <!-- 40 returned / 50 ordered -->
    <defs>
     <path d="M 35.203125 17 
L 44.296875 17 
L 44.296875 23.078125 
L 35.203125 23.078125 
L 35.203125 65.5 
L 26.40625 65.5 
L 2.59375 23.078125 
L 2.59375 17 
L 27.296875 17 
L 27.296875 0 
L 35.203125 0 
z
M 10.296875 23.078125 
C 16.09375 33.234375 27.59375 53.734375 27.59375 60.703125 
L 27.59375 23.078125 
z
" id="CMSS17-52"/>
     <path d="M 14.59375 58.625 
L 39.09375 58.625 
L 39.09375 65 
L 7.296875 65 
L 7.296875 27.828125 
L 14 27.828125 
C 15.796875 31.96875 19.5 35 24.296875 35 
C 28.796875 35 33.796875 31.078125 33.796875 19.78125 
C 33.796875 7.703125 26.703125 4.171875 21.5 4.171875 
C 15.09375 4.171875 9.203125 8 6.59375 13.296875 
L 3.40625 7.796875 
C 8 0.765625 15.5 -2 21.5 -2 
C 33.09375 -2 42.203125 7.765625 42.203125 19.578125 
C 42.203125 31.71875 34.09375 41.078125 24.40625 41.078125 
C 20.90625 41.078125 17.5 39.890625 14.59375 37.484375 
z
" id="CMSS17-53"/>
    </defs>
    <g style="fill:#ffff00;" transform="translate(326.108899 216.607059)scale(0.24 -0.24)">
     <use transform="scale(0.996264)" xlink:href="#CMSS17-52"/>
     <use transform="translate(46.843624 0)scale(0.996264)" xlink:href="#CMSS17-48"/>
     <use transform="translate(124.91636 0)scale(0.996264)" xlink:href="#CMSS17-114"/>
     <use transform="translate(156.826132 0)scale(0.996264)" xlink:href="#CMSS17-101"/>
     <use transform="translate(198.464954 0)scale(0.996264)" xlink:href="#CMSS17-116"/>
     <use transform="translate(232.296521 0)scale(0.996264)" xlink:href="#CMSS17-117"/>
     <use transform="translate(280.501464 0)scale(0.996264)" xlink:href="#CMSS17-114"/>
     <use transform="translate(312.411237 0)scale(0.996264)" xlink:href="#CMSS17-110"/>
     <use transform="translate(360.61618 0)scale(0.996264)" xlink:href="#CMSS17-101"/>
     <use transform="translate(402.255002 0)scale(0.996264)" xlink:href="#CMSS17-100"/>
     <use transform="translate(481.689058 0)scale(0.996264)" xlink:href="#CMSS17-47"/>
     <use transform="translate(559.761794 0)scale(0.996264)" xlink:href="#CMSS17-53"/>
     <use transform="translate(606.605418 0)scale(0.996264)" xlink:href="#CMSS17-48"/>
     <use transform="translate(684.678154 0)scale(0.996264)" xlink:href="#CMSS17-111"/>
     <use transform="translate(728.919324 0)scale(0.996264)" xlink:href="#CMSS17-114"/>
     <use transform="translate(760.829096 0)scale(0.996264)" xlink:href="#CMSS17-100"/>
     <use transform="translate(809.034039 0)scale(0.996264)" xlink:href="#CMSS17-101"/>
     <use transform="translate(850.672861 0)scale(0.996264)" xlink:href="#CMSS17-114"/>
     <use transform="translate(882.582634 0)scale(0.996264)" xlink:href="#CMSS17-101"/>
     <use transform="translate(924.221456 0)scale(0.996264)" xlink:href="#CMSS17-100"/>
    </g>
   </g>
   <g id="legend_2">
    <g id="patch_103">
     <path d="M 122 294.358326 
L 253.855238 294.358326 
Q 257.855238 294.358326 257.855238 290.358326 
L 257.855238 236.607059 
Q 257.855238 232.607059 253.855238 232.607059 
L 122 232.607059 
Q 118 232.607059 118 236.607059 
L 118 290.358326 
Q 118 294.358326 122 294.358326 
z
" style="fill:none;opacity:0;"/>
    </g>
    <g id="patch_104">
     <path d="M 126 254.607059 
L 166 254.607059 
L 166 240.607059 
L 126 240.607059 
z
" style="fill:#ffff00;"/>
    </g>
    <g id="text_13">
     <!-- prior -->
     <g style="fill:#ffff00;" transform="translate(182 254.607059)scale(0.2 -0.2)">
      <use transform="scale(0.996264)" xlink:href="#CMSS17-112"/>
      <use transform="translate(45.602489 0)scale(0.996264)" xlink:href="#CMSS17-114"/>
      <use transform="translate(77.512262 0)scale(0.996264)" xlink:href="#CMSS17-105"/>
      <use transform="translate(99.692985 0)scale(0.996264)" xlink:href="#CMSS17-111"/>
      <use transform="translate(143.934154 0)scale(0.996264)" xlink:href="#CMSS17-114"/>
     </g>
    </g>
    <g id="patch_105">
     <path d="M 126 282.482692 
L 166 282.482692 
L 166 268.482692 
L 126 268.482692 
z
" style="fill:#f08080;"/>
    </g>
    <g id="text_14">
     <!-- posterior -->
     <g style="fill:#ffff00;" transform="translate(182 282.482692)scale(0.2 -0.2)">
      <use transform="scale(0.996264)" xlink:href="#CMSS17-112"/>
      <use transform="translate(50.807382 0)scale(0.996264)" xlink:href="#CMSS17-111"/>
      <use transform="translate(97.651005 0)scale(0.996264)" xlink:href="#CMSS17-115"/>
      <use transform="translate(133.564547 0)scale(0.996264)" xlink:href="#CMSS17-116"/>
      <use transform="translate(167.396114 0)scale(0.996264)" xlink:href="#CMSS17-101"/>
      <use transform="translate(209.034936 0)scale(0.996264)" xlink:href="#CMSS17-114"/>
      <use transform="translate(240.944709 0)scale(0.996264)" xlink:href="#CMSS17-105"/>
      <use transform="translate(263.125432 0)scale(0.996264)" xlink:href="#CMSS17-111"/>
      <use transform="translate(307.366601 0)scale(0.996264)" xlink:href="#CMSS17-114"/>
     </g>
    </g>
   </g>
  </g>
  <g id="axes_3">
   <g id="patch_106">
    <path clip-path="url(#pb4a149d266)" d="M 254.169793 504 
L 275.326195 504 
L 275.326195 501.469862 
L 254.169793 501.469862 
z
" style="fill:#ffff00;"/>
   </g>
   <g id="patch_107">
    <path clip-path="url(#pb4a149d266)" d="M 275.326195 504 
L 296.482596 504 
L 296.482596 500.457807 
L 275.326195 500.457807 
z
" style="fill:#ffff00;"/>
   </g>
   <g id="patch_108">
    <path clip-path="url(#pb4a149d266)" d="M 296.482596 504 
L 317.638998 504 
L 317.638998 495.903559 
L 296.482596 495.903559 
z
" style="fill:#ffff00;"/>
   </g>
   <g id="patch_109">
    <path clip-path="url(#pb4a149d266)" d="M 317.638998 504 
L 338.795399 504 
L 338.795399 490.337256 
L 317.638998 490.337256 
z
" style="fill:#ffff00;"/>
   </g>
   <g id="patch_110">
    <path clip-path="url(#pb4a149d266)" d="M 338.795399 504 
L 359.951801 504 
L 359.951801 480.722732 
L 338.795399 480.722732 
z
" style="fill:#ffff00;"/>
   </g>
   <g id="patch_111">
    <path clip-path="url(#pb4a149d266)" d="M 359.951801 504 
L 381.108202 504 
L 381.108202 473.132319 
L 359.951801 473.132319 
z
" style="fill:#ffff00;"/>
   </g>
   <g id="patch_112">
    <path clip-path="url(#pb4a149d266)" d="M 381.108202 504 
L 402.264604 504 
L 402.264604 462.50574 
L 381.108202 462.50574 
z
" style="fill:#ffff00;"/>
   </g>
   <g id="patch_113">
    <path clip-path="url(#pb4a149d266)" d="M 402.264604 504 
L 423.421005 504 
L 423.421005 451.879161 
L 402.264604 451.879161 
z
" style="fill:#ffff00;"/>
   </g>
   <g id="patch_114">
    <path clip-path="url(#pb4a149d266)" d="M 423.421005 504 
L 444.577407 504 
L 444.577407 450.867106 
L 423.421005 450.867106 
z
" style="fill:#ffff00;"/>
   </g>
   <g id="patch_115">
    <path clip-path="url(#pb4a149d266)" d="M 444.577407 504 
L 465.733808 504 
L 465.733808 446.312858 
L 444.577407 446.312858 
z
" style="fill:#ffff00;"/>
   </g>
   <g id="patch_116">
    <path clip-path="url(#pb4a149d266)" d="M 465.733808 504 
L 486.89021 504 
L 486.89021 448.336968 
L 465.733808 448.336968 
z
" style="fill:#ffff00;"/>
   </g>
   <g id="patch_117">
    <path clip-path="url(#pb4a149d266)" d="M 486.89021 504 
L 508.046611 504 
L 508.046611 448.842995 
L 486.89021 448.842995 
z
" style="fill:#ffff00;"/>
   </g>
   <g id="patch_118">
    <path clip-path="url(#pb4a149d266)" d="M 508.046611 504 
L 529.203013 504 
L 529.203013 466.047933 
L 508.046611 466.047933 
z
" style="fill:#ffff00;"/>
   </g>
   <g id="patch_119">
    <path clip-path="url(#pb4a149d266)" d="M 529.203013 504 
L 550.359415 504 
L 550.359415 479.710677 
L 529.203013 479.710677 
z
" style="fill:#ffff00;"/>
   </g>
   <g id="patch_120">
    <path clip-path="url(#pb4a149d266)" d="M 550.359415 504 
L 571.515816 504 
L 571.515816 482.240815 
L 550.359415 482.240815 
z
" style="fill:#ffff00;"/>
   </g>
   <g id="patch_121">
    <path clip-path="url(#pb4a149d266)" d="M 571.515816 504 
L 592.672218 504 
L 592.672218 492.361366 
L 571.515816 492.361366 
z
" style="fill:#ffff00;"/>
   </g>
   <g id="patch_122">
    <path clip-path="url(#pb4a149d266)" d="M 592.672218 504 
L 613.828619 504 
L 613.828619 497.421642 
L 592.672218 497.421642 
z
" style="fill:#ffff00;"/>
   </g>
   <g id="patch_123">
    <path clip-path="url(#pb4a149d266)" d="M 613.828619 504 
L 634.985021 504 
L 634.985021 500.963835 
L 613.828619 500.963835 
z
" style="fill:#ffff00;"/>
   </g>
   <g id="patch_124">
    <path clip-path="url(#pb4a149d266)" d="M 634.985021 504 
L 656.141422 504 
L 656.141422 501.97589 
L 634.985021 501.97589 
z
" style="fill:#ffff00;"/>
   </g>
   <g id="patch_125">
    <path clip-path="url(#pb4a149d266)" d="M 656.141422 504 
L 677.297824 504 
L 677.297824 502.481917 
L 656.141422 502.481917 
z
" style="fill:#ffff00;"/>
   </g>
   <g id="patch_126">
    <path clip-path="url(#pb4a149d266)" d="M 519.891373 504 
L 527.852839 504 
L 527.852839 498.62123 
L 519.891373 498.62123 
z
" style="fill:#f08080;"/>
   </g>
   <g id="patch_127">
    <path clip-path="url(#pb4a149d266)" d="M 527.852839 504 
L 535.814304 504 
L 535.814304 504 
L 527.852839 504 
z
" style="fill:#f08080;"/>
   </g>
   <g id="patch_128">
    <path clip-path="url(#pb4a149d266)" d="M 535.814304 504 
L 543.77577 504 
L 543.77577 498.62123 
L 535.814304 498.62123 
z
" style="fill:#f08080;"/>
   </g>
   <g id="patch_129">
    <path clip-path="url(#pb4a149d266)" d="M 543.77577 504 
L 551.737235 504 
L 551.737235 495.931845 
L 543.77577 495.931845 
z
" style="fill:#f08080;"/>
   </g>
   <g id="patch_130">
    <path clip-path="url(#pb4a149d266)" d="M 551.737235 504 
L 559.698701 504 
L 559.698701 486.518998 
L 551.737235 486.518998 
z
" style="fill:#f08080;"/>
   </g>
   <g id="patch_131">
    <path clip-path="url(#pb4a149d266)" d="M 559.698701 504 
L 567.660166 504 
L 567.660166 469.037997 
L 559.698701 469.037997 
z
" style="fill:#f08080;"/>
   </g>
   <g id="patch_132">
    <path clip-path="url(#pb4a149d266)" d="M 567.660166 504 
L 575.621631 504 
L 575.621631 451.556995 
L 567.660166 451.556995 
z
" style="fill:#f08080;"/>
   </g>
   <g id="patch_133">
    <path clip-path="url(#pb4a149d266)" d="M 575.621631 504 
L 583.583097 504 
L 583.583097 428.697223 
L 575.621631 428.697223 
z
" style="fill:#f08080;"/>
   </g>
   <g id="patch_134">
    <path clip-path="url(#pb4a149d266)" d="M 583.583097 504 
L 591.544562 504 
L 591.544562 431.386608 
L 583.583097 431.386608 
z
" style="fill:#f08080;"/>
   </g>
   <g id="patch_135">
    <path clip-path="url(#pb4a149d266)" d="M 591.544562 504 
L 599.506028 504 
L 599.506028 370.875449 
L 591.544562 370.875449 
z
" style="fill:#f08080;"/>
   </g>
   <g id="patch_136">
    <path clip-path="url(#pb4a149d266)" d="M 599.506028 504 
L 607.467493 504 
L 607.467493 348.015677 
L 599.506028 348.015677 
z
" style="fill:#f08080;"/>
   </g>
   <g id="patch_137">
    <path clip-path="url(#pb4a149d266)" d="M 607.467493 504 
L 615.428959 504 
L 615.428959 321.121828 
L 607.467493 321.121828 
z
" style="fill:#f08080;"/>
   </g>
   <g id="patch_138">
    <path clip-path="url(#pb4a149d266)" d="M 615.428959 504 
L 623.390424 504 
L 623.390424 349.36037 
L 615.428959 349.36037 
z
" style="fill:#f08080;"/>
   </g>
   <g id="patch_139">
    <path clip-path="url(#pb4a149d266)" d="M 623.390424 504 
L 631.351889 504 
L 631.351889 353.394447 
L 623.390424 353.394447 
z
" style="fill:#f08080;"/>
   </g>
   <g id="patch_140">
    <path clip-path="url(#pb4a149d266)" d="M 631.351889 504 
L 639.313355 504 
L 639.313355 387.011758 
L 631.351889 387.011758 
z
" style="fill:#f08080;"/>
   </g>
   <g id="patch_141">
    <path clip-path="url(#pb4a149d266)" d="M 639.313355 504 
L 647.27482 504 
L 647.27482 436.765378 
L 639.313355 436.765378 
z
" style="fill:#f08080;"/>
   </g>
   <g id="patch_142">
    <path clip-path="url(#pb4a149d266)" d="M 647.27482 504 
L 655.236286 504 
L 655.236286 444.833533 
L 647.27482 444.833533 
z
" style="fill:#f08080;"/>
   </g>
   <g id="patch_143">
    <path clip-path="url(#pb4a149d266)" d="M 655.236286 504 
L 663.197751 504 
L 663.197751 471.727381 
L 655.236286 471.727381 
z
" style="fill:#f08080;"/>
   </g>
   <g id="patch_144">
    <path clip-path="url(#pb4a149d266)" d="M 663.197751 504 
L 671.159217 504 
L 671.159217 494.587153 
L 663.197751 494.587153 
z
" style="fill:#f08080;"/>
   </g>
   <g id="patch_145">
    <path clip-path="url(#pb4a149d266)" d="M 671.159217 504 
L 679.120682 504 
L 679.120682 493.24246 
L 671.159217 493.24246 
z
" style="fill:#f08080;"/>
   </g>
   <g id="matplotlib.axis_5">
    <g id="xtick_13">
     <g id="line2d_15">
      <g>
       <use style="fill:#ffff00;stroke:#ffff00;stroke-width:0.8;" x="108" xlink:href="#m611311bfef" y="504"/>
      </g>
     </g>
     <g id="text_15">
      <!-- $0.0$ -->
      <defs>
       <path d="M 42 31.640625 
C 42 37.75 41.90625 48.125 37.703125 56.109375 
C 34 63.109375 28.09375 65.59375 22.90625 65.59375 
C 18.09375 65.59375 12 63.40625 8.203125 56.203125 
C 4.203125 48.71875 3.796875 39.4375 3.796875 31.640625 
C 3.796875 25.953125 3.90625 17.28125 7 9.671875 
C 11.296875 -0.609375 19 -2 22.90625 -2 
C 27.5 -2 34.5 -0.109375 38.59375 9.375 
C 41.59375 16.28125 42 24.359375 42 31.640625 
z
M 22.90625 -0.40625 
C 16.5 -0.40625 12.703125 5.078125 11.296875 12.6875 
C 10.203125 18.5625 10.203125 27.15625 10.203125 32.75 
C 10.203125 40.4375 10.203125 46.828125 11.5 52.921875 
C 13.40625 61.390625 19 64 22.90625 64 
C 27 64 32.296875 61.296875 34.203125 53.125 
C 35.5 47.4375 35.59375 40.734375 35.59375 32.75 
C 35.59375 26.25 35.59375 18.265625 34.40625 12.375 
C 32.296875 1.484375 26.40625 -0.40625 22.90625 -0.40625 
z
" id="CMR17-48"/>
       <path d="M 18.40625 4.796875 
C 18.40625 7.6875 16 9.671875 13.59375 9.671875 
C 10.703125 9.671875 8.703125 7.28125 8.703125 4.890625 
C 8.703125 2 11.09375 0 13.5 0 
C 16.40625 0 18.40625 2.390625 18.40625 4.796875 
z
" id="CMMI12-58"/>
      </defs>
      <g style="fill:#ffff00;" transform="translate(96.152187 524.836997)scale(0.2 -0.2)">
       <use transform="scale(0.996264)" xlink:href="#CMR17-48"/>
       <use transform="translate(45.690477 0)scale(0.996264)" xlink:href="#CMMI12-58"/>
       <use transform="translate(72.787654 0)scale(0.996264)" xlink:href="#CMR17-48"/>
      </g>
     </g>
    </g>
    <g id="xtick_14">
     <g id="line2d_16">
      <g>
       <use style="fill:#ffff00;stroke:#ffff00;stroke-width:0.8;" x="241.92" xlink:href="#m611311bfef" y="504"/>
      </g>
     </g>
     <g id="text_16">
      <!-- $0.2$ -->
      <defs>
       <path d="M 41.703125 15.453125 
L 39.90625 15.453125 
C 38.90625 8.375 38.09375 7.171875 37.703125 6.5625 
C 37.203125 5.765625 30 5.765625 28.59375 5.765625 
L 9.40625 5.765625 
C 13 9.671875 20 16.75 28.5 24.953125 
C 34.59375 30.734375 41.703125 37.53125 41.703125 47.421875 
C 41.703125 59.21875 32.296875 66 21.796875 66 
C 10.796875 66 4.09375 56.3125 4.09375 47.34375 
C 4.09375 43.4375 7 42.9375 8.203125 42.9375 
C 9.203125 42.9375 12.203125 43.546875 12.203125 47.03125 
C 12.203125 50.109375 9.59375 51 8.203125 51 
C 7.59375 51 7 50.90625 6.59375 50.703125 
C 8.5 59.21875 14.296875 63.40625 20.40625 63.40625 
C 29.09375 63.40625 34.796875 56.515625 34.796875 47.421875 
C 34.796875 38.734375 29.703125 31.25 24 24.75 
L 4.09375 2.28125 
L 4.09375 0 
L 39.296875 0 
z
" id="CMR17-50"/>
      </defs>
      <g style="fill:#ffff00;" transform="translate(230.072187 524.836997)scale(0.2 -0.2)">
       <use transform="scale(0.996264)" xlink:href="#CMR17-48"/>
       <use transform="translate(45.690477 0)scale(0.996264)" xlink:href="#CMMI12-58"/>
       <use transform="translate(72.787654 0)scale(0.996264)" xlink:href="#CMR17-50"/>
      </g>
     </g>
    </g>
    <g id="xtick_15">
     <g id="line2d_17">
      <g>
       <use style="fill:#ffff00;stroke:#ffff00;stroke-width:0.8;" x="375.84" xlink:href="#m611311bfef" y="504"/>
      </g>
     </g>
     <g id="text_17">
      <!-- $0.4$ -->
      <defs>
       <path d="M 33.59375 64.40625 
C 33.59375 66.5 33.5 66.5 31.703125 66.5 
L 2 19.59375 
L 2 17 
L 27.796875 17 
L 27.796875 7.140625 
C 27.796875 3.5 27.59375 2.5 20.59375 2.5 
L 18.703125 2.5 
L 18.703125 0 
C 21.90625 0 27.296875 0 30.703125 0 
C 34.09375 0 39.5 0 42.703125 0 
L 42.703125 2.5 
L 40.796875 2.5 
C 33.796875 2.5 33.59375 3.5 33.59375 7.140625 
L 33.59375 17 
L 43.796875 17 
L 43.796875 19.59375 
L 33.59375 19.59375 
z
M 28.09375 57.859375 
L 28.09375 19.59375 
L 4 19.59375 
z
" id="CMR17-52"/>
      </defs>
      <g style="fill:#ffff00;" transform="translate(363.992187 524.836997)scale(0.2 -0.2)">
       <use transform="scale(0.996264)" xlink:href="#CMR17-48"/>
       <use transform="translate(45.690477 0)scale(0.996264)" xlink:href="#CMMI12-58"/>
       <use transform="translate(72.787654 0)scale(0.996264)" xlink:href="#CMR17-52"/>
      </g>
     </g>
    </g>
    <g id="xtick_16">
     <g id="line2d_18">
      <g>
       <use style="fill:#ffff00;stroke:#ffff00;stroke-width:0.8;" x="509.76" xlink:href="#m611311bfef" y="504"/>
      </g>
     </g>
     <g id="text_18">
      <!-- $0.6$ -->
      <defs>
       <path d="M 10.59375 34 
C 10.59375 57.65625 21.796875 63 28.296875 63 
C 30.40625 63 35.5 62.640625 37.5 59 
C 35.90625 59 32.90625 59 32.90625 55.515625 
C 32.90625 52.828125 35.09375 51.921875 36.5 51.921875 
C 37.40625 51.921875 40.09375 52.3125 40.09375 55.625 
C 40.09375 61.78125 35.09375 65.296875 28.203125 65.296875 
C 16.296875 65.296875 3.796875 52.96875 3.796875 31 
C 3.796875 3.953125 15.09375 -2 23.09375 -2 
C 32.796875 -2 42 6.671875 42 20.046875 
C 42 32.515625 33.90625 41.59375 23.703125 41.59375 
C 17.59375 41.59375 13.09375 37.609375 10.59375 30.625 
z
M 23.09375 0.390625 
C 10.796875 0.390625 10.796875 18.75 10.796875 22.4375 
C 10.796875 29.625 14.203125 40 23.5 40 
C 25.203125 40 30.09375 40 33.40625 33.125 
C 35.203125 29.21875 35.203125 25.140625 35.203125 20.140625 
C 35.203125 14.75 35.203125 10.78125 33.09375 6.78125 
C 30.90625 2.671875 27.703125 0.390625 23.09375 0.390625 
z
" id="CMR17-54"/>
      </defs>
      <g style="fill:#ffff00;" transform="translate(497.912187 524.836997)scale(0.2 -0.2)">
       <use transform="scale(0.996264)" xlink:href="#CMR17-48"/>
       <use transform="translate(45.690477 0)scale(0.996264)" xlink:href="#CMMI12-58"/>
       <use transform="translate(72.787654 0)scale(0.996264)" xlink:href="#CMR17-54"/>
      </g>
     </g>
    </g>
    <g id="xtick_17">
     <g id="line2d_19">
      <g>
       <use style="fill:#ffff00;stroke:#ffff00;stroke-width:0.8;" x="643.68" xlink:href="#m611311bfef" y="504"/>
      </g>
     </g>
     <g id="text_19">
      <!-- $0.8$ -->
      <defs>
       <path d="M 27.203125 35.375 
C 33.5 38.546875 39.90625 43.328125 39.90625 50.984375 
C 39.90625 60.015625 31.09375 65.296875 23 65.296875 
C 13.90625 65.296875 5.90625 58.734375 5.90625 49.6875 
C 5.90625 47.203125 6.5 42.921875 10.40625 39.140625 
C 11.40625 38.15625 15.59375 35.171875 18.296875 33.28125 
C 13.796875 30.984375 3.296875 25.53125 3.296875 14.59375 
C 3.296875 4.359375 13.09375 -2 22.796875 -2 
C 33.5 -2 42.5 5.65625 42.5 15.78125 
C 42.5 24.84375 36.40625 29.015625 32.40625 31.703125 
z
M 14.09375 44.09375 
C 13.296875 44.59375 9.296875 47.671875 9.296875 52.359375 
C 9.296875 58.421875 15.59375 63 22.796875 63 
C 30.703125 63 36.5 57.4375 36.5 50.96875 
C 36.5 41.703125 26.09375 36.421875 25.59375 36.421875 
C 25.5 36.421875 25.40625 36.421875 24.59375 37.03125 
z
M 32.5 23.734375 
C 34 22.640625 38.796875 19.375 38.796875 13.296875 
C 38.796875 5.953125 31.40625 0.390625 23 0.390625 
C 13.90625 0.390625 7 6.84375 7 14.6875 
C 7 22.546875 13.09375 29.09375 20 32.1875 
z
" id="CMR17-56"/>
      </defs>
      <g style="fill:#ffff00;" transform="translate(631.832187 524.836997)scale(0.2 -0.2)">
       <use transform="scale(0.996264)" xlink:href="#CMR17-48"/>
       <use transform="translate(45.690477 0)scale(0.996264)" xlink:href="#CMMI12-58"/>
       <use transform="translate(72.787654 0)scale(0.996264)" xlink:href="#CMR17-56"/>
      </g>
     </g>
    </g>
    <g id="xtick_18">
     <g id="line2d_20">
      <g>
       <use style="fill:#ffff00;stroke:#ffff00;stroke-width:0.8;" x="777.6" xlink:href="#m611311bfef" y="504"/>
      </g>
     </g>
     <g id="text_20">
      <!-- $1.0$ -->
      <defs>
       <path d="M 26.59375 63.40625 
C 26.59375 65.5 26.5 65.5 25.09375 65.5 
C 21.203125 61.1875 15.296875 59.796875 9.703125 59.796875 
C 9.40625 59.796875 8.90625 59.796875 8.796875 59.5 
C 8.703125 59.296875 8.703125 59.09375 8.703125 57 
C 11.796875 57 17 57.59375 21 59.984375 
L 21 7.203125 
C 21 3.6875 20.796875 2.5 12.203125 2.5 
L 9.203125 2.5 
L 9.203125 0 
C 14 0 19 0 23.796875 0 
C 28.59375 0 33.59375 0 38.40625 0 
L 38.40625 2.5 
L 35.40625 2.5 
C 26.796875 2.5 26.59375 3.59375 26.59375 7.15625 
z
" id="CMR17-49"/>
      </defs>
      <g style="fill:#ffff00;" transform="translate(765.752187 524.836997)scale(0.2 -0.2)">
       <use transform="scale(0.996264)" xlink:href="#CMR17-49"/>
       <use transform="translate(45.690477 0)scale(0.996264)" xlink:href="#CMMI12-58"/>
       <use transform="translate(72.787654 0)scale(0.996264)" xlink:href="#CMR17-48"/>
      </g>
     </g>
    </g>
    <g id="text_21">
     <!-- $\theta$ -->
     <g style="fill:#ffff00;" transform="translate(438.254021 546.549627)scale(0.2 -0.2)">
      <use transform="scale(0.996264)" xlink:href="#CMMI12-18"/>
     </g>
    </g>
   </g>
   <g id="matplotlib.axis_6">
    <g id="text_22">
     <!-- $p(\theta)$ -->
     <g style="fill:#ffff00;" transform="translate(99.035356 456.816107)rotate(-90)scale(0.2 -0.2)">
      <use transform="scale(0.996264)" xlink:href="#CMMI12-112"/>
      <use transform="translate(48.959514 0)scale(0.996264)" xlink:href="#CMR17-40"/>
      <use transform="translate(84.240282 0)scale(0.996264)" xlink:href="#CMMI12-18"/>
      <use transform="translate(132.40979 0)scale(0.996264)" xlink:href="#CMR17-41"/>
     </g>
    </g>
   </g>
   <g id="line2d_21">
    <path clip-path="url(#pb4a149d266)" d="M 452.722786 504 
L 452.722786 376.094118 
" style="fill:none;opacity:0.3;stroke:#000000;stroke-dasharray:5.55,2.4;stroke-dashoffset:0;stroke-width:1.5;"/>
   </g>
   <g id="patch_146">
    <path d="M 108 504 
L 108 376.094118 
" style="fill:none;stroke:#000000;stroke-linecap:square;stroke-linejoin:miter;stroke-width:0.8;"/>
   </g>
   <g id="patch_147">
    <path d="M 777.6 504 
L 777.6 376.094118 
" style="fill:none;stroke:#000000;stroke-linecap:square;stroke-linejoin:miter;stroke-width:0.8;"/>
   </g>
   <g id="patch_148">
    <path d="M 108 504 
L 777.6 504 
" style="fill:none;stroke:#000000;stroke-linecap:square;stroke-linejoin:miter;stroke-width:0.8;"/>
   </g>
   <g id="patch_149">
    <path d="M 108 376.094118 
L 777.6 376.094118 
" style="fill:none;stroke:#000000;stroke-linecap:square;stroke-linejoin:miter;stroke-width:0.8;"/>
   </g>
   <g id="patch_150">
    <path d="M 611.476964 453.886718 
Q 611.476964 477.944703 611.476964 500.884653 
" style="fill:none;stroke:#000000;stroke-linecap:round;"/>
    <path d="M 614.476964 494.884653 
L 611.476964 500.884653 
L 608.476964 494.884653 
" style="fill:none;stroke:#000000;stroke-linecap:round;"/>
   </g>
   <g id="text_23">
    <g id="patch_151">
     <path d="M 599.80271 449.769039 
C 602.05271 452.019039 620.901217 452.019039 623.151217 449.769039 
C 625.401217 447.519039 625.401217 432.575079 623.151217 430.325079 
C 620.901217 428.075079 602.05271 428.075079 599.80271 430.325079 
C 597.55271 432.575079 597.55271 447.519039 599.80271 449.769039 
z
" style="fill:#ffffff;stroke:#000000;stroke-linejoin:miter;"/>
    </g>
    <!-- $\langle\theta\rangle$ -->
    <g style="fill:#ffff00;" transform="translate(602.05271 443.783049)scale(0.15 -0.15)">
     <use transform="scale(0.996264)" xlink:href="#CMSY10-104"/>
     <use transform="translate(38.743734 0)scale(0.996264)" xlink:href="#CMMI12-18"/>
     <use transform="translate(86.913242 0)scale(0.996264)" xlink:href="#CMSY10-105"/>
    </g>
   </g>
   <g id="patch_152">
    <path d="M 643.68 493.026457 
Q 643.68 497.512589 643.68 500.880687 
" style="fill:none;stroke:#000000;stroke-linecap:round;"/>
    <path d="M 646.68 494.880687 
L 643.68 500.880687 
L 640.68 494.880687 
" style="fill:none;stroke:#000000;stroke-linecap:round;"/>
   </g>
   <g id="text_24">
    <g id="patch_153">
     <path d="M 635.190459 488.909382 
C 637.440459 491.159382 649.919541 491.159382 652.169541 488.909382 
C 654.419541 486.659382 654.419541 473.375912 652.169541 471.125912 
C 649.919541 468.875912 637.440459 468.875912 635.190459 471.125912 
C 632.940459 473.375912 632.940459 486.659382 635.190459 488.909382 
z
" style="fill:#ffffff;stroke:#000000;stroke-linejoin:miter;"/>
    </g>
    <!-- rq -->
    <g style="fill:#ffff00;" transform="translate(637.440459 483.753637)scale(0.15 -0.15)">
     <use transform="scale(0.996264)" xlink:href="#CMSS17-114"/>
     <use transform="translate(31.909773 0)scale(0.996264)" xlink:href="#CMSS17-113"/>
    </g>
   </g>
   <g id="patch_154">
    <path d="M 648.755858 392.082353 
Q 608.994732 392.082353 569.233605 392.082353 
" style="fill:none;stroke:#ffff00;stroke-linecap:round;"/>
    <path d="M 640.755858 388.082353 
L 648.755858 392.082353 
L 640.755858 396.082353 
" style="fill:none;stroke:#ffff00;stroke-linecap:round;"/>
    <path d="M 577.233605 396.082353 
L 569.233605 392.082353 
L 577.233605 388.082353 
" style="fill:none;stroke:#ffff00;stroke-linecap:round;"/>
   </g>
   <g id="text_25">
    <!-- Spread -->
    <g style="fill:#ffff00;" transform="translate(588.386862 408.070588)scale(0.15 -0.15)">
     <use transform="scale(0.996264)" xlink:href="#CMSS17-83"/>
     <use transform="translate(52.048516 0)scale(0.996264)" xlink:href="#CMSS17-112"/>
     <use transform="translate(97.651005 0)scale(0.996264)" xlink:href="#CMSS17-114"/>
     <use transform="translate(129.560778 0)scale(0.996264)" xlink:href="#CMSS17-101"/>
     <use transform="translate(171.1996 0)scale(0.996264)" xlink:href="#CMSS17-97"/>
     <use transform="translate(216.121521 0)scale(0.996264)" xlink:href="#CMSS17-100"/>
    </g>
   </g>
   <g id="text_26">
    <!-- 80 returned / 100 ordered -->
    <g style="fill:#ffff00;" transform="translate(320.487668 370.094118)scale(0.24 -0.24)">
     <use transform="scale(0.996264)" xlink:href="#CMSS17-56"/>
     <use transform="translate(46.843624 0)scale(0.996264)" xlink:href="#CMSS17-48"/>
     <use transform="translate(124.91636 0)scale(0.996264)" xlink:href="#CMSS17-114"/>
     <use transform="translate(156.826132 0)scale(0.996264)" xlink:href="#CMSS17-101"/>
     <use transform="translate(198.464954 0)scale(0.996264)" xlink:href="#CMSS17-116"/>
     <use transform="translate(232.296521 0)scale(0.996264)" xlink:href="#CMSS17-117"/>
     <use transform="translate(280.501464 0)scale(0.996264)" xlink:href="#CMSS17-114"/>
     <use transform="translate(312.411237 0)scale(0.996264)" xlink:href="#CMSS17-110"/>
     <use transform="translate(360.61618 0)scale(0.996264)" xlink:href="#CMSS17-101"/>
     <use transform="translate(402.255002 0)scale(0.996264)" xlink:href="#CMSS17-100"/>
     <use transform="translate(481.689058 0)scale(0.996264)" xlink:href="#CMSS17-47"/>
     <use transform="translate(559.761794 0)scale(0.996264)" xlink:href="#CMSS17-49"/>
     <use transform="translate(606.605418 0)scale(0.996264)" xlink:href="#CMSS17-48"/>
     <use transform="translate(653.449041 0)scale(0.996264)" xlink:href="#CMSS17-48"/>
     <use transform="translate(731.521777 0)scale(0.996264)" xlink:href="#CMSS17-111"/>
     <use transform="translate(775.762947 0)scale(0.996264)" xlink:href="#CMSS17-114"/>
     <use transform="translate(807.67272 0)scale(0.996264)" xlink:href="#CMSS17-100"/>
     <use transform="translate(855.877663 0)scale(0.996264)" xlink:href="#CMSS17-101"/>
     <use transform="translate(897.516485 0)scale(0.996264)" xlink:href="#CMSS17-114"/>
     <use transform="translate(929.426257 0)scale(0.996264)" xlink:href="#CMSS17-101"/>
     <use transform="translate(971.065079 0)scale(0.996264)" xlink:href="#CMSS17-100"/>
    </g>
   </g>
   <g id="legend_3">
    <g id="patch_155">
     <path d="M 122 447.845385 
L 253.855238 447.845385 
Q 257.855238 447.845385 257.855238 443.845385 
L 257.855238 390.094118 
Q 257.855238 386.094118 253.855238 386.094118 
L 122 386.094118 
Q 118 386.094118 118 390.094118 
L 118 443.845385 
Q 118 447.845385 122 447.845385 
z
" style="fill:none;opacity:0;"/>
    </g>
    <g id="patch_156">
     <path d="M 126 408.094118 
L 166 408.094118 
L 166 394.094118 
L 126 394.094118 
z
" style="fill:#ffff00;"/>
    </g>
    <g id="text_27">
     <!-- prior -->
     <g style="fill:#ffff00;" transform="translate(182 408.094118)scale(0.2 -0.2)">
      <use transform="scale(0.996264)" xlink:href="#CMSS17-112"/>
      <use transform="translate(45.602489 0)scale(0.996264)" xlink:href="#CMSS17-114"/>
      <use transform="translate(77.512262 0)scale(0.996264)" xlink:href="#CMSS17-105"/>
      <use transform="translate(99.692985 0)scale(0.996264)" xlink:href="#CMSS17-111"/>
      <use transform="translate(143.934154 0)scale(0.996264)" xlink:href="#CMSS17-114"/>
     </g>
    </g>
    <g id="patch_157">
     <path d="M 126 435.969751 
L 166 435.969751 
L 166 421.969751 
L 126 421.969751 
z
" style="fill:#f08080;"/>
    </g>
    <g id="text_28">
     <!-- posterior -->
     <g style="fill:#ffff00;" transform="translate(182 435.969751)scale(0.2 -0.2)">
      <use transform="scale(0.996264)" xlink:href="#CMSS17-112"/>
      <use transform="translate(50.807382 0)scale(0.996264)" xlink:href="#CMSS17-111"/>
      <use transform="translate(97.651005 0)scale(0.996264)" xlink:href="#CMSS17-115"/>
      <use transform="translate(133.564547 0)scale(0.996264)" xlink:href="#CMSS17-116"/>
      <use transform="translate(167.396114 0)scale(0.996264)" xlink:href="#CMSS17-101"/>
      <use transform="translate(209.034936 0)scale(0.996264)" xlink:href="#CMSS17-114"/>
      <use transform="translate(240.944709 0)scale(0.996264)" xlink:href="#CMSS17-105"/>
      <use transform="translate(263.125432 0)scale(0.996264)" xlink:href="#CMSS17-111"/>
      <use transform="translate(307.366601 0)scale(0.996264)" xlink:href="#CMSS17-114"/>
     </g>
    </g>
   </g>
  </g>
 </g>
 <defs>
  <clipPath id="p4f1e51953c">
   <rect height="127.905882" width="669.6" x="108" y="69.12"/>
  </clipPath>
  <clipPath id="pae97cf3d24">
   <rect height="127.905882" width="669.6" x="108" y="222.607059"/>
  </clipPath>
  <clipPath id="pb4a149d266">
   <rect height="127.905882" width="669.6" x="108" y="376.094118"/>
  </clipPath>
 </defs>
</svg>
