<?xml version="1.0" encoding="UTF-8" standalone="no"?>
<svg
   xmlns:dc="http://purl.org/dc/elements/1.1/"
   xmlns:cc="http://creativecommons.org/ns#"
   xmlns:rdf="http://www.w3.org/1999/02/22-rdf-syntax-ns#"
   xmlns:svg="http://www.w3.org/2000/svg"
   xmlns="http://www.w3.org/2000/svg"
   xmlns:sodipodi="http://sodipodi.sourceforge.net/DTD/sodipodi-0.dtd"
   xmlns:inkscape="http://www.inkscape.org/namespaces/inkscape"
   viewBox="0 0 363.32781 347.8761"
   id="svg4200"
   version="1.1"
   inkscape:version="0.91 r13725"
   sodipodi:docname="shopping-cart.svg"
   width="363.32782"
   height="347.8761">
  <metadata
     id="metadata4208">
    <rdf:RDF>
      <cc:Work
         rdf:about="">
        <dc:format>image/svg+xml</dc:format>
        <dc:type
           rdf:resource="http://purl.org/dc/dcmitype/StillImage" />
        <dc:title></dc:title>
      </cc:Work>
    </rdf:RDF>
  </metadata>
  <defs
     id="defs4206" />
  <sodipodi:namedview
     pagecolor="#ffffff"
     bordercolor="#666666"
     borderopacity="0.25098039"
     objecttolerance="10"
     gridtolerance="10"
     guidetolerance="10"
     inkscape:pageopacity="0"
     inkscape:pageshadow="2"
     inkscape:window-width="1867"
     inkscape:window-height="1056"
     id="namedview4204"
     showgrid="false"
     fit-margin-top="0"
     fit-margin-left="0"
     fit-margin-right="0"
     fit-margin-bottom="0"
     inkscape:zoom="0.81870824"
     inkscape:cx="171.66167"
     inkscape:cy="-171.48561"
     inkscape:window-x="53"
     inkscape:window-y="24"
     inkscape:window-maximized="1"
     inkscape:current-layer="svg4200" />
  <path
     d="m 352.89166,0.0027074 c -0.56104,0.008 -1.137,0.0575 -1.688,0.1562 -0.01,0.002 -0.021,-0.002 -0.031,0 l -55.625,9.5 c -3.538,0.6069996 -6.504,3.0328996 -7.813,6.3749996 a 2.529,2.529 0 0 0 0,0.0312 l -25.812,66.187 -251.909999,6.282 c -2.8970001,0.072 -5.6170001,1.38 -7.5000001,3.562 -1.88400003,2.182 -2.79000003,5.083 -2.43800003,7.969003 l 13.90600013,115.03 c 0.574,4.826 4.561,8.653 9.407,9.031 l 179.589999,14.282 35.594,28 a 2.529,2.529 0 0 0 0.125,0.093 c 0.038,0.027 0.086,0.037 0.125,0.063 0.044,0.029 0.081,0.065 0.125,0.093 6.496,4.849 8.106,11.455 7.188,15.125 -0.52301,2.092 -1.322,3.629 -3.219,4.813 -1.897,1.184 -5.174,2.041 -10.781,1.719 a 2.529,2.529 0 0 0 -0.063,0 c -0.17999,-0.006 -0.383,-0.004 -0.56299,0 -0.03,0 -0.064,-0.001 -0.094,0 l -214.189999,0.625 -0.031,0 c -5.629,-0.036 -10.3660001,4.685 -10.3440001,10.312 0.022,5.628 4.7780001,10.331 10.4060001,10.25 l 0.031,0 15.657,-0.031 c -5.818,3.708 -9.719,10.195 -9.719,17.563 0,11.458 9.385,20.843 20.844,20.843 11.458,0 20.843,-9.385 20.843,-20.843 0,-7.408 -3.911,-13.959 -9.781,-17.657 l 176.379999,-0.5 c -6.354,3.583 -10.687,10.384 -10.687,18.157 0,11.458 9.385,20.843 20.843,20.843 11.459,0 20.844,-9.385 20.844,-20.843 0,-9.952 -7.069,-18.341 -16.437,-20.375 8.857,-3.134 15.661,-9.595 19.875,-19.469 a 2.529,2.529 0 0 0 0.15601,-0.375 c 3.23,-12.917 -2.499,-26.959 -14.313,-36.094 a 2.529,2.529 0 0 0 -0.094,-0.094 c -0.029,-0.022 -0.034,-0.071 -0.062,-0.093 a 2.529,2.529 0 0 0 -0.34302,-0.34399 l -25.219,-19.781 78.656,-201.470001 49.906,-8.5 c 0.01,-0.002 0.022,0.002 0.031,0 5.243,-0.8429 9.077,-5.7292 8.625,-11.0309996 -0.45196,-5.3122 -5.081,-9.4786 -10.406,-9.4062000038 l 0.001,0 z m -98.563,98.1249996 -14.5,37.188003 -18.906,0 0,-36.344003 33.406,-0.844 z m -40.625,1.032 0,36.156003 -34.906,0 0,-35.281 34.906,-0.875003 z m -42.125,1.031003 0,35.125 -34.906,0 0,-34.25 34.906,-0.875 z m -42.125,1.062 0,34.063 -34.905999,0 0,-33.188 34.905999,-0.875 z m -42.124999,1.063 0,33 -34.906,0 0,-32.125 34.906,-0.875 z m -42.125,1.031 0,31.969 -25.594,0 -3.781,-31.219 29.375,-0.75 z m -24.719,39.156 24.719,0 0,32.657 -20.781,0 -3.938,-32.657 z m 31.938,0 34.906,0 0,32.657 -34.906,0 0,-32.657 z m 42.125,0 34.905999,0 0,32.657 -34.905999,0 0,-32.657 z m 42.124999,0 34.906,0 0,32.657 -34.906,0 0,-32.657 z m 42.125,0 34.906,0 0,32.657 -34.906,0 0,-32.657 z m 42.125,0 16.125,0 -12.75,32.657 -3.375,0 0,-32.657 z m -195.619999,39.844 19.906,0 0,23.438 -17.25,-1.375 -2.656,-22.063 z m 27.125,0 34.906,0 0,26.781 -34.906,-2.781 0,-24 z m 42.125,0 34.905999,0 0,30.125 -34.905999,-2.75 0,-27.375 z m 42.124999,0 34.906,0 0,33.5 -34.906,-2.781 0,-30.719 z m 42.125,0 34.906,0 0,19.875 -6.625,16.969 c -0.85998,-0.41702 -1.798,-0.673 -2.75,-0.75 l -25.531,-2.031 0,-34.063 z m 42.125,0 0.53101,0 -0.531,1.469 0,-1.469 z m -176.839999,132.44 c 6.811,0 12.25,5.439 12.25,12.25 0,6.811 -5.439,12.218 -12.25,12.218 -6.811,0 -12.25,-5.407 -12.25,-12.218 0,-6.811 5.439,-12.25 12.25,-12.25 z m 197.589999,0 c 6.811,0 12.25,5.439 12.25,12.25 0,6.811 -5.439,12.218 -12.25,12.218 -6.811,0 -12.25,-5.407 -12.25,-12.218 0,-6.811 5.439,-12.25 12.25,-12.25 z m -197.589999,5.812 c -3.7,0 -6.656,2.956 -6.656,6.656 0,3.701 2.956,6.625 6.656,6.625 3.7,0 6.656,-2.924 6.656,-6.625 0,-3.7 -2.956,-6.656 -6.656,-6.656 z m 197.589999,0 c -3.7,0 -6.656,2.956 -6.656,6.656 0,3.701 2.956,6.625 6.656,6.625 3.7,0 6.656,-2.924 6.656,-6.625 0,-3.7 -2.956,-6.656 -6.656,-6.656 z"
     id="path4202"
     inkscape:connector-curvature="0"
     style="fill:#ff7f00;stroke-width:18.5" />
</svg>
